<?xml version="1.0" encoding="UTF-8"?>
<svg width="40px" height="40px" viewBox="0 0 40 40" version="1.1" xmlns="http://www.w3.org/2000/svg" xmlns:xlink="http://www.w3.org/1999/xlink">
    <title>编组 4</title>
    <defs>
        <linearGradient x1="50%" y1="0%" x2="50%" y2="100%" id="linearGradient-1">
            <stop stop-color="#ABEC51" offset="0%"></stop>
            <stop stop-color="#3D9321" offset="100%"></stop>
        </linearGradient>
        <linearGradient x1="50%" y1="0%" x2="50%" y2="100%" id="linearGradient-2">
            <stop stop-color="#97E60B" offset="0%"></stop>
            <stop stop-color="#2A7B09" offset="100%"></stop>
        </linearGradient>
        <circle id="path-3" cx="16" cy="16" r="16"></circle>
        <filter x="-21.9%" y="-15.6%" width="143.8%" height="143.8%" filterUnits="objectBoundingBox" id="filter-4">
            <feOffset dx="0" dy="2" in="SourceAlpha" result="shadowOffsetOuter1"></feOffset>
            <feGaussianBlur stdDeviation="2" in="shadowOffsetOuter1" result="shadowBlurOuter1"></feGaussianBlur>
            <feComposite in="shadowBlurOuter1" in2="SourceAlpha" operator="out" result="shadowBlurOuter1"></feComposite>
            <feColorMatrix values="0 0 0 0 0.35140762   0 0 0 0 0.903306159   0 0 0 0 0.0154567251  0 0 0 0.3 0" type="matrix" in="shadowBlurOuter1"></feColorMatrix>
        </filter>
        <linearGradient x1="50%" y1="0%" x2="50%" y2="100%" id="linearGradient-5">
            <stop stop-color="#80C308" stop-opacity="0.8" offset="0%"></stop>
            <stop stop-color="#31900B" stop-opacity="0.8" offset="100%"></stop>
        </linearGradient>
    </defs>
    <g id="20230320版本" stroke="none" stroke-width="1" fill="none" fill-rule="evenodd">
        <g id="更新1060-下载更新-1" transform="translate(-1347.000000, -472.000000)" fill-rule="nonzero">
            <g id="编组-4" transform="translate(1351.000000, 474.000000)">
                <g id="椭圆形">
                    <use fill="black" fill-opacity="1" filter="url(#filter-4)" xlink:href="#path-3"></use>
                    <circle stroke="url(#linearGradient-2)" stroke-width="0.5" stroke-linejoin="square" fill="url(#linearGradient-1)" fill-rule="evenodd" cx="16" cy="16" r="15.75"></circle>
                </g>
                <path d="M15.9857401,7.75014125 C16.3563319,7.75492602 16.6806933,7.86855382 16.9402127,8.08415451 L22.7735376,12.9303019 C23.0702844,13.1768301 23.2285576,13.5117357 23.247972,13.8522361 C23.2674516,14.1938781 23.1474002,14.5432475 22.8795003,14.8180167 C22.6193344,15.0848535 22.2671145,15.2307014 21.906775,15.2482077 C21.5474367,15.2656655 21.1814557,15.1553831 20.8931252,14.9158469 L17.25,11.889663 L17.25,22.8212824 C17.25,23.182069 17.1330476,23.5102882 16.9438965,23.75904 C16.7415463,24.0251496 16.4573625,24.200614 16.1406356,24.2410688 C15.6335268,24.2516627 15.3264607,24.0807682 15.102256,23.8164943 C14.8861763,23.5617974 14.75,23.2105821 14.75,22.8212824 L14.75,11.8878652 L11.1068877,14.9158362 C10.8404774,15.1371617 10.5078651,15.2481639 10.17535,15.2499774 C9.83911461,15.2518112 9.50403292,15.1418569 9.23859281,14.925935 C8.83849311,14.5311365 8.7330311,14.1854116 8.75202795,13.8522361 C8.77144244,13.5117357 8.92971557,13.1768301 9.22646236,12.9303019 L15.0597873,8.08415451 C15.3215071,7.86672579 15.6493497,7.75468528 15.9857401,7.75014125 Z" id="形状结合" stroke="url(#linearGradient-5)" stroke-width="0.5" fill="#FFFFFF"></path>
            </g>
        </g>
    </g>
</svg>