<?xml version="1.0" encoding="UTF-8"?>
<svg width="120px" height="120px" viewBox="0 0 120 120" version="1.1" xmlns="http://www.w3.org/2000/svg" xmlns:xlink="http://www.w3.org/1999/xlink">
    <title>picture/updating/dark</title>
    <defs>
        <linearGradient x1="50%" y1="0%" x2="50%" y2="100%" id="linearGradient-1">
            <stop stop-color="#7E7E7E" stop-opacity="0.6" offset="0%"></stop>
            <stop stop-color="#000000" stop-opacity="0" offset="100%"></stop>
        </linearGradient>
    </defs>
    <g id="picture/updating/dark" stroke="none" stroke-width="1" fill="none" fill-rule="evenodd">
        <g id="编组" transform="translate(14.000000, 12.000000)">
            <path d="M53.362,10.9997989 L61.3333333,11 C67.2243707,11 72,15.7756293 72,21.6666667 L72.000656,29.5291935 C67.4408703,28.1037341 62.5352786,27.9441484 57.8564776,29.121208 C57.5889858,29.042118 57.3060781,29 57.0133333,29 L30.9866667,29 C29.3371762,29 28,30.3371762 28,31.9866667 L28,32.0133333 C28,33.6628238 29.3371762,35 30.9866667,35 L46.8400026,35.0001354 C43.9797122,37.5681315 41.8122531,40.651828 40.368291,43.9998068 L14.9866667,44 C13.3371762,44 12,45.3371762 12,46.9866667 L12,47.0133333 C12,48.6628238 13.3371762,50 14.9866667,50 L38.5990022,50.0007076 C38.1002485,52.9663144 38.1132237,56.0143954 38.6555212,59.0007103 L14.9866667,59 C13.3371762,59 12,60.3371762 12,61.9866667 L12,62.0133333 C12,63.6628238 13.3371762,65 14.9866667,65 L40.5189136,65.0002853 C41.3624155,66.8749672 42.4427793,68.6794247 43.7650967,70.3719139 L44.0165917,70.688788 C44.9949233,71.9022588 46.0631471,73.0073336 47.2048425,74.0009467 L14.9866667,74 C13.3371762,74 12,75.3371762 12,76.9866667 L12,77.0133333 C12,78.6628238 13.3371762,80 14.9866667,80 L58.0133333,80 C58.3493818,80 58.6724676,79.9445 58.9739246,79.8421661 C63.244043,80.7343629 67.7307272,80.557812 72.0001574,79.2308674 L72,80.3333333 C72,86.2243707 67.2243707,91 61.3333333,91 L10.6666667,91 C4.77562934,91 2.49780084e-15,86.2243707 0,80.3333333 L0,21.6666667 C-7.21444001e-16,15.7756293 4.77562934,11 10.6666667,11 L18.637,10.9997989 L18.0405068,14.9339158 C18.0135416,15.1115012 18,15.2909136 18,15.4705882 C18,17.4198285 19.5596016,19 21.4834677,19 L50.5160419,19 C50.6933777,19 50.8704546,18.9862798 51.0457282,18.9589589 C52.947223,18.6625629 54.2515405,16.8604898 53.9590028,14.9339158 L53.362,10.9997989 Z M60.3025597,31.6647274 C64.2267813,30.9887155 68.2655638,31.3449304 72.000828,32.6820383 L72.0007717,75.9852018 C68.4404869,77.2639378 64.6583168,77.6228034 60.997455,77.1039374 L61,77.0133333 L61,76.9866667 C61,75.3371762 59.6628238,74 58.0133333,74 L52.2940223,74.000968 C49.9769529,72.5957131 47.8708176,70.7541892 46.1034764,68.4920956 C45.233225,67.3782246 44.4817907,66.2093176 43.8472992,65.00064 L58.0133333,65 C59.6628238,65 61,63.6628238 61,62.0133333 L61,61.9866667 C61,60.3371762 59.6628238,59 58.0133333,59 L41.7012751,59.0003362 C41.0861226,56.0206785 41.0729072,52.9590496 41.6388768,50.00075 L58.0133333,50 C59.6628238,50 61,48.6628238 61,47.0133333 L61,46.9866667 C61,45.3371762 59.6628238,44 58.0133333,44 L43.6728547,44.0000977 C45.1529566,41.0504483 47.294152,38.374419 50.0675098,36.2076344 C50.6201033,35.775901 51.1862421,35.3734106 51.7640623,34.9999342 L57.0133333,35 C58.6628238,35 60,33.6628238 60,32.0133333 L60,31.9866667 C60,31.8971093 59.9960582,31.8084725 59.9883387,31.7209205 Z M17,27 C14.2385763,27 12,29.2385763 12,32 C12,34.7614237 14.2385763,37 17,37 C19.7614237,37 22,34.7614237 22,32 C22,29.2385763 19.7614237,27 17,27 Z M36,0 C39.1710037,0 41.8495435,2.10848853 42.7101075,4.99995367 L47.2244107,5 C48.9971527,5 50.499065,6.30583807 50.745456,8.06137379 L51.7158079,14.9751313 C51.8522724,15.9474411 51.174686,16.8462803 50.2023762,16.9827448 C50.1205139,16.9942343 50.0379499,17 49.9552853,17 L22.0447147,17 C21.0628752,17 20.2669369,16.2040618 20.2669369,15.2222222 C20.2669369,15.1395576 20.2727027,15.0569936 20.2841921,14.9751313 L21.254544,8.06137379 C21.500935,6.30583807 23.0028473,5 24.7755893,5 L29.2898925,4.99995367 C30.1504565,2.10848853 32.8289963,0 36,0 Z M36,3 C34.3431458,3 33,4.34314575 33,6 C33,7.65685425 34.3431458,9 36,9 C37.6568542,9 39,7.65685425 39,6 C39,4.34314575 37.6568542,3 36,3 Z" id="形状结合" fill="#575757" fill-rule="nonzero"></path>
            <g id="放大镜" transform="translate(31.943263, 22.047420)">
                <path d="M39.0567375,6.95257956 C51.7592867,6.95257956 62.0567375,17.2500303 62.0567375,29.9525796 C62.0567375,40.937616 54.3556695,50.1239717 44.0578585,52.4073217 L44.0567375,70.4525796 C44.0567375,72.9378609 42.0420189,74.9525796 39.5567375,74.9525796 C37.0714561,74.9525796 35.0567375,72.9378609 35.0567375,70.4525796 L35.057339,52.6060839 C24.2612563,50.7131537 16.0567375,41.2910006 16.0567375,29.9525796 C16.0567375,17.2500303 26.3541882,6.95257956 39.0567375,6.95257956 Z M39.5567375,66.9525796 C38.1760256,66.9525796 37.0567375,68.0718677 37.0567375,69.4525796 C37.0567375,70.8332914 38.1760256,71.9525796 39.5567375,71.9525796 C40.9374494,71.9525796 42.0567375,70.8332914 42.0567375,69.4525796 C42.0567375,68.0718677 40.9374494,66.9525796 39.5567375,66.9525796 Z M39.0567375,11.4297368 C28.8268539,11.4297368 20.5338947,19.722696 20.5338947,29.9525796 C20.5338947,40.1824631 28.8268539,48.4754223 39.0567375,48.4754223 C49.2866211,48.4754223 57.5795803,40.1824631 57.5795803,29.9525796 C57.5795803,19.722696 49.2866211,11.4297368 39.0567375,11.4297368 Z" id="形状结合" fill="#575757" transform="translate(39.056737, 40.952580) rotate(-38.000000) translate(-39.056737, -40.952580) "></path>
                <circle id="椭圆形" fill="url(#linearGradient-1)" transform="translate(32.284461, 32.284461) rotate(-38.000000) translate(-32.284461, -32.284461) " cx="32.2844613" cy="32.2844613" r="18.5228428"></circle>
            </g>
        </g>
    </g>
</svg>