<?xml version="1.0" encoding="UTF-8"?>
<svg width="120px" height="120px" viewBox="0 0 120 120" version="1.1" xmlns="http://www.w3.org/2000/svg" xmlns:xlink="http://www.w3.org/1999/xlink">
    <title>picture-no active/dark</title>
    <g id="picture-no-active/dark" stroke="none" stroke-width="1" fill="none" fill-rule="evenodd">
        <g id="编组" transform="translate(12.312000, 8.000000)" fill="#575757">
            <path d="M47.6753666,22.0357376 L49.5417872,22.459471 C50.2681044,22.6243668 50.7553903,23.3076095 50.6747412,24.0480304 L50.2635123,27.823427 C50.1961361,28.4419925 50.5265299,29.035716 51.0877011,29.304509 L53.2309084,30.3310746 C53.7959287,30.6017112 54.4704804,30.4834424 54.909728,30.0367281 L57.5337928,27.368057 C58.0594006,26.8335144 58.9035793,26.7815664 59.4907612,27.2476317 L60.9971399,28.4432931 C61.5780473,28.9043781 61.7231568,29.7266429 61.3351647,30.3587148 L59.3676926,33.5638931 C59.0420073,34.0944618 59.0868943,34.7728558 59.4796459,35.2558881 L61.0771053,37.2205508 C61.4685702,37.7020006 62.1207223,37.8848859 62.7054462,37.6771922 L66.2267339,36.4264318 C66.9265653,36.1778519 67.7017358,36.4918039 68.0313491,37.1573196 L68.8826825,38.8762298 C69.2139985,39.5451832 68.9897983,40.3562724 68.3619473,40.7600942 L65.2639064,42.7526947 C64.736488,43.0919201 64.4831963,43.7290139 64.6337217,44.3377718 L65.2905206,46.9940128 C65.4372704,47.5875018 65.9368771,48.0276387 66.544131,48.0984019 L70.320179,48.5384244 C71.0339123,48.6215957 71.5821942,49.2097693 71.6151155,49.9275777 L71.6864633,51.4832234 C71.688076,51.5183867 71.6884219,51.5535968 71.6875003,51.588785 L71.6674592,52.3539767 C71.6551653,52.8233706 71.2996623,53.2123306 70.8332633,53.26668 L66.738768,53.7438112 C66.1068489,53.8174486 65.5945253,54.2902083 65.4704471,54.9141865 L64.9016006,57.7748647 C64.7917121,58.3274843 65.0084363,58.8903805 65.4515482,59.2274667 C61.0123205,62.9978979 58.0891053,68.5012117 57.7262129,74.6924651 L55.6490037,72.5800086 C55.2017669,72.1251693 54.5117688,72.0116848 53.9424159,72.2993248 L51.1819158,73.6939439 C50.6366663,73.9694067 50.3193471,74.5540731 50.3854952,75.1613631 L50.8031822,78.9960507 C50.8832718,79.7313343 50.4031614,80.4111389 49.6834277,80.5815492 L48.0798487,80.9612264 C47.3467472,81.1348018 46.6014123,80.72454 46.3559003,80.012297 L45.1472495,76.5059391 C44.933598,75.886125 44.3344374,75.4834798 43.6798414,75.519818 L42.2692661,75.5981223 C42.2151304,75.6011275 42.1608696,75.6011275 42.1067339,75.5981223 L40.6961586,75.519818 C40.0415626,75.4834798 39.442402,75.886125 39.2287505,76.5059391 L38.0200997,80.012297 C37.7745877,80.72454 37.0292528,81.1348018 36.2961513,80.9612264 L34.6925723,80.5815492 C33.9728386,80.4111389 33.4927282,79.7313343 33.5728178,78.9960507 L33.9905048,75.1613631 C34.0566529,74.5540731 33.7393337,73.9694067 33.1940842,73.6939439 L30.4335841,72.2993248 C29.8642312,72.0116848 29.1742331,72.1251693 28.7269963,72.5800086 L26.1617789,75.1888321 C25.6262077,75.7335074 24.7621786,75.775719 24.1760651,75.2858428 L22.8643632,74.1895167 C22.3061215,73.7229359 22.1744699,72.9175617 22.5550837,72.2975097 L24.5842831,68.9917725 C24.8995397,68.4781928 24.8684433,67.8240173 24.5058919,67.3426573 L22.6803312,64.9188581 C22.2949569,64.4071962 21.6220364,64.2049353 21.018428,64.4193368 L17.6251381,65.6246324 C16.9061358,65.8800218 16.111441,65.5412695 15.7978019,64.8456988 L15.0583437,63.2057715 C14.7598062,62.5436923 14.9909641,61.7628309 15.6018,61.369953 L18.8295041,59.2939556 C19.3360931,58.9681273 19.591872,58.365624 19.4743994,57.7748647 L18.9055529,54.9141865 C18.7814747,54.2902083 18.2691511,53.8174486 17.637232,53.7438112 L13.5427367,53.26668 C13.0763377,53.2123306 12.7208347,52.8233706 12.7085408,52.3539767 L12.6884997,51.588785 C12.6875781,51.5535968 12.687924,51.5183867 12.6895367,51.4832234 L12.7608845,49.9275777 C12.7938058,49.2097693 13.3420877,48.6215957 14.055821,48.5384244 L17.831869,48.0984019 C18.4391229,48.0276387 18.9387296,47.5875018 19.0854794,46.9940128 L19.7422783,44.3377718 C19.8928037,43.7290139 19.639512,43.0919201 19.1120936,42.7526947 L16.0140527,40.7600942 C15.3862017,40.3562724 15.1620015,39.5451832 15.4933175,38.8762298 L16.3446509,37.1573196 C16.6742642,36.4918039 17.4494347,36.1778519 18.1492661,36.4264318 L21.6705538,37.6771922 C22.2552777,37.8848859 22.9074298,37.7020006 23.2988947,37.2205508 L24.8963541,35.2558881 C25.2891057,34.7728558 25.3339927,34.0944618 25.0083074,33.5638931 L23.0408353,30.3587148 C22.6528432,29.7266429 22.7979527,28.9043781 23.3788601,28.4432931 L24.8852388,27.2476317 C25.4724207,26.7815664 26.3165994,26.8335144 26.8422072,27.368057 L29.466272,30.0367281 C29.9055196,30.4834424 30.5800713,30.6017112 31.1450916,30.3310746 L33.2882989,29.304509 C33.8494701,29.035716 34.1798639,28.4419925 34.1124877,27.823427 L33.7012588,24.0480304 C33.6206097,23.3076095 34.1078956,22.6243668 34.8342128,22.459471 L36.7006334,22.0357376 C37.4302535,21.8700919 38.1675592,22.2803847 38.4113822,22.9877278 L39.6227573,26.5019892 C39.8373287,27.1185297 40.4331572,27.5197144 41.0850873,27.4858103 C41.5331606,27.4626029 41.9007982,27.4509993 42.188,27.4509993 C42.4752018,27.4509993 42.8428394,27.4626029 43.2909127,27.4858103 C43.9428428,27.5197144 44.5386713,27.1185297 44.7532427,26.5019892 L45.9646178,22.9877278 C46.2084408,22.2803847 46.9457465,21.8700919 47.6753666,22.0357376 Z M23.4373575,47.5191666 L23.4273581,47.5198421 C23.1560281,48.8045413 23.0133115,50.1366776 23.0133115,51.5021479 C23.0133115,60.4444014 29.1340491,67.957051 37.4151419,70.0786163 C40.2437805,65.5944394 40.5529215,59.7314735 37.7178956,54.8210646 C34.7195061,49.6277015 29.0400783,46.9474187 23.4373575,47.5191666 Z M46.6598756,54.8210646 C43.8248497,59.7314735 44.1339908,65.5944394 46.963269,70.0789947 C55.2437222,67.957051 61.3644597,60.4444014 61.3644597,51.5021479 C61.3644597,50.1366776 61.2217431,48.8045413 60.9504179,47.5201909 C55.3444547,46.944229 49.6600498,49.6246104 46.6598756,54.8210646 Z M42.1889216,48.5498922 C40.5596328,48.5498922 39.2388333,49.8707185 39.2388333,51.5000404 C39.2388333,53.1293622 40.5596328,54.4501885 42.1889216,54.4501885 C43.8182104,54.4501885 45.1390099,53.1293622 45.1390099,51.5000404 C45.1390099,49.8707185 43.8182104,48.5498922 42.1889216,48.5498922 Z M42.1888856,32.3261852 C36.8637032,32.3261852 32.0455109,34.4969121 28.5703677,38.0030042 C30.7941138,43.3317483 36.054142,47.0769258 42.1888856,47.0769258 C48.3236292,47.0769258 53.5836574,43.3317483 55.8069041,38.0017907 C52.3322603,34.4969121 47.514068,32.3261852 42.1888856,32.3261852 Z" id="形状结合"></path>
            <path d="M2.688,47.812 C4.17254141,47.812 5.376,49.0154586 5.376,50.5 C5.376,70.8307062 21.8572938,87.312 42.188,87.312 C48.2157149,87.312 53.9050574,85.8632556 58.9268207,83.2949735 C59.5276978,85.0066961 60.3350733,86.6220399 61.3185816,88.1108015 C55.5769922,91.0376522 49.0752258,92.688 42.188,92.688 C18.888211,92.688 0,73.799789 0,50.5 C0,49.0154586 1.20345859,47.812 2.688,47.812 Z M42.188,8.312 C65.487789,8.312 84.376,27.200211 84.376,50.5 C84.376,51.8359001 84.3139081,53.1572978 84.1924529,54.4614646 C82.7378893,54.1589537 81.2315074,54 79.688,54 C79.4019134,54 79.1171023,54.0054607 78.8336651,54.0162835 C78.9439071,52.8590419 79,51.6860716 79,50.5 C79,30.1692938 62.5187062,13.688 42.188,13.688 C40.7034586,13.688 39.5,12.4845414 39.5,11 C39.5,9.51545859 40.7034586,8.312 42.188,8.312 Z" id="形状结合" fill-rule="nonzero"></path>
            <path d="M36.7487602,4.1215205 L42.0208099,14.6656199 C42.5898732,15.8037463 42.1285563,17.187697 40.9904298,17.7567602 C40.6705069,17.9167217 40.3177344,18 39.9600497,18 L29.4159503,18 C28.1434862,18 27.1119503,16.9684641 27.1119503,15.696 C27.1119503,15.3383153 27.1952286,14.9855428 27.3551901,14.6656199 L32.6272398,4.1215205 C33.196303,2.98339404 34.5802537,2.52207714 35.7183801,3.09114037 C36.1642673,3.31408394 36.5258167,3.67563336 36.7487602,4.1215205 Z" id="三角形" transform="translate(34.688000, 9.000000) rotate(-90.000000) translate(-34.688000, -9.000000) "></path>
            <path d="M79.688,58 C89.6291255,58 97.688,66.0588745 97.688,76 C97.688,85.9411255 89.6291255,94 79.688,94 C69.7468745,94 61.688,85.9411255 61.688,76 C61.688,66.0588745 69.7468745,58 79.688,58 Z M79.688,84 C78.5834305,84 77.688,84.8954305 77.688,86 C77.688,87.1045695 78.5834305,88 79.688,88 C80.7925695,88 81.688,87.1045695 81.688,86 C81.688,84.8954305 80.7925695,84 79.688,84 Z M79.688,64 C78.5834305,64 77.688,64.8954305 77.688,66 L77.688,78 C77.688,79.1045695 78.5834305,80 79.688,80 C80.7925695,80 81.688,79.1045695 81.688,78 L81.688,66 C81.688,64.8954305 80.7925695,64 79.688,64 Z" id="形状结合" fill-rule="nonzero"></path>
        </g>
    </g>
</svg>