<?xml version="1.0" encoding="UTF-8"?>
<svg width="246px" height="142px" viewBox="0 0 246 142" version="1.1" xmlns="http://www.w3.org/2000/svg" xmlns:xlink="http://www.w3.org/1999/xlink">
    <title>picture/abreast of time-dark</title>
    <defs>
        <linearGradient x1="50%" y1="0%" x2="50%" y2="76.6637495%" id="linearGradient-1">
            <stop stop-color="#FFFFFF" stop-opacity="0.1" offset="0%"></stop>
            <stop stop-color="#000000" stop-opacity="0" offset="100%"></stop>
        </linearGradient>
        <linearGradient x1="50%" y1="0%" x2="50%" y2="100%" id="linearGradient-2">
            <stop stop-color="#FFFFFF" stop-opacity="0.05" offset="0%"></stop>
            <stop stop-color="#FFFFFF" stop-opacity="0.02" offset="100%"></stop>
        </linearGradient>
        <rect id="path-3" x="7" y="28" width="8" height="8" rx="2"></rect>
        <filter x="-25.0%" y="-25.0%" width="150.0%" height="150.0%" filterUnits="objectBoundingBox" id="filter-4">
            <feGaussianBlur stdDeviation="1.5" in="SourceAlpha" result="shadowBlurInner1"></feGaussianBlur>
            <feOffset dx="0" dy="1" in="shadowBlurInner1" result="shadowOffsetInner1"></feOffset>
            <feComposite in="shadowOffsetInner1" in2="SourceAlpha" operator="arithmetic" k2="-1" k3="1" result="shadowInnerInner1"></feComposite>
            <feColorMatrix values="0 0 0 0 0   0 0 0 0 0   0 0 0 0 0  0 0 0 0.1 0" type="matrix" in="shadowInnerInner1" result="shadowMatrixInner1"></feColorMatrix>
            <feGaussianBlur stdDeviation="1.5" in="SourceAlpha" result="shadowBlurInner2"></feGaussianBlur>
            <feOffset dx="0" dy="-1" in="shadowBlurInner2" result="shadowOffsetInner2"></feOffset>
            <feComposite in="shadowOffsetInner2" in2="SourceAlpha" operator="arithmetic" k2="-1" k3="1" result="shadowInnerInner2"></feComposite>
            <feColorMatrix values="0 0 0 0 1   0 0 0 0 1   0 0 0 0 1  0 0 0 0.1 0" type="matrix" in="shadowInnerInner2" result="shadowMatrixInner2"></feColorMatrix>
            <feMerge>
                <feMergeNode in="shadowMatrixInner1"></feMergeNode>
                <feMergeNode in="shadowMatrixInner2"></feMergeNode>
            </feMerge>
        </filter>
        <rect id="path-5" x="108.5" y="35.6213203" width="5" height="5" rx="2"></rect>
        <filter x="-40.0%" y="-40.0%" width="180.0%" height="180.0%" filterUnits="objectBoundingBox" id="filter-6">
            <feGaussianBlur stdDeviation="1.5" in="SourceAlpha" result="shadowBlurInner1"></feGaussianBlur>
            <feOffset dx="0" dy="1" in="shadowBlurInner1" result="shadowOffsetInner1"></feOffset>
            <feComposite in="shadowOffsetInner1" in2="SourceAlpha" operator="arithmetic" k2="-1" k3="1" result="shadowInnerInner1"></feComposite>
            <feColorMatrix values="0 0 0 0 0   0 0 0 0 0   0 0 0 0 0  0 0 0 0.1 0" type="matrix" in="shadowInnerInner1" result="shadowMatrixInner1"></feColorMatrix>
            <feGaussianBlur stdDeviation="1.5" in="SourceAlpha" result="shadowBlurInner2"></feGaussianBlur>
            <feOffset dx="0" dy="-1" in="shadowBlurInner2" result="shadowOffsetInner2"></feOffset>
            <feComposite in="shadowOffsetInner2" in2="SourceAlpha" operator="arithmetic" k2="-1" k3="1" result="shadowInnerInner2"></feComposite>
            <feColorMatrix values="0 0 0 0 1   0 0 0 0 1   0 0 0 0 1  0 0 0 0.1 0" type="matrix" in="shadowInnerInner2" result="shadowMatrixInner2"></feColorMatrix>
            <feMerge>
                <feMergeNode in="shadowMatrixInner1"></feMergeNode>
                <feMergeNode in="shadowMatrixInner2"></feMergeNode>
            </feMerge>
        </filter>
        <rect id="path-7" x="106" y="89" width="5" height="5" rx="2"></rect>
        <filter x="-40.0%" y="-40.0%" width="180.0%" height="180.0%" filterUnits="objectBoundingBox" id="filter-8">
            <feGaussianBlur stdDeviation="1.5" in="SourceAlpha" result="shadowBlurInner1"></feGaussianBlur>
            <feOffset dx="0" dy="1" in="shadowBlurInner1" result="shadowOffsetInner1"></feOffset>
            <feComposite in="shadowOffsetInner1" in2="SourceAlpha" operator="arithmetic" k2="-1" k3="1" result="shadowInnerInner1"></feComposite>
            <feColorMatrix values="0 0 0 0 0   0 0 0 0 0   0 0 0 0 0  0 0 0 0.1 0" type="matrix" in="shadowInnerInner1" result="shadowMatrixInner1"></feColorMatrix>
            <feGaussianBlur stdDeviation="1.5" in="SourceAlpha" result="shadowBlurInner2"></feGaussianBlur>
            <feOffset dx="0" dy="-1" in="shadowBlurInner2" result="shadowOffsetInner2"></feOffset>
            <feComposite in="shadowOffsetInner2" in2="SourceAlpha" operator="arithmetic" k2="-1" k3="1" result="shadowInnerInner2"></feComposite>
            <feColorMatrix values="0 0 0 0 1   0 0 0 0 1   0 0 0 0 1  0 0 0 0.1 0" type="matrix" in="shadowInnerInner2" result="shadowMatrixInner2"></feColorMatrix>
            <feMerge>
                <feMergeNode in="shadowMatrixInner1"></feMergeNode>
                <feMergeNode in="shadowMatrixInner2"></feMergeNode>
            </feMerge>
        </filter>
        <rect id="path-9" x="88" y="0" width="9" height="9" rx="4.5"></rect>
        <filter x="-22.2%" y="-22.2%" width="144.4%" height="144.4%" filterUnits="objectBoundingBox" id="filter-10">
            <feGaussianBlur stdDeviation="1.5" in="SourceAlpha" result="shadowBlurInner1"></feGaussianBlur>
            <feOffset dx="0" dy="1" in="shadowBlurInner1" result="shadowOffsetInner1"></feOffset>
            <feComposite in="shadowOffsetInner1" in2="SourceAlpha" operator="arithmetic" k2="-1" k3="1" result="shadowInnerInner1"></feComposite>
            <feColorMatrix values="0 0 0 0 0   0 0 0 0 0   0 0 0 0 0  0 0 0 0.1 0" type="matrix" in="shadowInnerInner1" result="shadowMatrixInner1"></feColorMatrix>
            <feGaussianBlur stdDeviation="1.5" in="SourceAlpha" result="shadowBlurInner2"></feGaussianBlur>
            <feOffset dx="0" dy="-1" in="shadowBlurInner2" result="shadowOffsetInner2"></feOffset>
            <feComposite in="shadowOffsetInner2" in2="SourceAlpha" operator="arithmetic" k2="-1" k3="1" result="shadowInnerInner2"></feComposite>
            <feColorMatrix values="0 0 0 0 1   0 0 0 0 1   0 0 0 0 1  0 0 0 0.1 0" type="matrix" in="shadowInnerInner2" result="shadowMatrixInner2"></feColorMatrix>
            <feMerge>
                <feMergeNode in="shadowMatrixInner1"></feMergeNode>
                <feMergeNode in="shadowMatrixInner2"></feMergeNode>
            </feMerge>
        </filter>
        <rect id="path-11" x="14" y="72" width="5" height="5" rx="2.5"></rect>
        <filter x="-40.0%" y="-40.0%" width="180.0%" height="180.0%" filterUnits="objectBoundingBox" id="filter-12">
            <feGaussianBlur stdDeviation="1.5" in="SourceAlpha" result="shadowBlurInner1"></feGaussianBlur>
            <feOffset dx="0" dy="1" in="shadowBlurInner1" result="shadowOffsetInner1"></feOffset>
            <feComposite in="shadowOffsetInner1" in2="SourceAlpha" operator="arithmetic" k2="-1" k3="1" result="shadowInnerInner1"></feComposite>
            <feColorMatrix values="0 0 0 0 0   0 0 0 0 0   0 0 0 0 0  0 0 0 0.1 0" type="matrix" in="shadowInnerInner1" result="shadowMatrixInner1"></feColorMatrix>
            <feGaussianBlur stdDeviation="1.5" in="SourceAlpha" result="shadowBlurInner2"></feGaussianBlur>
            <feOffset dx="0" dy="-1" in="shadowBlurInner2" result="shadowOffsetInner2"></feOffset>
            <feComposite in="shadowOffsetInner2" in2="SourceAlpha" operator="arithmetic" k2="-1" k3="1" result="shadowInnerInner2"></feComposite>
            <feColorMatrix values="0 0 0 0 1   0 0 0 0 1   0 0 0 0 1  0 0 0 0.1 0" type="matrix" in="shadowInnerInner2" result="shadowMatrixInner2"></feColorMatrix>
            <feMerge>
                <feMergeNode in="shadowMatrixInner1"></feMergeNode>
                <feMergeNode in="shadowMatrixInner2"></feMergeNode>
            </feMerge>
        </filter>
        <linearGradient x1="50%" y1="0%" x2="50%" y2="100%" id="linearGradient-13">
            <stop stop-color="#FFFFFF" stop-opacity="0.1" offset="0%"></stop>
            <stop stop-color="#FFFFFF" stop-opacity="0.02" offset="100%"></stop>
        </linearGradient>
        <rect id="path-14" x="0" y="81" width="11" height="11" rx="3"></rect>
        <filter x="-18.2%" y="-18.2%" width="136.4%" height="136.4%" filterUnits="objectBoundingBox" id="filter-15">
            <feGaussianBlur stdDeviation="1.5" in="SourceAlpha" result="shadowBlurInner1"></feGaussianBlur>
            <feOffset dx="0" dy="1" in="shadowBlurInner1" result="shadowOffsetInner1"></feOffset>
            <feComposite in="shadowOffsetInner1" in2="SourceAlpha" operator="arithmetic" k2="-1" k3="1" result="shadowInnerInner1"></feComposite>
            <feColorMatrix values="0 0 0 0 0   0 0 0 0 0   0 0 0 0 0  0 0 0 0.1 0" type="matrix" in="shadowInnerInner1" result="shadowMatrixInner1"></feColorMatrix>
            <feGaussianBlur stdDeviation="1.5" in="SourceAlpha" result="shadowBlurInner2"></feGaussianBlur>
            <feOffset dx="0" dy="-1" in="shadowBlurInner2" result="shadowOffsetInner2"></feOffset>
            <feComposite in="shadowOffsetInner2" in2="SourceAlpha" operator="arithmetic" k2="-1" k3="1" result="shadowInnerInner2"></feComposite>
            <feColorMatrix values="0 0 0 0 1   0 0 0 0 1   0 0 0 0 1  0 0 0 0.1 0" type="matrix" in="shadowInnerInner2" result="shadowMatrixInner2"></feColorMatrix>
            <feMerge>
                <feMergeNode in="shadowMatrixInner1"></feMergeNode>
                <feMergeNode in="shadowMatrixInner2"></feMergeNode>
            </feMerge>
        </filter>
        <filter x="-23.3%" y="-157.2%" width="146.7%" height="414.4%" filterUnits="objectBoundingBox" id="filter-16">
            <feGaussianBlur stdDeviation="3.72393803" in="SourceGraphic"></feGaussianBlur>
        </filter>
        <linearGradient x1="50%" y1="0%" x2="50%" y2="96.6441761%" id="linearGradient-17">
            <stop stop-color="#4D4D4D" offset="0%"></stop>
            <stop stop-color="#575757" offset="100%"></stop>
        </linearGradient>
        <polygon id="path-18" points="29 55 49 55 49 63 29 63"></polygon>
        <filter x="-7.5%" y="-18.8%" width="115.0%" height="137.5%" filterUnits="objectBoundingBox" id="filter-19">
            <feGaussianBlur stdDeviation="1" in="SourceAlpha" result="shadowBlurInner1"></feGaussianBlur>
            <feOffset dx="0" dy="-1" in="shadowBlurInner1" result="shadowOffsetInner1"></feOffset>
            <feComposite in="shadowOffsetInner1" in2="SourceAlpha" operator="arithmetic" k2="-1" k3="1" result="shadowInnerInner1"></feComposite>
            <feColorMatrix values="0 0 0 0 0   0 0 0 0 0   0 0 0 0 0  0 0 0 0.179974323 0" type="matrix" in="shadowInnerInner1"></feColorMatrix>
        </filter>
        <rect id="path-20" x="24" y="63" width="30" height="3" rx="1.5"></rect>
        <filter x="-5.0%" y="-50.0%" width="110.0%" height="200.0%" filterUnits="objectBoundingBox" id="filter-21">
            <feGaussianBlur stdDeviation="1" in="SourceAlpha" result="shadowBlurInner1"></feGaussianBlur>
            <feOffset dx="0" dy="-1" in="shadowBlurInner1" result="shadowOffsetInner1"></feOffset>
            <feComposite in="shadowOffsetInner1" in2="SourceAlpha" operator="arithmetic" k2="-1" k3="1" result="shadowInnerInner1"></feComposite>
            <feColorMatrix values="0 0 0 0 0   0 0 0 0 0   0 0 0 0 0  0 0 0 0.3 0" type="matrix" in="shadowInnerInner1"></feColorMatrix>
        </filter>
        <linearGradient x1="50%" y1="0%" x2="50%" y2="92.005611%" id="linearGradient-22">
            <stop stop-color="#848484" offset="0%"></stop>
            <stop stop-color="#6E6E6E" offset="100%"></stop>
        </linearGradient>
        <rect id="path-23" x="0" y="0" width="78" height="56" rx="8"></rect>
        <filter x="-6.4%" y="-7.1%" width="112.8%" height="117.9%" filterUnits="objectBoundingBox" id="filter-24">
            <feOffset dx="0" dy="1" in="SourceAlpha" result="shadowOffsetOuter1"></feOffset>
            <feGaussianBlur stdDeviation="1.5" in="shadowOffsetOuter1" result="shadowBlurOuter1"></feGaussianBlur>
            <feColorMatrix values="0 0 0 0 0   0 0 0 0 0   0 0 0 0 0  0 0 0 0.3 0" type="matrix" in="shadowBlurOuter1"></feColorMatrix>
        </filter>
        <filter x="-5.8%" y="-6.2%" width="111.5%" height="116.1%" filterUnits="objectBoundingBox" id="filter-25">
            <feGaussianBlur stdDeviation="1" in="SourceAlpha" result="shadowBlurInner1"></feGaussianBlur>
            <feOffset dx="0" dy="-1" in="shadowBlurInner1" result="shadowOffsetInner1"></feOffset>
            <feComposite in="shadowOffsetInner1" in2="SourceAlpha" operator="arithmetic" k2="-1" k3="1" result="shadowInnerInner1"></feComposite>
            <feColorMatrix values="0 0 0 0 0   0 0 0 0 0   0 0 0 0 0  0 0 0 0.403794936 0" type="matrix" in="shadowInnerInner1"></feColorMatrix>
        </filter>
        <linearGradient x1="50%" y1="0%" x2="50%" y2="100%" id="linearGradient-26">
            <stop stop-color="#555555" offset="0%"></stop>
            <stop stop-color="#393939" offset="100%"></stop>
        </linearGradient>
        <path d="M8,2 L70,2 C73.3137085,2 76,4.6862915 76,8 L76,46 L76,46 L2,46 L2,8 C2,4.6862915 4.6862915,2 8,2 Z" id="path-27"></path>
        <filter x="-4.7%" y="-8.0%" width="109.5%" height="115.9%" filterUnits="objectBoundingBox" id="filter-29">
            <feGaussianBlur stdDeviation="3.5" in="SourceAlpha" result="shadowBlurInner1"></feGaussianBlur>
            <feOffset dx="0" dy="0" in="shadowBlurInner1" result="shadowOffsetInner1"></feOffset>
            <feComposite in="shadowOffsetInner1" in2="SourceAlpha" operator="arithmetic" k2="-1" k3="1" result="shadowInnerInner1"></feComposite>
            <feColorMatrix values="0 0 0 0 0   0 0 0 0 0   0 0 0 0 0  0 0 0 0.2 0" type="matrix" in="shadowInnerInner1"></feColorMatrix>
        </filter>
        <linearGradient x1="50%" y1="0%" x2="50%" y2="107.466719%" id="linearGradient-30">
            <stop stop-color="#646363" offset="0%"></stop>
            <stop stop-color="#2C2C2C" offset="100%"></stop>
        </linearGradient>
        <linearGradient x1="50%" y1="0%" x2="50%" y2="100%" id="linearGradient-31">
            <stop stop-color="#5EDF85" offset="0%"></stop>
            <stop stop-color="#2A6A3B" offset="100%"></stop>
        </linearGradient>
        <circle id="path-32" cx="18" cy="18" r="18"></circle>
        <filter x="-18.1%" y="-15.3%" width="136.1%" height="136.1%" filterUnits="objectBoundingBox" id="filter-33">
            <feOffset dx="0" dy="1" in="SourceAlpha" result="shadowOffsetOuter1"></feOffset>
            <feGaussianBlur stdDeviation="2" in="shadowOffsetOuter1" result="shadowBlurOuter1"></feGaussianBlur>
            <feColorMatrix values="0 0 0 0 0   0 0 0 0 0   0 0 0 0 0  0 0 0 0.1 0" type="matrix" in="shadowBlurOuter1"></feColorMatrix>
        </filter>
        <filter x="-15.3%" y="-12.5%" width="130.6%" height="130.6%" filterUnits="objectBoundingBox" id="filter-34">
            <feGaussianBlur stdDeviation="1.5" in="SourceAlpha" result="shadowBlurInner1"></feGaussianBlur>
            <feOffset dx="0" dy="0" in="shadowBlurInner1" result="shadowOffsetInner1"></feOffset>
            <feComposite in="shadowOffsetInner1" in2="SourceAlpha" operator="arithmetic" k2="-1" k3="1" result="shadowInnerInner1"></feComposite>
            <feColorMatrix values="0 0 0 0 0.128929974   0 0 0 0 0.384175618   0 0 0 0 0.198149132  0 0 0 1 0" type="matrix" in="shadowInnerInner1"></feColorMatrix>
        </filter>
        <path d="M19.9006706,26 C19.3552548,26 18.2799186,25.9136991 17.1414638,25.8221633 C16.3225109,25.756382 15.4758133,25.6883289 14.7557792,25.6463514 L14.7213531,25.6405239 C13.9725081,25.4265865 13.9725081,24.7831445 13.9725081,24.4375457 L13.9725081,17.1032256 C13.9725081,16.3616796 14.1774537,15.9248907 14.6797242,15.5952186 C15.8620113,14.8193745 17.8132113,13.1127642 17.5982436,10.4000505 C17.5646468,9.97726239 17.6635656,9.62168773 17.8841486,9.3719953 C18.0959651,9.13215525 18.4106572,9 18.7699161,9 C19.3490709,9 20.0427346,9.3750325 20.1877128,10.0700081 C20.2020709,10.1385797 20.2197933,10.2166086 20.2393875,10.3031811 C20.4354718,11.1656719 20.8432542,12.9605585 20.0133551,14.9373067 C19.9424179,15.0962042 19.9472039,15.2402613 20.0260546,15.3692312 C20.1781645,15.6179606 20.5827957,15.7786359 21.0571795,15.7786359 C21.3748095,15.7786359 21.8484825,15.7076691 22.3499476,15.6325293 C22.9798057,15.5382032 23.6937743,15.4312345 24.3054598,15.4312345 C25.0660802,15.4312345 25.5476904,15.6017869 25.7775138,15.952744 C26.2370656,16.6546583 25.8981118,17.6559713 25.5393031,18.7158802 C25.3714609,19.2118574 25.1977666,19.7246257 25.1093676,20.2065035 C25.0554657,20.5000995 25.0050941,20.8477725 24.9519031,21.2159651 C24.7293298,22.7535045 24.4525467,24.6674099 23.5655945,25.2708497 C22.494215,26 21.0562555,26 19.9006706,26 Z M12.4879916,25.9676526 L10.9223023,25.9676526 C10.4137294,25.9676526 10,25.5365924 10,25.0067121 L10,16.6207305 C10,16.090702 10.4137294,15.6595184 10.9223023,15.6595184 L12.4879916,15.6595184 C12.9965645,15.6595184 13.4102939,16.090702 13.4102939,16.6207305 L13.4102939,25.0065886 C13.4102939,25.5365924 12.9964461,25.9676526 12.4879916,25.9676526 L12.4879916,25.9676526 Z" id="path-35"></path>
        <filter x="-43.7%" y="-29.4%" width="187.5%" height="182.4%" filterUnits="objectBoundingBox" id="filter-36">
            <feOffset dx="0" dy="2" in="SourceAlpha" result="shadowOffsetOuter1"></feOffset>
            <feGaussianBlur stdDeviation="2" in="shadowOffsetOuter1" result="shadowBlurOuter1"></feGaussianBlur>
            <feColorMatrix values="0 0 0 0 0   0 0 0 0 0   0 0 0 0 0  0 0 0 0.1 0" type="matrix" in="shadowBlurOuter1"></feColorMatrix>
        </filter>
        <filter x="-28.1%" y="-14.7%" width="156.2%" height="152.9%" filterUnits="objectBoundingBox" id="filter-37">
            <feGaussianBlur stdDeviation="0.5" in="SourceAlpha" result="shadowBlurInner1"></feGaussianBlur>
            <feOffset dx="0" dy="0" in="shadowBlurInner1" result="shadowOffsetInner1"></feOffset>
            <feComposite in="shadowOffsetInner1" in2="SourceAlpha" operator="arithmetic" k2="-1" k3="1" result="shadowInnerInner1"></feComposite>
            <feColorMatrix values="0 0 0 0 0.590990615   0 0 0 0 1   0 0 0 0 0.709258389  0 0 0 1 0" type="matrix" in="shadowInnerInner1"></feColorMatrix>
        </filter>
    </defs>
    <g id="picture/abreast-of-time-dark" stroke="none" stroke-width="1" fill="none" fill-rule="evenodd">
        <path d="M123.070959,95 C180.308714,95 228.415034,118.362433 242.141919,150.00008 L4,150.00008 C17.7268846,118.362433 65.8332049,95 123.070959,95 Z" id="形状结合" fill="url(#linearGradient-1)"></path>
        <g id="小元素" transform="translate(59, 2)">
            <g id="矩形" transform="translate(11, 32) rotate(-315) translate(-11, -32)">
                <use fill="url(#linearGradient-2)" fill-rule="evenodd" xlink:href="#path-3"></use>
                <use fill="black" fill-opacity="1" filter="url(#filter-4)" xlink:href="#path-3"></use>
            </g>
            <g id="矩形" transform="translate(111, 38.1213) rotate(-315) translate(-111, -38.1213)">
                <use fill="url(#linearGradient-2)" fill-rule="evenodd" xlink:href="#path-5"></use>
                <use fill="black" fill-opacity="1" filter="url(#filter-6)" xlink:href="#path-5"></use>
            </g>
            <g id="矩形" transform="translate(108.5, 91.5) rotate(-270) translate(-108.5, -91.5)">
                <use fill="url(#linearGradient-2)" fill-rule="evenodd" xlink:href="#path-7"></use>
                <use fill="black" fill-opacity="1" filter="url(#filter-8)" xlink:href="#path-7"></use>
            </g>
            <g id="矩形">
                <use fill="url(#linearGradient-2)" fill-rule="evenodd" xlink:href="#path-9"></use>
                <use fill="black" fill-opacity="1" filter="url(#filter-10)" xlink:href="#path-9"></use>
            </g>
            <g id="矩形">
                <use fill="url(#linearGradient-2)" fill-rule="evenodd" xlink:href="#path-11"></use>
                <use fill="black" fill-opacity="1" filter="url(#filter-12)" xlink:href="#path-11"></use>
            </g>
            <g id="矩形">
                <use fill="url(#linearGradient-13)" fill-rule="evenodd" xlink:href="#path-14"></use>
                <use fill="black" fill-opacity="1" filter="url(#filter-15)" xlink:href="#path-14"></use>
            </g>
        </g>
        <g id="电脑" transform="translate(83, 32)">
            <ellipse id="椭圆形" fill-opacity="0.12" fill="#000000" filter="url(#filter-16)" cx="39.013842" cy="65.4468614" rx="23.9294702" ry="3.55313863"></ellipse>
            <g id="矩形" fill-rule="nonzero">
                <use fill="url(#linearGradient-17)" xlink:href="#path-18"></use>
                <use fill="black" fill-opacity="1" filter="url(#filter-19)" xlink:href="#path-18"></use>
            </g>
            <g id="矩形" fill-rule="nonzero">
                <use fill="#686868" xlink:href="#path-20"></use>
                <use fill="black" fill-opacity="1" filter="url(#filter-21)" xlink:href="#path-20"></use>
            </g>
            <g id="矩形">
                <use fill="black" fill-opacity="1" filter="url(#filter-24)" xlink:href="#path-23"></use>
                <use fill="url(#linearGradient-22)" fill-rule="evenodd" xlink:href="#path-23"></use>
                <use fill="black" fill-opacity="1" filter="url(#filter-25)" xlink:href="#path-23"></use>
            </g>
            <mask id="mask-28" fill="white">
                <use xlink:href="#path-27"></use>
            </mask>
            <g id="矩形" fill-rule="nonzero">
                <use fill="url(#linearGradient-26)" xlink:href="#path-27"></use>
                <use fill="black" fill-opacity="1" filter="url(#filter-29)" xlink:href="#path-27"></use>
            </g>
            <path d="M41.9141015,18.2819611 C42.809069,18.2819611 43.580199,18.9123307 43.758177,19.7894227 L44.5795912,23.8366822 C46.5211179,24.3154027 48.350962,25.071891 50.0231356,26.0608207 L53.5354475,23.7525253 C54.2768431,23.2653698 55.2577865,23.3622172 55.8896042,23.9849485 L59.0321439,27.0822937 C59.6779961,27.7188577 59.777949,28.7255197 59.2698836,29.4766577 L56.9572164,32.8951936 C57.9605674,34.5433127 58.7280875,36.3468328 59.2137894,38.2604283 L63.3318163,39.0723263 C64.2137532,39.246177 64.8495581,40.0195493 64.8495581,40.918458 L64.8495581,45.2679302 C64.8495581,46.1668389 64.2137532,46.9402113 63.3318163,47.114062 L59.2135357,47.9269597 C58.7278541,49.84005 57.9604999,51.6431107 56.9574266,53.2908495 L59.2698836,56.7097306 C59.777949,57.4608686 59.6779961,58.4675306 59.0321439,59.1040945 L55.8896042,62.2014398 C55.2577865,62.824171 54.2768431,62.9210184 53.5354475,62.433863 L50.0231356,60.1255675 C48.350962,61.1144972 46.5211179,61.8709855 44.5795912,62.349706 L43.758177,66.3969655 C43.580199,67.2740576 42.809069,67.9044271 41.9141015,67.9044271 L37.438491,67.9044271 C36.5435236,67.9044271 35.7723935,67.2740576 35.5944155,66.3969655 L34.7720027,62.3494598 C32.8312339,61.8708215 31.0020729,61.1146291 29.3304563,60.1261585 L25.817145,62.433863 C25.0757494,62.9210184 24.094806,62.824171 23.4629883,62.2014398 L20.3204487,59.1040945 C19.6745964,58.4675306 19.5746435,57.4608686 20.082709,56.7097306 L22.3951659,53.2908495 C21.3920926,51.6431107 20.6247385,49.84005 20.1390569,47.9269597 L16.0207763,47.114062 C15.1388393,46.9402113 14.5030344,46.1668389 14.5030344,45.2679302 L14.5030344,40.918458 C14.5030344,40.0195493 15.1388393,39.246177 16.0207763,39.0723263 L20.1388031,38.2604283 C20.6245051,36.3468328 21.3920251,34.5433127 22.3953761,32.8951936 L20.082709,29.4766577 C19.5746435,28.7255197 19.6745964,27.7188577 20.3204487,27.0822937 L23.4629883,23.9849485 C24.094806,23.3622172 25.0757494,23.2653698 25.817145,23.7525253 L29.3304563,26.0602298 C31.0020729,25.0717592 32.8312339,24.3155667 34.7720027,23.8369285 L35.5944155,19.7894227 C35.7723935,18.9123307 36.5435236,18.2819611 37.438491,18.2819611 L41.9141015,18.2819611 Z M39.6762963,29.447016 C32.0297515,29.447016 25.8310022,35.556618 25.8310022,43.0931941 C25.8310022,50.6297702 32.0297515,56.7393723 39.6762963,56.7393723 C47.322841,56.7393723 53.5215903,50.6297702 53.5215903,43.0931941 C53.5215903,35.556618 47.322841,29.447016 39.6762963,29.447016 Z M39.6762963,31.9281393 C45.9325602,31.9281393 51.0042641,36.9269046 51.0042641,43.0931941 C51.0042641,49.2594836 45.9325602,54.258249 39.6762963,54.258249 C33.4200324,54.258249 28.3483284,49.2594836 28.3483284,43.0931941 C28.3483284,36.9269046 33.4200324,31.9281393 39.6762963,31.9281393 Z M39.6762963,36.8903859 C36.2005941,36.8903859 33.3829808,39.6674777 33.3829808,43.0931941 C33.3829808,46.5189105 36.2005941,49.2960024 39.6762963,49.2960024 C43.1519984,49.2960024 45.9696117,46.5189105 45.9696117,43.0931941 C45.9696117,39.6674777 43.1519984,36.8903859 39.6762963,36.8903859 Z" id="形状结合" fill="url(#linearGradient-30)" fill-rule="nonzero" mask="url(#mask-28)"></path>
        </g>
        <g id="点赞" transform="translate(147, 66)" fill-rule="nonzero">
            <g id="椭圆形">
                <use fill="black" fill-opacity="1" filter="url(#filter-33)" xlink:href="#path-32"></use>
                <use fill="url(#linearGradient-31)" xlink:href="#path-32"></use>
                <use fill="black" fill-opacity="1" filter="url(#filter-34)" xlink:href="#path-32"></use>
            </g>
            <g id="形状">
                <use fill="black" fill-opacity="1" filter="url(#filter-36)" xlink:href="#path-35"></use>
                <use fill="#FFFFFF" xlink:href="#path-35"></use>
                <use fill="black" fill-opacity="1" filter="url(#filter-37)" xlink:href="#path-35"></use>
            </g>
        </g>
    </g>
</svg>