<?xml version="1.0" encoding="UTF-8"?>
<svg width="120px" height="120px" viewBox="0 0 120 120" version="1.1" xmlns="http://www.w3.org/2000/svg" xmlns:xlink="http://www.w3.org/1999/xlink">
    <title>picture/abreast of time/dark</title>
    <g id="picture/abreast-of-time/dark" stroke="none" stroke-width="1" fill="none" fill-rule="evenodd">
        <g id="编组" transform="translate(14.000000, 12.000000)" fill-rule="nonzero">
            <path d="M53.362,10.9997989 L61.3333333,11 C67.2243707,11 72,15.7756293 72,21.6666667 L72.0003305,55.0896563 C67.5318812,55.4922622 63.4486848,57.230961 60.1532961,59.903198 C59.610716,59.3460334 58.8524349,59 58.0133333,59 L14.9866667,59 C13.3371762,59 12,60.3371762 12,61.9866667 L12,62.0133333 C12,63.6628238 13.3371762,65 14.9866667,65 L55.557846,65.0000237 C53.8247716,67.6580602 52.6507868,70.7139066 52.2027401,74.0007145 L14.9866667,74 C13.3371762,74 12,75.3371762 12,76.9866667 L12,77.0133333 C12,78.6628238 13.3371762,80 14.9866667,80 L52.2028766,80.0002866 C52.7682217,84.1461561 54.4885735,87.9245181 57.0290708,91.0005114 L10.6666667,91 C4.77562934,91 -1.05491284e-15,86.2243707 0,80.3333333 L0,21.6666667 C1.05491284e-15,15.7756293 4.77562934,11 10.6666667,11 L18.637,10.9997989 L18.0405068,14.9339158 C18.0135416,15.1115012 18,15.2909136 18,15.4705882 C18,17.4198285 19.5596016,19 21.4834677,19 L50.5160419,19 C50.6933777,19 50.8704546,18.9862798 51.0457282,18.9589589 C52.947223,18.6625629 54.2515405,16.8604898 53.9590028,14.9339158 L53.362,10.9997989 Z M58.0133333,44 L14.9866667,44 C13.3371762,44 12,45.3371762 12,46.9866667 L12,47.0133333 C12,48.6628238 13.3371762,50 14.9866667,50 L58.0133333,50 C59.6628238,50 61,48.6628238 61,47.0133333 L61,46.9866667 C61,45.3371762 59.6628238,44 58.0133333,44 Z M18,26 C14.6862915,26 12,28.6862915 12,32 C12,35.3137085 14.6862915,38 18,38 C21.3137085,38 24,35.3137085 24,32 C24,28.6862915 21.3137085,26 18,26 Z M57.0133333,29 L30.9866667,29 C29.3371762,29 28,30.3371762 28,31.9866667 L28,32.0133333 C28,33.6628238 29.3371762,35 30.9866667,35 L57.0133333,35 C58.6628238,35 60,33.6628238 60,32.0133333 L60,31.9866667 C60,30.3371762 58.6628238,29 57.0133333,29 Z M21.5318637,28.4753838 C21.9098534,28.7933364 21.9589724,29.354771 21.643326,29.7318748 L17.6432682,34.5107578 C17.3286135,34.8866768 16.7687929,34.9363414 16.3928738,34.6216867 L16.3323914,34.5641415 L14.4452214,32.6723041 C14.0978376,32.3240604 14.0978376,31.7603574 14.4452214,31.4121137 C14.791497,31.064981 15.3536155,31.0642862 15.7007482,31.4105618 L16.9058719,32.6182769 L20.2814693,28.5863127 C20.596124,28.2103936 21.1559446,28.1607291 21.5318637,28.4753838 Z M36,0 C39.1710037,0 41.8495435,2.10848853 42.7101075,4.99995367 L47.2244107,5 C48.9971527,5 50.499065,6.30583807 50.745456,8.06137379 L51.7158079,14.9751313 C51.8522724,15.9474411 51.174686,16.8462803 50.2023762,16.9827448 C50.1205139,16.9942343 50.0379499,17 49.9552853,17 L22.0447147,17 C21.0628752,17 20.2669369,16.2040618 20.2669369,15.2222222 C20.2669369,15.1395576 20.2727027,15.0569936 20.2841921,14.9751313 L21.254544,8.06137379 C21.500935,6.30583807 23.0028473,5 24.7755893,5 L29.2898925,4.99995367 C30.1504565,2.10848853 32.8289963,0 36,0 Z M36,3 C34.3431458,3 33,4.34314575 33,6 C33,7.65685425 34.3431458,9 36,9 C37.6568542,9 39,7.65685425 39,6 C39,4.34314575 37.6568542,3 36,3 Z" id="形状结合" fill="#575757"></path>
            <path d="M74,59 C83.9411255,59 92,67.0588745 92,77 C92,86.9411255 83.9411255,95 74,95 C64.0588745,95 56,86.9411255 56,77 C56,67.0588745 64.0588745,59 74,59 Z M84.2217803,67.4163739 C83.3396319,66.7516274 82.0856257,66.9278664 81.4208792,67.8100149 L70.7815762,81.9285069 L64.636039,75.783114 C63.8549904,75.0020654 62.5886604,75.0020654 61.8076118,75.783114 C61.0265633,76.5641626 61.0265633,77.8304925 61.8076118,78.6115411 L69.3828098,86.1884942 C69.4927992,86.334651 69.6248392,86.4680456 69.7782197,86.5836261 C70.4656081,87.1016104 71.3787829,87.1089609 72.0630491,86.6701067 C72.1877403,86.5917293 72.3056636,86.4982656 72.4142136,86.3897157 C72.5237851,86.2801441 72.6179851,86.1610219 72.6968136,86.0350287 L84.6154213,70.2172749 C85.2801678,69.3351265 85.1039287,68.0811204 84.2217803,67.4163739 Z" id="形状结合" fill="#4B895C"></path>
        </g>
    </g>
</svg>