<?xml version="1.0" encoding="UTF-8"?>
<svg width="246px" height="142px" viewBox="0 0 246 142" version="1.1" xmlns="http://www.w3.org/2000/svg" xmlns:xlink="http://www.w3.org/1999/xlink">
    <title>picture/update failure-dark</title>
    <defs>
        <linearGradient x1="50%" y1="0%" x2="50%" y2="76.6637495%" id="linearGradient-1">
            <stop stop-color="#FFFFFF" stop-opacity="0.1" offset="0%"></stop>
            <stop stop-color="#000000" stop-opacity="0" offset="100%"></stop>
        </linearGradient>
        <linearGradient x1="50%" y1="0%" x2="50%" y2="100%" id="linearGradient-2">
            <stop stop-color="#FFFFFF" stop-opacity="0.05" offset="0%"></stop>
            <stop stop-color="#FFFFFF" stop-opacity="0.02" offset="100%"></stop>
        </linearGradient>
        <rect id="path-3" x="7" y="28" width="8" height="8" rx="2"></rect>
        <filter x="-25.0%" y="-25.0%" width="150.0%" height="150.0%" filterUnits="objectBoundingBox" id="filter-4">
            <feGaussianBlur stdDeviation="1.5" in="SourceAlpha" result="shadowBlurInner1"></feGaussianBlur>
            <feOffset dx="0" dy="1" in="shadowBlurInner1" result="shadowOffsetInner1"></feOffset>
            <feComposite in="shadowOffsetInner1" in2="SourceAlpha" operator="arithmetic" k2="-1" k3="1" result="shadowInnerInner1"></feComposite>
            <feColorMatrix values="0 0 0 0 0   0 0 0 0 0   0 0 0 0 0  0 0 0 0.1 0" type="matrix" in="shadowInnerInner1" result="shadowMatrixInner1"></feColorMatrix>
            <feGaussianBlur stdDeviation="1.5" in="SourceAlpha" result="shadowBlurInner2"></feGaussianBlur>
            <feOffset dx="0" dy="-1" in="shadowBlurInner2" result="shadowOffsetInner2"></feOffset>
            <feComposite in="shadowOffsetInner2" in2="SourceAlpha" operator="arithmetic" k2="-1" k3="1" result="shadowInnerInner2"></feComposite>
            <feColorMatrix values="0 0 0 0 1   0 0 0 0 1   0 0 0 0 1  0 0 0 0.1 0" type="matrix" in="shadowInnerInner2" result="shadowMatrixInner2"></feColorMatrix>
            <feMerge>
                <feMergeNode in="shadowMatrixInner1"></feMergeNode>
                <feMergeNode in="shadowMatrixInner2"></feMergeNode>
            </feMerge>
        </filter>
        <rect id="path-5" x="108.5" y="35.6213203" width="5" height="5" rx="2"></rect>
        <filter x="-40.0%" y="-40.0%" width="180.0%" height="180.0%" filterUnits="objectBoundingBox" id="filter-6">
            <feGaussianBlur stdDeviation="1.5" in="SourceAlpha" result="shadowBlurInner1"></feGaussianBlur>
            <feOffset dx="0" dy="1" in="shadowBlurInner1" result="shadowOffsetInner1"></feOffset>
            <feComposite in="shadowOffsetInner1" in2="SourceAlpha" operator="arithmetic" k2="-1" k3="1" result="shadowInnerInner1"></feComposite>
            <feColorMatrix values="0 0 0 0 0   0 0 0 0 0   0 0 0 0 0  0 0 0 0.1 0" type="matrix" in="shadowInnerInner1" result="shadowMatrixInner1"></feColorMatrix>
            <feGaussianBlur stdDeviation="1.5" in="SourceAlpha" result="shadowBlurInner2"></feGaussianBlur>
            <feOffset dx="0" dy="-1" in="shadowBlurInner2" result="shadowOffsetInner2"></feOffset>
            <feComposite in="shadowOffsetInner2" in2="SourceAlpha" operator="arithmetic" k2="-1" k3="1" result="shadowInnerInner2"></feComposite>
            <feColorMatrix values="0 0 0 0 1   0 0 0 0 1   0 0 0 0 1  0 0 0 0.1 0" type="matrix" in="shadowInnerInner2" result="shadowMatrixInner2"></feColorMatrix>
            <feMerge>
                <feMergeNode in="shadowMatrixInner1"></feMergeNode>
                <feMergeNode in="shadowMatrixInner2"></feMergeNode>
            </feMerge>
        </filter>
        <rect id="path-7" x="106" y="89" width="5" height="5" rx="2"></rect>
        <filter x="-40.0%" y="-40.0%" width="180.0%" height="180.0%" filterUnits="objectBoundingBox" id="filter-8">
            <feGaussianBlur stdDeviation="1.5" in="SourceAlpha" result="shadowBlurInner1"></feGaussianBlur>
            <feOffset dx="0" dy="1" in="shadowBlurInner1" result="shadowOffsetInner1"></feOffset>
            <feComposite in="shadowOffsetInner1" in2="SourceAlpha" operator="arithmetic" k2="-1" k3="1" result="shadowInnerInner1"></feComposite>
            <feColorMatrix values="0 0 0 0 0   0 0 0 0 0   0 0 0 0 0  0 0 0 0.1 0" type="matrix" in="shadowInnerInner1" result="shadowMatrixInner1"></feColorMatrix>
            <feGaussianBlur stdDeviation="1.5" in="SourceAlpha" result="shadowBlurInner2"></feGaussianBlur>
            <feOffset dx="0" dy="-1" in="shadowBlurInner2" result="shadowOffsetInner2"></feOffset>
            <feComposite in="shadowOffsetInner2" in2="SourceAlpha" operator="arithmetic" k2="-1" k3="1" result="shadowInnerInner2"></feComposite>
            <feColorMatrix values="0 0 0 0 1   0 0 0 0 1   0 0 0 0 1  0 0 0 0.1 0" type="matrix" in="shadowInnerInner2" result="shadowMatrixInner2"></feColorMatrix>
            <feMerge>
                <feMergeNode in="shadowMatrixInner1"></feMergeNode>
                <feMergeNode in="shadowMatrixInner2"></feMergeNode>
            </feMerge>
        </filter>
        <rect id="path-9" x="88" y="0" width="9" height="9" rx="4.5"></rect>
        <filter x="-22.2%" y="-22.2%" width="144.4%" height="144.4%" filterUnits="objectBoundingBox" id="filter-10">
            <feGaussianBlur stdDeviation="1.5" in="SourceAlpha" result="shadowBlurInner1"></feGaussianBlur>
            <feOffset dx="0" dy="1" in="shadowBlurInner1" result="shadowOffsetInner1"></feOffset>
            <feComposite in="shadowOffsetInner1" in2="SourceAlpha" operator="arithmetic" k2="-1" k3="1" result="shadowInnerInner1"></feComposite>
            <feColorMatrix values="0 0 0 0 0   0 0 0 0 0   0 0 0 0 0  0 0 0 0.1 0" type="matrix" in="shadowInnerInner1" result="shadowMatrixInner1"></feColorMatrix>
            <feGaussianBlur stdDeviation="1.5" in="SourceAlpha" result="shadowBlurInner2"></feGaussianBlur>
            <feOffset dx="0" dy="-1" in="shadowBlurInner2" result="shadowOffsetInner2"></feOffset>
            <feComposite in="shadowOffsetInner2" in2="SourceAlpha" operator="arithmetic" k2="-1" k3="1" result="shadowInnerInner2"></feComposite>
            <feColorMatrix values="0 0 0 0 1   0 0 0 0 1   0 0 0 0 1  0 0 0 0.1 0" type="matrix" in="shadowInnerInner2" result="shadowMatrixInner2"></feColorMatrix>
            <feMerge>
                <feMergeNode in="shadowMatrixInner1"></feMergeNode>
                <feMergeNode in="shadowMatrixInner2"></feMergeNode>
            </feMerge>
        </filter>
        <rect id="path-11" x="14" y="72" width="5" height="5" rx="2.5"></rect>
        <filter x="-40.0%" y="-40.0%" width="180.0%" height="180.0%" filterUnits="objectBoundingBox" id="filter-12">
            <feGaussianBlur stdDeviation="1.5" in="SourceAlpha" result="shadowBlurInner1"></feGaussianBlur>
            <feOffset dx="0" dy="1" in="shadowBlurInner1" result="shadowOffsetInner1"></feOffset>
            <feComposite in="shadowOffsetInner1" in2="SourceAlpha" operator="arithmetic" k2="-1" k3="1" result="shadowInnerInner1"></feComposite>
            <feColorMatrix values="0 0 0 0 0   0 0 0 0 0   0 0 0 0 0  0 0 0 0.1 0" type="matrix" in="shadowInnerInner1" result="shadowMatrixInner1"></feColorMatrix>
            <feGaussianBlur stdDeviation="1.5" in="SourceAlpha" result="shadowBlurInner2"></feGaussianBlur>
            <feOffset dx="0" dy="-1" in="shadowBlurInner2" result="shadowOffsetInner2"></feOffset>
            <feComposite in="shadowOffsetInner2" in2="SourceAlpha" operator="arithmetic" k2="-1" k3="1" result="shadowInnerInner2"></feComposite>
            <feColorMatrix values="0 0 0 0 1   0 0 0 0 1   0 0 0 0 1  0 0 0 0.1 0" type="matrix" in="shadowInnerInner2" result="shadowMatrixInner2"></feColorMatrix>
            <feMerge>
                <feMergeNode in="shadowMatrixInner1"></feMergeNode>
                <feMergeNode in="shadowMatrixInner2"></feMergeNode>
            </feMerge>
        </filter>
        <linearGradient x1="50%" y1="0%" x2="50%" y2="100%" id="linearGradient-13">
            <stop stop-color="#FFFFFF" stop-opacity="0.1" offset="0%"></stop>
            <stop stop-color="#FFFFFF" stop-opacity="0.02" offset="100%"></stop>
        </linearGradient>
        <rect id="path-14" x="0" y="81" width="11" height="11" rx="3"></rect>
        <filter x="-18.2%" y="-18.2%" width="136.4%" height="136.4%" filterUnits="objectBoundingBox" id="filter-15">
            <feGaussianBlur stdDeviation="1.5" in="SourceAlpha" result="shadowBlurInner1"></feGaussianBlur>
            <feOffset dx="0" dy="1" in="shadowBlurInner1" result="shadowOffsetInner1"></feOffset>
            <feComposite in="shadowOffsetInner1" in2="SourceAlpha" operator="arithmetic" k2="-1" k3="1" result="shadowInnerInner1"></feComposite>
            <feColorMatrix values="0 0 0 0 0   0 0 0 0 0   0 0 0 0 0  0 0 0 0.1 0" type="matrix" in="shadowInnerInner1" result="shadowMatrixInner1"></feColorMatrix>
            <feGaussianBlur stdDeviation="1.5" in="SourceAlpha" result="shadowBlurInner2"></feGaussianBlur>
            <feOffset dx="0" dy="-1" in="shadowBlurInner2" result="shadowOffsetInner2"></feOffset>
            <feComposite in="shadowOffsetInner2" in2="SourceAlpha" operator="arithmetic" k2="-1" k3="1" result="shadowInnerInner2"></feComposite>
            <feColorMatrix values="0 0 0 0 1   0 0 0 0 1   0 0 0 0 1  0 0 0 0.1 0" type="matrix" in="shadowInnerInner2" result="shadowMatrixInner2"></feColorMatrix>
            <feMerge>
                <feMergeNode in="shadowMatrixInner1"></feMergeNode>
                <feMergeNode in="shadowMatrixInner2"></feMergeNode>
            </feMerge>
        </filter>
        <filter x="-23.3%" y="-157.2%" width="146.7%" height="414.4%" filterUnits="objectBoundingBox" id="filter-16">
            <feGaussianBlur stdDeviation="3.72393803" in="SourceGraphic"></feGaussianBlur>
        </filter>
        <linearGradient x1="50%" y1="0%" x2="50%" y2="96.6441761%" id="linearGradient-17">
            <stop stop-color="#4D4D4D" offset="0%"></stop>
            <stop stop-color="#575757" offset="100%"></stop>
        </linearGradient>
        <polygon id="path-18" points="29 55 49 55 49 63 29 63"></polygon>
        <filter x="-7.5%" y="-18.8%" width="115.0%" height="137.5%" filterUnits="objectBoundingBox" id="filter-19">
            <feGaussianBlur stdDeviation="1" in="SourceAlpha" result="shadowBlurInner1"></feGaussianBlur>
            <feOffset dx="0" dy="-1" in="shadowBlurInner1" result="shadowOffsetInner1"></feOffset>
            <feComposite in="shadowOffsetInner1" in2="SourceAlpha" operator="arithmetic" k2="-1" k3="1" result="shadowInnerInner1"></feComposite>
            <feColorMatrix values="0 0 0 0 0   0 0 0 0 0   0 0 0 0 0  0 0 0 0.179974323 0" type="matrix" in="shadowInnerInner1"></feColorMatrix>
        </filter>
        <rect id="path-20" x="24" y="63" width="30" height="3" rx="1.5"></rect>
        <filter x="-5.0%" y="-50.0%" width="110.0%" height="200.0%" filterUnits="objectBoundingBox" id="filter-21">
            <feGaussianBlur stdDeviation="1" in="SourceAlpha" result="shadowBlurInner1"></feGaussianBlur>
            <feOffset dx="0" dy="-1" in="shadowBlurInner1" result="shadowOffsetInner1"></feOffset>
            <feComposite in="shadowOffsetInner1" in2="SourceAlpha" operator="arithmetic" k2="-1" k3="1" result="shadowInnerInner1"></feComposite>
            <feColorMatrix values="0 0 0 0 0   0 0 0 0 0   0 0 0 0 0  0 0 0 0.3 0" type="matrix" in="shadowInnerInner1"></feColorMatrix>
        </filter>
        <linearGradient x1="50%" y1="0%" x2="50%" y2="92.005611%" id="linearGradient-22">
            <stop stop-color="#848484" offset="0%"></stop>
            <stop stop-color="#6E6E6E" offset="100%"></stop>
        </linearGradient>
        <rect id="path-23" x="0" y="0" width="78" height="56" rx="8"></rect>
        <filter x="-6.4%" y="-7.1%" width="112.8%" height="117.9%" filterUnits="objectBoundingBox" id="filter-24">
            <feOffset dx="0" dy="1" in="SourceAlpha" result="shadowOffsetOuter1"></feOffset>
            <feGaussianBlur stdDeviation="1.5" in="shadowOffsetOuter1" result="shadowBlurOuter1"></feGaussianBlur>
            <feColorMatrix values="0 0 0 0 0   0 0 0 0 0   0 0 0 0 0  0 0 0 0.3 0" type="matrix" in="shadowBlurOuter1"></feColorMatrix>
        </filter>
        <filter x="-5.8%" y="-6.2%" width="111.5%" height="116.1%" filterUnits="objectBoundingBox" id="filter-25">
            <feGaussianBlur stdDeviation="1" in="SourceAlpha" result="shadowBlurInner1"></feGaussianBlur>
            <feOffset dx="0" dy="-1" in="shadowBlurInner1" result="shadowOffsetInner1"></feOffset>
            <feComposite in="shadowOffsetInner1" in2="SourceAlpha" operator="arithmetic" k2="-1" k3="1" result="shadowInnerInner1"></feComposite>
            <feColorMatrix values="0 0 0 0 0   0 0 0 0 0   0 0 0 0 0  0 0 0 0.403794936 0" type="matrix" in="shadowInnerInner1"></feColorMatrix>
        </filter>
        <linearGradient x1="50%" y1="0%" x2="50%" y2="100%" id="linearGradient-26">
            <stop stop-color="#555555" offset="0%"></stop>
            <stop stop-color="#393939" offset="100%"></stop>
        </linearGradient>
        <path d="M8,2 L70,2 C73.3137085,2 76,4.6862915 76,8 L76,46 L76,46 L2,46 L2,8 C2,4.6862915 4.6862915,2 8,2 Z" id="path-27"></path>
        <filter x="-4.7%" y="-8.0%" width="109.5%" height="115.9%" filterUnits="objectBoundingBox" id="filter-29">
            <feGaussianBlur stdDeviation="3.5" in="SourceAlpha" result="shadowBlurInner1"></feGaussianBlur>
            <feOffset dx="0" dy="0" in="shadowBlurInner1" result="shadowOffsetInner1"></feOffset>
            <feComposite in="shadowOffsetInner1" in2="SourceAlpha" operator="arithmetic" k2="-1" k3="1" result="shadowInnerInner1"></feComposite>
            <feColorMatrix values="0 0 0 0 0   0 0 0 0 0   0 0 0 0 0  0 0 0 0.2 0" type="matrix" in="shadowInnerInner1"></feColorMatrix>
        </filter>
        <linearGradient x1="50%" y1="0%" x2="50%" y2="107.466719%" id="linearGradient-30">
            <stop stop-color="#646363" offset="0%"></stop>
            <stop stop-color="#2C2C2C" offset="100%"></stop>
        </linearGradient>
        <path d="M19.2505404,34.1335304 L19.25,40.25 L15.25,40.25 L15.2501924,34.1336163 C15.9061088,34.2104778 16.573439,34.25 17.25,34.25 C17.926813,34.25 18.5943882,34.2104484 19.2505404,34.1335304 Z" id="path-31"></path>
        <filter x="-37.5%" y="-24.5%" width="175.0%" height="149.0%" filterUnits="objectBoundingBox" id="filter-32">
            <feGaussianBlur stdDeviation="1" in="SourceAlpha" result="shadowBlurInner1"></feGaussianBlur>
            <feOffset dx="0" dy="1" in="shadowBlurInner1" result="shadowOffsetInner1"></feOffset>
            <feComposite in="shadowOffsetInner1" in2="SourceAlpha" operator="arithmetic" k2="-1" k3="1" result="shadowInnerInner1"></feComposite>
            <feColorMatrix values="0 0 0 0 0   0 0 0 0 0   0 0 0 0 0  0 0 0 0.2 0" type="matrix" in="shadowInnerInner1" result="shadowMatrixInner1"></feColorMatrix>
            <feGaussianBlur stdDeviation="1" in="SourceAlpha" result="shadowBlurInner2"></feGaussianBlur>
            <feOffset dx="0" dy="-1" in="shadowBlurInner2" result="shadowOffsetInner2"></feOffset>
            <feComposite in="shadowOffsetInner2" in2="SourceAlpha" operator="arithmetic" k2="-1" k3="1" result="shadowInnerInner2"></feComposite>
            <feColorMatrix values="0 0 0 0 0   0 0 0 0 0   0 0 0 0 0  0 0 0 0.2 0" type="matrix" in="shadowInnerInner2" result="shadowMatrixInner2"></feColorMatrix>
            <feMerge>
                <feMergeNode in="shadowMatrixInner1"></feMergeNode>
                <feMergeNode in="shadowMatrixInner2"></feMergeNode>
            </feMerge>
        </filter>
        <path d="M15.25,40.25 L19.25,40.25 C19.8022847,40.25 20.25,40.6977153 20.25,41.25 L20.25,52.25 C20.25,53.3545695 19.3545695,54.25 18.25,54.25 L16.25,54.25 C15.1454305,54.25 14.25,53.3545695 14.25,52.25 L14.25,41.25 C14.25,40.6977153 14.6977153,40.25 15.25,40.25 Z" id="path-33"></path>
        <filter x="-25.0%" y="-10.7%" width="150.0%" height="121.4%" filterUnits="objectBoundingBox" id="filter-34">
            <feGaussianBlur stdDeviation="0.5" in="SourceAlpha" result="shadowBlurInner1"></feGaussianBlur>
            <feOffset dx="0" dy="1" in="shadowBlurInner1" result="shadowOffsetInner1"></feOffset>
            <feComposite in="shadowOffsetInner1" in2="SourceAlpha" operator="arithmetic" k2="-1" k3="1" result="shadowInnerInner1"></feComposite>
            <feColorMatrix values="0 0 0 0 1   0 0 0 0 1   0 0 0 0 1  0 0 0 0.1 0" type="matrix" in="shadowInnerInner1" result="shadowMatrixInner1"></feColorMatrix>
            <feGaussianBlur stdDeviation="1" in="SourceAlpha" result="shadowBlurInner2"></feGaussianBlur>
            <feOffset dx="0" dy="-1" in="shadowBlurInner2" result="shadowOffsetInner2"></feOffset>
            <feComposite in="shadowOffsetInner2" in2="SourceAlpha" operator="arithmetic" k2="-1" k3="1" result="shadowInnerInner2"></feComposite>
            <feColorMatrix values="0 0 0 0 0   0 0 0 0 0   0 0 0 0 0  0 0 0 0.3 0" type="matrix" in="shadowInnerInner2" result="shadowMatrixInner2"></feColorMatrix>
            <feMerge>
                <feMergeNode in="shadowMatrixInner1"></feMergeNode>
                <feMergeNode in="shadowMatrixInner2"></feMergeNode>
            </feMerge>
        </filter>
        <linearGradient x1="52.1868882%" y1="-1.77635684e-13%" x2="50%" y2="100%" id="linearGradient-35">
            <stop stop-color="#9F9F9F" offset="0%"></stop>
            <stop stop-color="#6C6C6C" offset="100%"></stop>
        </linearGradient>
        <path d="M17.25,0.25 C26.6388407,0.25 34.25,7.86115925 34.25,17.25 C34.25,26.6388407 26.6388407,34.25 17.25,34.25 C7.86115925,34.25 0.25,26.6388407 0.25,17.25 C0.25,7.86115925 7.86115925,0.25 17.25,0.25 Z M17.25,0.75 C8.13730163,0.75 0.75,8.13730163 0.75,17.25 C0.75,26.3626984 8.13730163,33.75 17.25,33.75 C26.3626984,33.75 33.75,26.3626984 33.75,17.25 C33.75,8.13730163 26.3626984,0.75 17.25,0.75 Z M17.25,3.75 C24.7058441,3.75 30.75,9.79415588 30.75,17.25 C30.75,24.7058441 24.7058441,30.75 17.25,30.75 C9.79415588,30.75 3.75,24.7058441 3.75,17.25 C3.75,9.79415588 9.79415588,3.75 17.25,3.75 Z M17.25,4.25 C10.0702983,4.25 4.25,10.0702983 4.25,17.25 C4.25,24.4297017 10.0702983,30.25 17.25,30.25 C24.4297017,30.25 30.25,24.4297017 30.25,17.25 C30.25,10.0702983 24.4297017,4.25 17.25,4.25 Z" id="path-36"></path>
        <filter x="-19.1%" y="-16.2%" width="138.2%" height="138.2%" filterUnits="objectBoundingBox" id="filter-37">
            <feOffset dx="0" dy="1" in="SourceAlpha" result="shadowOffsetOuter1"></feOffset>
            <feGaussianBlur stdDeviation="2" in="shadowOffsetOuter1" result="shadowBlurOuter1"></feGaussianBlur>
            <feColorMatrix values="0 0 0 0 0   0 0 0 0 0   0 0 0 0 0  0 0 0 0.2 0" type="matrix" in="shadowBlurOuter1"></feColorMatrix>
        </filter>
        <filter x="-14.7%" y="-11.8%" width="129.4%" height="129.4%" filterUnits="objectBoundingBox" id="filter-38">
            <feOffset dx="0" dy="0.5" in="SourceAlpha" result="shadowOffsetInner1"></feOffset>
            <feComposite in="shadowOffsetInner1" in2="SourceAlpha" operator="arithmetic" k2="-1" k3="1" result="shadowInnerInner1"></feComposite>
            <feColorMatrix values="0 0 0 0 1   0 0 0 0 1   0 0 0 0 1  0 0 0 0.1 0" type="matrix" in="shadowInnerInner1" result="shadowMatrixInner1"></feColorMatrix>
            <feGaussianBlur stdDeviation="0.5" in="SourceAlpha" result="shadowBlurInner2"></feGaussianBlur>
            <feOffset dx="0" dy="-1" in="shadowBlurInner2" result="shadowOffsetInner2"></feOffset>
            <feComposite in="shadowOffsetInner2" in2="SourceAlpha" operator="arithmetic" k2="-1" k3="1" result="shadowInnerInner2"></feComposite>
            <feColorMatrix values="0 0 0 0 0   0 0 0 0 0   0 0 0 0 0  0 0 0 0.201699424 0" type="matrix" in="shadowInnerInner2" result="shadowMatrixInner2"></feColorMatrix>
            <feMerge>
                <feMergeNode in="shadowMatrixInner1"></feMergeNode>
                <feMergeNode in="shadowMatrixInner2"></feMergeNode>
            </feMerge>
        </filter>
        <path d="M17,0 C26.3888407,0 34,7.61115925 34,17 C34,26.3888407 26.3888407,34 17,34 C7.61115925,34 0,26.3888407 0,17 C0,7.61115925 7.61115925,0 17,0 Z M17,4 C9.82029825,4 4,9.82029825 4,17 C4,24.1797017 9.82029825,30 17,30 C24.1797017,30 30,24.1797017 30,17 C30,9.82029825 24.1797017,4 17,4 Z" id="path-39"></path>
        <filter x="-19.1%" y="-16.2%" width="138.2%" height="138.2%" filterUnits="objectBoundingBox" id="filter-40">
            <feOffset dx="0" dy="1" in="SourceAlpha" result="shadowOffsetOuter1"></feOffset>
            <feGaussianBlur stdDeviation="2" in="shadowOffsetOuter1" result="shadowBlurOuter1"></feGaussianBlur>
            <feColorMatrix values="0 0 0 0 0   0 0 0 0 0   0 0 0 0 0  0 0 0 0.2 0" type="matrix" in="shadowBlurOuter1"></feColorMatrix>
        </filter>
        <filter x="-14.7%" y="-11.8%" width="129.4%" height="129.4%" filterUnits="objectBoundingBox" id="filter-41">
            <feGaussianBlur stdDeviation="0.5" in="SourceAlpha" result="shadowBlurInner1"></feGaussianBlur>
            <feOffset dx="0" dy="0.5" in="shadowBlurInner1" result="shadowOffsetInner1"></feOffset>
            <feComposite in="shadowOffsetInner1" in2="SourceAlpha" operator="arithmetic" k2="-1" k3="1" result="shadowInnerInner1"></feComposite>
            <feColorMatrix values="0 0 0 0 1   0 0 0 0 1   0 0 0 0 1  0 0 0 0.1 0" type="matrix" in="shadowInnerInner1" result="shadowMatrixInner1"></feColorMatrix>
            <feGaussianBlur stdDeviation="0.5" in="SourceAlpha" result="shadowBlurInner2"></feGaussianBlur>
            <feOffset dx="0" dy="-1" in="shadowBlurInner2" result="shadowOffsetInner2"></feOffset>
            <feComposite in="shadowOffsetInner2" in2="SourceAlpha" operator="arithmetic" k2="-1" k3="1" result="shadowInnerInner2"></feComposite>
            <feColorMatrix values="0 0 0 0 0   0 0 0 0 0   0 0 0 0 0  0 0 0 0.201699424 0" type="matrix" in="shadowInnerInner2" result="shadowMatrixInner2"></feColorMatrix>
            <feMerge>
                <feMergeNode in="shadowMatrixInner1"></feMergeNode>
                <feMergeNode in="shadowMatrixInner2"></feMergeNode>
            </feMerge>
        </filter>
        <circle id="path-42" cx="17.25" cy="17.25" r="13"></circle>
        <filter x="-5.8%" y="-5.8%" width="111.5%" height="111.5%" filterUnits="objectBoundingBox" id="filter-43">
            <feGaussianBlur stdDeviation="1.5" in="SourceAlpha" result="shadowBlurInner1"></feGaussianBlur>
            <feOffset dx="0" dy="0" in="shadowBlurInner1" result="shadowOffsetInner1"></feOffset>
            <feComposite in="shadowOffsetInner1" in2="SourceAlpha" operator="arithmetic" k2="-1" k3="1" result="shadowInnerInner1"></feComposite>
            <feColorMatrix values="0 0 0 0 0   0 0 0 0 0   0 0 0 0 0  0 0 0 0.3 0" type="matrix" in="shadowInnerInner1"></feColorMatrix>
        </filter>
        <linearGradient x1="50%" y1="0%" x2="50%" y2="100%" id="linearGradient-44">
            <stop stop-color="#E1785D" offset="0%"></stop>
            <stop stop-color="#A12424" offset="100%"></stop>
        </linearGradient>
        <circle id="path-45" cx="18" cy="18" r="18"></circle>
        <filter x="-18.1%" y="-15.3%" width="136.1%" height="136.1%" filterUnits="objectBoundingBox" id="filter-46">
            <feOffset dx="0" dy="1" in="SourceAlpha" result="shadowOffsetOuter1"></feOffset>
            <feGaussianBlur stdDeviation="2" in="shadowOffsetOuter1" result="shadowBlurOuter1"></feGaussianBlur>
            <feColorMatrix values="0 0 0 0 0   0 0 0 0 0   0 0 0 0 0  0 0 0 0.2 0" type="matrix" in="shadowBlurOuter1"></feColorMatrix>
        </filter>
        <filter x="-16.7%" y="-13.9%" width="133.3%" height="133.3%" filterUnits="objectBoundingBox" id="filter-47">
            <feGaussianBlur stdDeviation="1.5" in="SourceAlpha" result="shadowBlurInner1"></feGaussianBlur>
            <feOffset dx="0" dy="-1" in="shadowBlurInner1" result="shadowOffsetInner1"></feOffset>
            <feComposite in="shadowOffsetInner1" in2="SourceAlpha" operator="arithmetic" k2="-1" k3="1" result="shadowInnerInner1"></feComposite>
            <feColorMatrix values="0 0 0 0 0.418656059   0 0 0 0 0.177007929   0 0 0 0 0.177007929  0 0 0 1 0" type="matrix" in="shadowInnerInner1"></feColorMatrix>
        </filter>
        <path d="M14.7227182,10.3587572 C15.1132425,10.7492815 15.1132425,11.3824465 14.7227182,11.7729708 L12.9542442,13.5400306 L14.7227182,15.3085047 C15.1132425,15.699029 15.1132425,16.3321939 14.7227182,16.7227182 C14.3321939,17.1132425 13.699029,17.1132425 13.3085047,16.7227182 L11.5400306,14.9542442 L9.77297077,16.7227182 C9.38244648,17.1132425 8.7492815,17.1132425 8.35875721,16.7227182 C7.96823292,16.3321939 7.96823292,15.699029 8.35875721,15.3085047 L10.1258171,13.5400306 L8.35875721,11.7729708 C7.96823292,11.3824465 7.96823292,10.7492815 8.35875721,10.3587572 C8.7492815,9.96823292 9.38244648,9.96823292 9.77297077,10.3587572 L11.5400306,12.1258171 L13.3085047,10.3587572 C13.699029,9.96823292 14.3321939,9.96823292 14.7227182,10.3587572 Z M27.7227182,10.3587572 C28.1132425,10.7492815 28.1132425,11.3824465 27.7227182,11.7729708 L25.9542442,13.5400306 L27.7227182,15.3085047 C28.1132425,15.699029 28.1132425,16.3321939 27.7227182,16.7227182 C27.3321939,17.1132425 26.699029,17.1132425 26.3085047,16.7227182 L24.5400306,14.9542442 L22.7729708,16.7227182 C22.3824465,17.1132425 21.7492815,17.1132425 21.3587572,16.7227182 C20.9682329,16.3321939 20.9682329,15.699029 21.3587572,15.3085047 L23.1258171,13.5400306 L21.3587572,11.7729708 C20.9682329,11.3824465 20.9682329,10.7492815 21.3587572,10.3587572 C21.7492815,9.96823292 22.3824465,9.96823292 22.7729708,10.3587572 L24.5400306,12.1258171 L26.3085047,10.3587572 C26.699029,9.96823292 27.3321939,9.96823292 27.7227182,10.3587572 Z M18.0107473,22.457161 C20.9432712,22.457161 23.2123664,23.4322956 24.720068,25.3897986 C25.057073,25.8273442 24.9755687,26.4552414 24.5380231,26.7922463 C24.1004775,27.1292513 23.4725803,27.047747 23.1355754,26.6102014 C22.0318941,25.1772524 20.356273,24.457161 18.0107473,24.457161 C15.6652216,24.457161 13.9896005,25.1772524 12.8859192,26.6102014 C12.5489143,27.047747 11.921017,27.1292513 11.4834715,26.7922463 C11.0459259,26.4552414 10.9644216,25.8273442 11.3014265,25.3897986 C12.8091282,23.4322956 15.0782234,22.457161 18.0107473,22.457161 Z" id="path-48"></path>
        <filter x="-35.1%" y="-29.5%" width="170.2%" height="182.7%" filterUnits="objectBoundingBox" id="filter-49">
            <feOffset dx="0" dy="2" in="SourceAlpha" result="shadowOffsetOuter1"></feOffset>
            <feGaussianBlur stdDeviation="2" in="shadowOffsetOuter1" result="shadowBlurOuter1"></feGaussianBlur>
            <feComposite in="shadowBlurOuter1" in2="SourceAlpha" operator="out" result="shadowBlurOuter1"></feComposite>
            <feColorMatrix values="0 0 0 0 0   0 0 0 0 0   0 0 0 0 0  0 0 0 0.2 0" type="matrix" in="shadowBlurOuter1"></feColorMatrix>
        </filter>
        <filter x="-22.6%" y="-14.8%" width="145.1%" height="153.1%" filterUnits="objectBoundingBox" id="filter-50">
            <feGaussianBlur stdDeviation="0.5" in="SourceAlpha" result="shadowBlurInner1"></feGaussianBlur>
            <feOffset dx="0" dy="0" in="shadowBlurInner1" result="shadowOffsetInner1"></feOffset>
            <feComposite in="shadowOffsetInner1" in2="SourceAlpha" operator="arithmetic" k2="-1" k3="1" result="shadowInnerInner1"></feComposite>
            <feColorMatrix values="0 0 0 0 0.814720707   0 0 0 0 0.421869849   0 0 0 0 0.421869849  0 0 0 1 0" type="matrix" in="shadowInnerInner1"></feColorMatrix>
        </filter>
    </defs>
    <g id="picture/update-failure-dark" stroke="none" stroke-width="1" fill="none" fill-rule="evenodd">
        <path d="M123.070959,95 C180.308714,95 228.415034,118.362433 242.141919,150.00008 L4,150.00008 C17.7268846,118.362433 65.8332049,95 123.070959,95 Z" id="形状结合" fill="url(#linearGradient-1)"></path>
        <g id="小元素" transform="translate(59, 2)">
            <g id="矩形" transform="translate(11, 32) rotate(-315) translate(-11, -32)">
                <use fill="url(#linearGradient-2)" fill-rule="evenodd" xlink:href="#path-3"></use>
                <use fill="black" fill-opacity="1" filter="url(#filter-4)" xlink:href="#path-3"></use>
            </g>
            <g id="矩形" transform="translate(111, 38.1213) rotate(-315) translate(-111, -38.1213)">
                <use fill="url(#linearGradient-2)" fill-rule="evenodd" xlink:href="#path-5"></use>
                <use fill="black" fill-opacity="1" filter="url(#filter-6)" xlink:href="#path-5"></use>
            </g>
            <g id="矩形" transform="translate(108.5, 91.5) rotate(-270) translate(-108.5, -91.5)">
                <use fill="url(#linearGradient-2)" fill-rule="evenodd" xlink:href="#path-7"></use>
                <use fill="black" fill-opacity="1" filter="url(#filter-8)" xlink:href="#path-7"></use>
            </g>
            <g id="矩形">
                <use fill="url(#linearGradient-2)" fill-rule="evenodd" xlink:href="#path-9"></use>
                <use fill="black" fill-opacity="1" filter="url(#filter-10)" xlink:href="#path-9"></use>
            </g>
            <g id="矩形">
                <use fill="url(#linearGradient-2)" fill-rule="evenodd" xlink:href="#path-11"></use>
                <use fill="black" fill-opacity="1" filter="url(#filter-12)" xlink:href="#path-11"></use>
            </g>
            <g id="矩形">
                <use fill="url(#linearGradient-13)" fill-rule="evenodd" xlink:href="#path-14"></use>
                <use fill="black" fill-opacity="1" filter="url(#filter-15)" xlink:href="#path-14"></use>
            </g>
        </g>
        <g id="电脑" transform="translate(83, 32)">
            <ellipse id="椭圆形" fill-opacity="0.12" fill="#000000" filter="url(#filter-16)" cx="39.013842" cy="65.4468614" rx="23.9294702" ry="3.55313863"></ellipse>
            <g id="矩形" fill-rule="nonzero">
                <use fill="url(#linearGradient-17)" xlink:href="#path-18"></use>
                <use fill="black" fill-opacity="1" filter="url(#filter-19)" xlink:href="#path-18"></use>
            </g>
            <g id="矩形" fill-rule="nonzero">
                <use fill="#686868" xlink:href="#path-20"></use>
                <use fill="black" fill-opacity="1" filter="url(#filter-21)" xlink:href="#path-20"></use>
            </g>
            <g id="矩形">
                <use fill="black" fill-opacity="1" filter="url(#filter-24)" xlink:href="#path-23"></use>
                <use fill="url(#linearGradient-22)" fill-rule="evenodd" xlink:href="#path-23"></use>
                <use fill="black" fill-opacity="1" filter="url(#filter-25)" xlink:href="#path-23"></use>
            </g>
            <mask id="mask-28" fill="white">
                <use xlink:href="#path-27"></use>
            </mask>
            <g id="矩形" fill-rule="nonzero">
                <use fill="url(#linearGradient-26)" xlink:href="#path-27"></use>
                <use fill="black" fill-opacity="1" filter="url(#filter-29)" xlink:href="#path-27"></use>
            </g>
            <path d="M41.9141015,18.2819611 C42.809069,18.2819611 43.580199,18.9123307 43.758177,19.7894227 L44.5795912,23.8366822 C46.5211179,24.3154027 48.350962,25.071891 50.0231356,26.0608207 L53.5354475,23.7525253 C54.2768431,23.2653698 55.2577865,23.3622172 55.8896042,23.9849485 L59.0321439,27.0822937 C59.6779961,27.7188577 59.777949,28.7255197 59.2698836,29.4766577 L56.9572164,32.8951936 C57.9605674,34.5433127 58.7280875,36.3468328 59.2137894,38.2604283 L63.3318163,39.0723263 C64.2137532,39.246177 64.8495581,40.0195493 64.8495581,40.918458 L64.8495581,45.2679302 C64.8495581,46.1668389 64.2137532,46.9402113 63.3318163,47.114062 L59.2135357,47.9269597 C58.7278541,49.84005 57.9604999,51.6431107 56.9574266,53.2908495 L59.2698836,56.7097306 C59.777949,57.4608686 59.6779961,58.4675306 59.0321439,59.1040945 L55.8896042,62.2014398 C55.2577865,62.824171 54.2768431,62.9210184 53.5354475,62.433863 L50.0231356,60.1255675 C48.350962,61.1144972 46.5211179,61.8709855 44.5795912,62.349706 L43.758177,66.3969655 C43.580199,67.2740576 42.809069,67.9044271 41.9141015,67.9044271 L37.438491,67.9044271 C36.5435236,67.9044271 35.7723935,67.2740576 35.5944155,66.3969655 L34.7720027,62.3494598 C32.8312339,61.8708215 31.0020729,61.1146291 29.3304563,60.1261585 L25.817145,62.433863 C25.0757494,62.9210184 24.094806,62.824171 23.4629883,62.2014398 L20.3204487,59.1040945 C19.6745964,58.4675306 19.5746435,57.4608686 20.082709,56.7097306 L22.3951659,53.2908495 C21.3920926,51.6431107 20.6247385,49.84005 20.1390569,47.9269597 L16.0207763,47.114062 C15.1388393,46.9402113 14.5030344,46.1668389 14.5030344,45.2679302 L14.5030344,40.918458 C14.5030344,40.0195493 15.1388393,39.246177 16.0207763,39.0723263 L20.1388031,38.2604283 C20.6245051,36.3468328 21.3920251,34.5433127 22.3953761,32.8951936 L20.082709,29.4766577 C19.5746435,28.7255197 19.6745964,27.7188577 20.3204487,27.0822937 L23.4629883,23.9849485 C24.094806,23.3622172 25.0757494,23.2653698 25.817145,23.7525253 L29.3304563,26.0602298 C31.0020729,25.0717592 32.8312339,24.3155667 34.7720027,23.8369285 L35.5944155,19.7894227 C35.7723935,18.9123307 36.5435236,18.2819611 37.438491,18.2819611 L41.9141015,18.2819611 Z M39.6762963,29.447016 C32.0297515,29.447016 25.8310022,35.556618 25.8310022,43.0931941 C25.8310022,50.6297702 32.0297515,56.7393723 39.6762963,56.7393723 C47.322841,56.7393723 53.5215903,50.6297702 53.5215903,43.0931941 C53.5215903,35.556618 47.322841,29.447016 39.6762963,29.447016 Z M39.6762963,31.9281393 C45.9325602,31.9281393 51.0042641,36.9269046 51.0042641,43.0931941 C51.0042641,49.2594836 45.9325602,54.258249 39.6762963,54.258249 C33.4200324,54.258249 28.3483284,49.2594836 28.3483284,43.0931941 C28.3483284,36.9269046 33.4200324,31.9281393 39.6762963,31.9281393 Z M39.6762963,36.8903859 C36.2005941,36.8903859 33.3829808,39.6674777 33.3829808,43.0931941 C33.3829808,46.5189105 36.2005941,49.2960024 39.6762963,49.2960024 C43.1519984,49.2960024 45.9696117,46.5189105 45.9696117,43.0931941 C45.9696117,39.6674777 43.1519984,36.8903859 39.6762963,36.8903859 Z" id="形状结合" fill="url(#linearGradient-30)" fill-rule="nonzero" mask="url(#mask-28)"></path>
        </g>
        <g id="放大镜" transform="translate(158.9359, 70.1127) rotate(-45) translate(-158.9359, -70.1127)translate(141.8109, 42.9877)">
            <g id="形状结合">
                <use fill-opacity="0.25" fill="#FFFFFF" fill-rule="evenodd" xlink:href="#path-31"></use>
                <use fill="black" fill-opacity="1" filter="url(#filter-32)" xlink:href="#path-31"></use>
            </g>
            <g id="矩形" fill-rule="nonzero">
                <use fill-opacity="0.2" fill="#FFFFFF" xlink:href="#path-33"></use>
                <use fill="black" fill-opacity="1" filter="url(#filter-34)" xlink:href="#path-33"></use>
            </g>
            <g id="椭圆形" fill-rule="nonzero">
                <use fill="black" fill-opacity="1" filter="url(#filter-37)" xlink:href="#path-36"></use>
                <use fill="url(#linearGradient-35)" xlink:href="#path-36"></use>
                <use fill="black" fill-opacity="1" filter="url(#filter-38)" xlink:href="#path-36"></use>
            </g>
            <g id="椭圆形" fill-rule="nonzero">
                <use fill="black" fill-opacity="1" filter="url(#filter-40)" xlink:href="#path-39"></use>
                <use fill="url(#linearGradient-35)" xlink:href="#path-39"></use>
                <use fill="black" fill-opacity="1" filter="url(#filter-41)" xlink:href="#path-39"></use>
            </g>
            <g id="椭圆形">
                <use fill-opacity="0.60409" fill="#949494" fill-rule="evenodd" xlink:href="#path-42"></use>
                <use fill="black" fill-opacity="1" filter="url(#filter-43)" xlink:href="#path-42"></use>
            </g>
        </g>
        <g id="哭脸" transform="translate(147, 66)" fill-rule="nonzero">
            <g id="椭圆形">
                <use fill="black" fill-opacity="1" filter="url(#filter-46)" xlink:href="#path-45"></use>
                <use fill="url(#linearGradient-44)" xlink:href="#path-45"></use>
                <use fill="black" fill-opacity="1" filter="url(#filter-47)" xlink:href="#path-45"></use>
            </g>
            <g id="形状结合">
                <use fill="black" fill-opacity="1" filter="url(#filter-49)" xlink:href="#path-48"></use>
                <use fill-opacity="0.8" fill="#FFFFFF" xlink:href="#path-48"></use>
                <use fill="black" fill-opacity="1" filter="url(#filter-50)" xlink:href="#path-48"></use>
            </g>
        </g>
    </g>
</svg>