<?xml version="1.0" encoding="UTF-8"?>
<svg width="24px" height="24px" viewBox="0 0 24 24" version="1.1" xmlns="http://www.w3.org/2000/svg" xmlns:xlink="http://www.w3.org/1999/xlink">
    <title>close</title>
    <g id="20230320版本" stroke="none" stroke-width="1" fill="none" fill-rule="evenodd">
        <g id="更新1060-更新未全选" transform="translate(-1766.000000, -329.000000)">
            <g id="控制中心备份-6" transform="translate(1000.000000, 165.000000)">
                <g id="进度条状态" transform="translate(486.000000, 164.000000)">
                    <g id="close" transform="translate(280.000000, 0.000000)">
                        <rect id="矩形" fill="#000000" fill-rule="nonzero" opacity="0" x="0" y="0" width="24" height="24"></rect>
                        <path d="M11.9991385,6 C12.550373,6 13.0327205,6.56934363 12.9982596,7.27006063 L12.998,10.999 L16.7299394,11 C17.3430771,11 17.918055,11.4205558 17.9919937,11.8971624 L18,12.0000174 C18,12.517254 17.4306564,13 16.7299394,13 L12.998,12.999 L12.9982596,16.7299394 C12.9982596,17.3430771 12.5780965,17.918055 12.1019045,17.9919937 L11.9991385,18 C11.4823475,18 11,17.4306564 11,16.7299394 L11,12.999 L7.27006063,13 C6.65692292,13 6.08194501,12.6095045 6.00800634,12.108878 L6,12.0000174 C6,11.4827634 6.56934363,11 7.27006063,11 L11,10.999 L11,7.27006063 C11,6.65692292 11.3901742,6.08194501 11.8903715,6.00800634 Z" id="形状结合" fill="#536076" transform="translate(12.000000, 12.000000) rotate(-315.000000) translate(-12.000000, -12.000000) "></path>
                    </g>
                </g>
            </g>
        </g>
    </g>
</svg>