<?xml version="1.0" encoding="UTF-8"?>
<svg width="24px" height="24px" viewBox="0 0 24 24" version="1.1" xmlns="http://www.w3.org/2000/svg" xmlns:xlink="http://www.w3.org/1999/xlink">
    <title>暂停</title>
    <g id="2023111版本" stroke="none" stroke-width="1" fill="none" fill-rule="evenodd">
        <g id="更新1060-正在下载更新" transform="translate(-1762.000000, -377.000000)">
            <g id="控制中心备份-6" transform="translate(1002.000000, 87.000000)">
                <g id="暂停" transform="translate(760.000000, 290.000000)">
                    <rect id="矩形" fill="#000000" fill-rule="nonzero" opacity="0" x="0" y="0" width="24" height="24"></rect>
                    <path d="M14.9999826,6 C14.4482729,6 14,6.61312737 14,7.27006063 L14,16.7299394 C14,17.4306564 14.482746,18 14.9999826,18 C15.5172191,18 16,17.3868726 16,16.7299394 L16,7.27006063 C16,6.56934363 15.5172366,6 15,6 L14.9999826,6 Z M8.99913853,6 C8.4479041,6 8,6.61312737 8,7.27006063 L8,16.7299394 C8,17.4306564 8.48234754,18 8.99913853,18 C9.51592952,18 9.99825964,17.3868726 9.99825964,16.7299394 L9.99825964,7.27006063 C10.0327205,6.56934363 9.55037296,6 8.99913853,6 Z" id="形状" fill="#536076"></path>
                </g>
            </g>
        </g>
    </g>
</svg>