<?xml version="1.0" encoding="UTF-8"?>
<svg width="48px" height="48px" viewBox="0 0 48 48" version="1.1" xmlns="http://www.w3.org/2000/svg" xmlns:xlink="http://www.w3.org/1999/xlink">
    <title>update-48px</title>
    <defs>
        <linearGradient x1="50%" y1="0.466941779%" x2="50%" y2="79.0278519%" id="linearGradient-1">
            <stop stop-color="#5989FF" offset="0%"></stop>
            <stop stop-color="#0056E0" offset="100%"></stop>
        </linearGradient>
        <path d="M16.6018798,24.2609148 L19.7380819,27.3971169 L14.9602396,32.1737015 L15.054597,32.275939 C15.8183856,33.1557003 15.7820147,34.4893862 14.9454843,35.3259166 L14.9277414,35.3436595 C14.0531869,36.218214 12.6352538,36.218214 11.7606993,35.3436595 L8.65533723,32.2382974 C7.7807827,31.3637429 7.7807827,29.9458098 8.65533723,29.0712553 L8.67308013,29.0535124 C9.54240635,28.1841862 10.9486336,28.1789891 11.8243793,29.0379212 L16.6018798,24.2609148 Z M11.2902653,9.30384739 L14.2803156,10.4636523 C14.719438,10.6339827 15.005024,11.0609031 14.9948423,11.531793 L14.9716007,12.6066819 C14.9650698,12.9087262 15.0808701,13.2005927 15.2927037,13.4159991 L22.5648509,20.8108 C23.5355388,19.8237403 24.8030883,19.902003 25.6473076,20.7604612 L35.328405,30.6048422 C36.1726243,31.4633003 36.0854375,33.0570329 35.1147494,34.0440929 L33.972166,35.2056264 C33.0016373,36.1928452 31.4746834,36.2404779 30.6304161,35.3820676 L20.9493667,25.5376387 C20.1051474,24.6791806 20.0281827,23.3902522 20.9988706,22.4031925 L13.7348281,15.0166329 C13.5182338,14.7963855 13.2202734,14.6754014 12.911446,14.6823061 L11.8992063,14.7049376 C11.4222334,14.7156017 10.9908885,14.4228673 10.8246401,13.9756779 L9.67989242,10.8964349 C9.52844085,10.4890471 9.62642007,10.0308189 9.9312284,9.72098953 L10.0871333,9.56251646 C10.4006013,9.24388473 10.87354,9.1422046 11.2902653,9.30384739 Z M31.0747109,8.2130903 L28.5351683,10.7596721 C27.7534313,11.5414091 27.6579786,12.7462944 28.2546643,13.6126419 L28.5108768,13.9201657 L30.0789779,15.4882667 C30.8487897,16.2580785 32.05235,16.3350201 32.9279727,15.7249456 L33.2394715,15.4639753 L35.7866372,12.9213259 C36.365841,15.1529041 35.7678444,17.6417803 34.000168,19.4094568 C32.7750008,20.6346239 31.0977117,21.4035719 29.5054342,21.5024529 L22.4985655,14.4955842 C22.5974466,12.9033067 23.3663946,11.2260176 24.5915617,10.0008505 C26.3579229,8.23448929 28.844411,7.63606792 31.0747109,8.2130903 Z" id="path-2"></path>
        <filter x="-10.7%" y="-10.7%" width="121.4%" height="121.4%" filterUnits="objectBoundingBox" id="filter-3">
            <feOffset dx="0" dy="0" in="SourceAlpha" result="shadowOffsetOuter1"></feOffset>
            <feGaussianBlur stdDeviation="1" in="shadowOffsetOuter1" result="shadowBlurOuter1"></feGaussianBlur>
            <feColorMatrix values="0 0 0 0 0   0 0 0 0 0   0 0 0 0 0  0 0 0 0.1 0" type="matrix" in="shadowBlurOuter1"></feColorMatrix>
        </filter>
    </defs>
    <g id="update-48px" stroke="none" stroke-width="1" fill="none" fill-rule="evenodd">
        <g id="编组" transform="translate(2, 2)">
            <path d="M31.180574,1 C35.3549705,1 36.882762,1.39929452 38.4126297,2.21747672 C39.8654132,2.99443384 41.0055662,4.13458684 41.7825233,5.58737034 C42.6007055,7.11723804 43,8.64502952 43,12.819426 L43,31.180574 C43,35.3549705 42.6007055,36.882762 41.7825233,38.4126297 C41.0055662,39.8654132 39.8654132,41.0055662 38.4126297,41.7825233 C36.882762,42.6007055 35.3549705,43 31.180574,43 L12.819426,43 C8.64502952,43 7.11723804,42.6007055 5.58737034,41.7825233 C4.13458684,41.0055662 2.99443384,39.8654132 2.21747672,38.4126297 C1.39929452,36.882762 1,35.3549705 1,31.180574 L1,12.819426 C1,8.64502952 1.39929452,7.11723804 2.21747672,5.58737034 C2.99443384,4.13458684 4.13458684,2.99443384 5.58737034,2.21747672 C7.11723804,1.39929452 8.64502952,1 12.819426,1 Z" id="Rectangle" stroke-opacity="0.1" stroke="#000000" stroke-width="2" fill="url(#linearGradient-1)"></path>
            <g id="形状结合">
                <use fill="black" fill-opacity="1" filter="url(#filter-3)" xlink:href="#path-2"></use>
                <use fill="#FFFFFF" fill-rule="evenodd" xlink:href="#path-2"></use>
            </g>
        </g>
    </g>
</svg>