<?xml version="1.0" encoding="UTF-8"?>
<svg width="16px" height="16px" viewBox="0 0 16 16" version="1.1" xmlns="http://www.w3.org/2000/svg" xmlns:xlink="http://www.w3.org/1999/xlink">
    <title>status-intranet-update-platform-dark</title>
    <g id="status-intranet-update-platform-dark" stroke="none" stroke-width="1" fill="none" fill-rule="evenodd">
        <path d="M15.3921921,7.01561039 C15.3984134,7.02051421 15.4025402,7.02759772 15.4037378,7.03542827 L15.4888862,7.58819673 C15.4962636,7.72452811 15.5,7.86182771 15.5,8 C15.5,8.69289401 15.4060389,9.36384223 15.2301634,10.000798 C14.3302021,13.1818082 11.4080643,15.46875 8,15.46875 C5.03143767,15.46875 2.37947378,13.728054 1.17081212,11.0732422 C1.05639227,10.8219202 1.16737333,10.5254279 1.41869526,10.4110081 C1.67001718,10.2965882 1.96650947,10.4075693 2.08092932,10.6588912 C3.12864297,12.9601826 5.42695717,14.46875 8,14.46875 C10.8559756,14.46875 13.3185906,12.6152 14.1766461,10.0006452 L13.0644232,10 C13.0471643,10 13.0331732,9.9860089 13.0331732,9.96875 C13.0331732,9.96173133 13.035536,9.954917 13.0398809,9.94940484 L15.3483046,7.02080759 C15.3589886,7.00725322 15.3786377,7.00492635 15.3921921,7.01561039 Z M15.0188126,5.35108953 C15.0564227,5.57904246 14.9308807,5.80960988 14.7070649,5.89671911 C14.4497261,5.99687555 14.1599188,5.869454 14.0597624,5.61211511 C13.0955084,3.13459024 10.7035542,1.46875 8,1.46875 C5.11418319,1.46875 2.64034884,3.35856024 1.80307285,5.99970369 L2.8711535,6 C2.9056713,6 2.9336535,6.0279822 2.9336535,6.0625 C2.9336535,6.07653735 2.92892797,6.090166 2.92023823,6.10119031 L0.669064024,8.95715758 C0.647695955,8.98426633 0.608397735,8.98892006 0.581288992,8.96755199 L0.563685887,8.94562057 L0.557583174,8.93394677 C0.519576264,8.62796721 0.5,8.31626974 0.5,8 C0.5,3.85786438 3.85786438,0.5 8,0.5 C11.2096287,0.5 13.9483589,2.51615589 15.0188126,5.35108953 Z M11.6714772,4.33002564 C12.3661971,5.02474549 11.9007083,6.46042658 10.7475148,7.99903102 C11.9012607,9.53838985 12.3670327,10.9744501 11.6721918,11.669291 C10.977351,12.3641318 9.54129071,11.8983599 8.00238243,10.7447259 C6.46286311,11.8999614 5.02528575,12.3668669 4.32996085,11.671542 C3.63463594,10.9762171 4.10154145,9.53863974 5.25693783,7.99851634 C4.10193118,6.4596762 3.63559258,5.02285749 4.33067547,4.3277746 C5.02575835,3.63269172 6.46257707,4.09903032 8.00209296,5.25354536 C9.54107627,4.10079454 10.9767574,3.63530578 11.6714772,4.33002564 Z M7.19661124,10.0851956 L7.10949235,10.0078463 C6.91777353,9.83519282 6.72635371,9.65346092 6.53642961,9.46353682 C6.31831365,9.24542086 6.11100246,9.0253322 5.91583838,8.80508344 C5.16271606,9.86508396 4.82374579,10.7511134 5.03706763,10.9644352 C5.25038947,11.1777571 6.13641888,10.8387868 7.19661124,10.0851956 Z M8.7593309,7.24063553 C8.50818051,6.98948514 8.25394441,6.75612387 8.00234076,6.54213078 C7.7497601,6.75695069 7.49473865,6.99096969 7.24282178,7.24288656 C6.99192688,7.49378146 6.75878493,7.7477558 6.54497017,7.99910883 C6.75902473,8.25104354 6.992386,8.50527965 7.2435364,8.75643004 C7.49545327,9.00834691 7.75047472,9.24236592 8.00283006,9.45689349 C8.25374705,9.24271792 8.50772139,9.00957597 8.75861628,8.75868107 C9.01053316,8.5067642 9.24455216,8.25174275 9.45907974,7.99938741 C9.24526678,7.74757386 9.01124778,7.4925524 8.7593309,7.24063553 Z M7.19716497,5.91253401 C6.13395668,5.1593154 5.2507214,4.82194223 5.03778225,5.03488138 C4.82451667,5.24814696 5.16325192,6.13376532 5.9164257,7.19358618 C6.11054962,6.9737065 6.31773674,6.75375803 6.53571499,6.53577978 C6.75482014,6.31667463 6.97591593,6.10847248 7.19716497,5.91253401 Z M10.0875829,8.80508561 L10.0100325,8.89272511 C9.83737907,9.08444394 9.65564717,9.27586375 9.46572307,9.46578785 C9.24774482,9.6837661 9.02779635,9.89095322 8.80768686,10.0860094 C9.86709582,10.8370567 10.7519272,11.175342 10.9650851,10.9621842 C11.1782429,10.7490264 10.8399575,9.86419496 10.0875829,8.80508561 Z M10.9643704,5.03713242 C10.7512681,4.82403005 9.86684164,5.16208394 8.80809859,5.91404737 C9.02873213,6.1085717 9.24856902,6.31566009 9.46643769,6.53352875 C9.68516074,6.7522518 9.89301879,6.97295855 10.0886583,7.19382121 C10.8394189,6.1346612 11.1774728,5.25023478 10.9643704,5.03713242 Z" id="形状" fill="#000000" fill-rule="nonzero"></path>
    </g>
</svg>