<?xml version="1.0" encoding="UTF-8"?>
<svg width="246px" height="142px" viewBox="0 0 246 142" version="1.1" xmlns="http://www.w3.org/2000/svg" xmlns:xlink="http://www.w3.org/1999/xlink">
    <title>picture/nice_service-light 2</title>
    <defs>
        <linearGradient x1="50%" y1="0%" x2="50%" y2="76.6637495%" id="linearGradient-1">
            <stop stop-color="#EEEEEE" offset="0%"></stop>
            <stop stop-color="#FFFFFF" stop-opacity="0" offset="100%"></stop>
        </linearGradient>
        <linearGradient x1="50%" y1="0%" x2="50%" y2="100%" id="linearGradient-2">
            <stop stop-color="#000000" stop-opacity="0.05" offset="0%"></stop>
            <stop stop-color="#000000" stop-opacity="0.02" offset="100%"></stop>
        </linearGradient>
        <rect id="path-3" x="17" y="19" width="8" height="8" rx="2"></rect>
        <filter x="-25.0%" y="-25.0%" width="150.0%" height="150.0%" filterUnits="objectBoundingBox" id="filter-4">
            <feGaussianBlur stdDeviation="1.5" in="SourceAlpha" result="shadowBlurInner1"></feGaussianBlur>
            <feOffset dx="0" dy="1" in="shadowBlurInner1" result="shadowOffsetInner1"></feOffset>
            <feComposite in="shadowOffsetInner1" in2="SourceAlpha" operator="arithmetic" k2="-1" k3="1" result="shadowInnerInner1"></feComposite>
            <feColorMatrix values="0 0 0 0 1   0 0 0 0 1   0 0 0 0 1  0 0 0 0.1 0" type="matrix" in="shadowInnerInner1" result="shadowMatrixInner1"></feColorMatrix>
            <feGaussianBlur stdDeviation="1.5" in="SourceAlpha" result="shadowBlurInner2"></feGaussianBlur>
            <feOffset dx="0" dy="-1" in="shadowBlurInner2" result="shadowOffsetInner2"></feOffset>
            <feComposite in="shadowOffsetInner2" in2="SourceAlpha" operator="arithmetic" k2="-1" k3="1" result="shadowInnerInner2"></feComposite>
            <feColorMatrix values="0 0 0 0 0   0 0 0 0 0   0 0 0 0 0  0 0 0 0.1 0" type="matrix" in="shadowInnerInner2" result="shadowMatrixInner2"></feColorMatrix>
            <feMerge>
                <feMergeNode in="shadowMatrixInner1"></feMergeNode>
                <feMergeNode in="shadowMatrixInner2"></feMergeNode>
            </feMerge>
        </filter>
        <rect id="path-5" x="127.5" y="44.6213203" width="5" height="5" rx="2"></rect>
        <filter x="-40.0%" y="-40.0%" width="180.0%" height="180.0%" filterUnits="objectBoundingBox" id="filter-6">
            <feGaussianBlur stdDeviation="1.5" in="SourceAlpha" result="shadowBlurInner1"></feGaussianBlur>
            <feOffset dx="0" dy="1" in="shadowBlurInner1" result="shadowOffsetInner1"></feOffset>
            <feComposite in="shadowOffsetInner1" in2="SourceAlpha" operator="arithmetic" k2="-1" k3="1" result="shadowInnerInner1"></feComposite>
            <feColorMatrix values="0 0 0 0 1   0 0 0 0 1   0 0 0 0 1  0 0 0 0.1 0" type="matrix" in="shadowInnerInner1" result="shadowMatrixInner1"></feColorMatrix>
            <feGaussianBlur stdDeviation="1.5" in="SourceAlpha" result="shadowBlurInner2"></feGaussianBlur>
            <feOffset dx="0" dy="-1" in="shadowBlurInner2" result="shadowOffsetInner2"></feOffset>
            <feComposite in="shadowOffsetInner2" in2="SourceAlpha" operator="arithmetic" k2="-1" k3="1" result="shadowInnerInner2"></feComposite>
            <feColorMatrix values="0 0 0 0 0   0 0 0 0 0   0 0 0 0 0  0 0 0 0.1 0" type="matrix" in="shadowInnerInner2" result="shadowMatrixInner2"></feColorMatrix>
            <feMerge>
                <feMergeNode in="shadowMatrixInner1"></feMergeNode>
                <feMergeNode in="shadowMatrixInner2"></feMergeNode>
            </feMerge>
        </filter>
        <rect id="path-7" x="97" y="0" width="9" height="9" rx="4.5"></rect>
        <filter x="-22.2%" y="-22.2%" width="144.4%" height="144.4%" filterUnits="objectBoundingBox" id="filter-8">
            <feGaussianBlur stdDeviation="1.5" in="SourceAlpha" result="shadowBlurInner1"></feGaussianBlur>
            <feOffset dx="0" dy="1" in="shadowBlurInner1" result="shadowOffsetInner1"></feOffset>
            <feComposite in="shadowOffsetInner1" in2="SourceAlpha" operator="arithmetic" k2="-1" k3="1" result="shadowInnerInner1"></feComposite>
            <feColorMatrix values="0 0 0 0 1   0 0 0 0 1   0 0 0 0 1  0 0 0 0.1 0" type="matrix" in="shadowInnerInner1" result="shadowMatrixInner1"></feColorMatrix>
            <feGaussianBlur stdDeviation="1.5" in="SourceAlpha" result="shadowBlurInner2"></feGaussianBlur>
            <feOffset dx="0" dy="-1" in="shadowBlurInner2" result="shadowOffsetInner2"></feOffset>
            <feComposite in="shadowOffsetInner2" in2="SourceAlpha" operator="arithmetic" k2="-1" k3="1" result="shadowInnerInner2"></feComposite>
            <feColorMatrix values="0 0 0 0 0   0 0 0 0 0   0 0 0 0 0  0 0 0 0.1 0" type="matrix" in="shadowInnerInner2" result="shadowMatrixInner2"></feColorMatrix>
            <feMerge>
                <feMergeNode in="shadowMatrixInner1"></feMergeNode>
                <feMergeNode in="shadowMatrixInner2"></feMergeNode>
            </feMerge>
        </filter>
        <rect id="path-9" x="17" y="65" width="5" height="5" rx="2.5"></rect>
        <filter x="-40.0%" y="-40.0%" width="180.0%" height="180.0%" filterUnits="objectBoundingBox" id="filter-10">
            <feGaussianBlur stdDeviation="1.5" in="SourceAlpha" result="shadowBlurInner1"></feGaussianBlur>
            <feOffset dx="0" dy="1" in="shadowBlurInner1" result="shadowOffsetInner1"></feOffset>
            <feComposite in="shadowOffsetInner1" in2="SourceAlpha" operator="arithmetic" k2="-1" k3="1" result="shadowInnerInner1"></feComposite>
            <feColorMatrix values="0 0 0 0 1   0 0 0 0 1   0 0 0 0 1  0 0 0 0.1 0" type="matrix" in="shadowInnerInner1" result="shadowMatrixInner1"></feColorMatrix>
            <feGaussianBlur stdDeviation="1.5" in="SourceAlpha" result="shadowBlurInner2"></feGaussianBlur>
            <feOffset dx="0" dy="-1" in="shadowBlurInner2" result="shadowOffsetInner2"></feOffset>
            <feComposite in="shadowOffsetInner2" in2="SourceAlpha" operator="arithmetic" k2="-1" k3="1" result="shadowInnerInner2"></feComposite>
            <feColorMatrix values="0 0 0 0 0   0 0 0 0 0   0 0 0 0 0  0 0 0 0.1 0" type="matrix" in="shadowInnerInner2" result="shadowMatrixInner2"></feColorMatrix>
            <feMerge>
                <feMergeNode in="shadowMatrixInner1"></feMergeNode>
                <feMergeNode in="shadowMatrixInner2"></feMergeNode>
            </feMerge>
        </filter>
        <linearGradient x1="50%" y1="0%" x2="50%" y2="100%" id="linearGradient-11">
            <stop stop-color="#000000" stop-opacity="0.1" offset="0%"></stop>
            <stop stop-color="#000000" stop-opacity="0.02" offset="100%"></stop>
        </linearGradient>
        <rect id="path-12" x="0" y="80" width="11" height="11" rx="3"></rect>
        <filter x="-18.2%" y="-18.2%" width="136.4%" height="136.4%" filterUnits="objectBoundingBox" id="filter-13">
            <feGaussianBlur stdDeviation="1.5" in="SourceAlpha" result="shadowBlurInner1"></feGaussianBlur>
            <feOffset dx="0" dy="1" in="shadowBlurInner1" result="shadowOffsetInner1"></feOffset>
            <feComposite in="shadowOffsetInner1" in2="SourceAlpha" operator="arithmetic" k2="-1" k3="1" result="shadowInnerInner1"></feComposite>
            <feColorMatrix values="0 0 0 0 1   0 0 0 0 1   0 0 0 0 1  0 0 0 0.1 0" type="matrix" in="shadowInnerInner1" result="shadowMatrixInner1"></feColorMatrix>
            <feGaussianBlur stdDeviation="1.5" in="SourceAlpha" result="shadowBlurInner2"></feGaussianBlur>
            <feOffset dx="0" dy="-1" in="shadowBlurInner2" result="shadowOffsetInner2"></feOffset>
            <feComposite in="shadowOffsetInner2" in2="SourceAlpha" operator="arithmetic" k2="-1" k3="1" result="shadowInnerInner2"></feComposite>
            <feColorMatrix values="0 0 0 0 0   0 0 0 0 0   0 0 0 0 0  0 0 0 0.1 0" type="matrix" in="shadowInnerInner2" result="shadowMatrixInner2"></feColorMatrix>
            <feMerge>
                <feMergeNode in="shadowMatrixInner1"></feMergeNode>
                <feMergeNode in="shadowMatrixInner2"></feMergeNode>
            </feMerge>
        </filter>
        <filter x="-23.3%" y="-157.9%" width="146.7%" height="415.7%" filterUnits="objectBoundingBox" id="filter-14">
            <feGaussianBlur stdDeviation="4.0103948" in="SourceGraphic"></feGaussianBlur>
        </filter>
        <linearGradient x1="50%" y1="0%" x2="50%" y2="100%" id="linearGradient-15">
            <stop stop-color="#A2A2A2" offset="0%"></stop>
            <stop stop-color="#ECECEC" offset="100%"></stop>
        </linearGradient>
        <polygon id="path-16" points="31 59 53 59 53 68 31 68"></polygon>
        <filter x="-6.8%" y="-16.7%" width="113.6%" height="133.3%" filterUnits="objectBoundingBox" id="filter-17">
            <feGaussianBlur stdDeviation="1" in="SourceAlpha" result="shadowBlurInner1"></feGaussianBlur>
            <feOffset dx="0" dy="-1" in="shadowBlurInner1" result="shadowOffsetInner1"></feOffset>
            <feComposite in="shadowOffsetInner1" in2="SourceAlpha" operator="arithmetic" k2="-1" k3="1" result="shadowInnerInner1"></feComposite>
            <feColorMatrix values="0 0 0 0 0   0 0 0 0 0   0 0 0 0 0  0 0 0 0.179974323 0" type="matrix" in="shadowInnerInner1"></feColorMatrix>
        </filter>
        <rect id="path-18" x="26" y="68" width="32" height="3" rx="1.5"></rect>
        <filter x="-4.7%" y="-50.0%" width="109.4%" height="200.0%" filterUnits="objectBoundingBox" id="filter-19">
            <feGaussianBlur stdDeviation="1" in="SourceAlpha" result="shadowBlurInner1"></feGaussianBlur>
            <feOffset dx="0" dy="-1" in="shadowBlurInner1" result="shadowOffsetInner1"></feOffset>
            <feComposite in="shadowOffsetInner1" in2="SourceAlpha" operator="arithmetic" k2="-1" k3="1" result="shadowInnerInner1"></feComposite>
            <feColorMatrix values="0 0 0 0 0   0 0 0 0 0   0 0 0 0 0  0 0 0 0.3 0" type="matrix" in="shadowInnerInner1"></feColorMatrix>
        </filter>
        <linearGradient x1="50%" y1="0%" x2="50%" y2="91.2736117%" id="linearGradient-20">
            <stop stop-color="#F4F4F4" offset="0%"></stop>
            <stop stop-color="#F1F1F1" offset="100%"></stop>
        </linearGradient>
        <rect id="path-21" x="0" y="0" width="84" height="60" rx="8"></rect>
        <filter x="-6.0%" y="-6.7%" width="111.9%" height="116.7%" filterUnits="objectBoundingBox" id="filter-22">
            <feOffset dx="0" dy="1" in="SourceAlpha" result="shadowOffsetOuter1"></feOffset>
            <feGaussianBlur stdDeviation="1.5" in="shadowOffsetOuter1" result="shadowBlurOuter1"></feGaussianBlur>
            <feColorMatrix values="0 0 0 0 0   0 0 0 0 0   0 0 0 0 0  0 0 0 0.1 0" type="matrix" in="shadowBlurOuter1"></feColorMatrix>
        </filter>
        <filter x="-5.4%" y="-5.8%" width="110.7%" height="115.0%" filterUnits="objectBoundingBox" id="filter-23">
            <feGaussianBlur stdDeviation="1" in="SourceAlpha" result="shadowBlurInner1"></feGaussianBlur>
            <feOffset dx="0" dy="-1" in="shadowBlurInner1" result="shadowOffsetInner1"></feOffset>
            <feComposite in="shadowOffsetInner1" in2="SourceAlpha" operator="arithmetic" k2="-1" k3="1" result="shadowInnerInner1"></feComposite>
            <feColorMatrix values="0 0 0 0 0   0 0 0 0 0   0 0 0 0 0  0 0 0 0.2 0" type="matrix" in="shadowInnerInner1"></feColorMatrix>
        </filter>
        <linearGradient x1="50%" y1="0%" x2="50%" y2="97.7812227%" id="linearGradient-24">
            <stop stop-color="#DEDEDE" offset="0%"></stop>
            <stop stop-color="#858585" offset="100%"></stop>
        </linearGradient>
        <path d="M8,3 L76,3 C78.7614237,3 81,5.23857625 81,8 L81,49 L81,49 L3,49 L3,8 C3,5.23857625 5.23857625,3 8,3 Z" id="path-25"></path>
        <filter x="-5.1%" y="-8.7%" width="110.3%" height="117.4%" filterUnits="objectBoundingBox" id="filter-27">
            <feGaussianBlur stdDeviation="4" in="SourceAlpha" result="shadowBlurInner1"></feGaussianBlur>
            <feOffset dx="0" dy="0" in="shadowBlurInner1" result="shadowOffsetInner1"></feOffset>
            <feComposite in="shadowOffsetInner1" in2="SourceAlpha" operator="arithmetic" k2="-1" k3="1" result="shadowInnerInner1"></feComposite>
            <feColorMatrix values="0 0 0 0 0   0 0 0 0 0   0 0 0 0 0  0 0 0 0.2 0" type="matrix" in="shadowInnerInner1"></feColorMatrix>
        </filter>
        <linearGradient x1="50%" y1="0%" x2="50%" y2="108.332487%" id="linearGradient-28">
            <stop stop-color="#F3F3F3" stop-opacity="0.7" offset="0%"></stop>
            <stop stop-color="#ACACAC" stop-opacity="0.800555889" offset="100%"></stop>
        </linearGradient>
        <path d="M41.9076238,8.52446784 C41.968373,8.64596635 42,8.77994028 42,8.91577974 L41.999809,10.002 L42.2038487,10.0030079 C51.4436133,10.175204 58.880809,17.719077 58.880809,27 C58.880809,36.3888407 51.2696497,44 41.880809,44 C32.8487273,44 25.4617964,36.956272 24.9134574,28.0622569 L24.9123899,28.0446156 L24.9113572,28.0265309 C24.8807097,27.4911174 25.2899034,27.0322344 25.8253168,27.0015869 L25.8530515,27.0003968 L25.9159652,27.0000076 C26.4444051,27.0020696 26.8800243,27.4149323 26.9104088,27.9425019 C26.9124623,27.9809012 26.9146924,28.0168139 26.9170047,28.0502457 C27.4560874,35.8445026 33.9496015,42 41.880809,42 C50.1650802,42 56.880809,35.2842712 56.880809,27 C56.880809,18.7555972 50.2295643,12.0646759 42.0003049,12.000466 L42,13.0842203 C42,13.5674694 41.6082492,13.9592203 41.125,13.9592203 C40.9891605,13.9592203 40.8551866,13.9275933 40.7336881,13.8668441 L36.5652476,11.7826238 C36.1330164,11.5665082 35.9578201,11.0409193 36.1739357,10.6086881 C36.2586039,10.4393516 36.3959111,10.3020444 36.5652476,10.2173762 L40.7336881,8.13315595 C41.1659193,7.91704036 41.6915082,8.09223666 41.9076238,8.52446784 Z M43.9802306,15.8947803 L44.6880592,16.0558809 C44.9667612,16.119313 45.1537073,16.3815128 45.1228332,16.6656698 L44.9658952,18.1100876 C44.9401144,18.3473682 45.0667479,18.57512 45.2819052,18.6784353 L46.0968966,19.0697816 C46.3141781,19.1741168 46.5737722,19.1285655 46.7425512,18.9564878 L47.7409896,17.9385354 C47.9429383,17.7326396 48.2678197,17.7126423 48.4934952,17.8922166 L49.0656045,18.3474549 C49.2880655,18.5244714 49.3436542,18.839561 49.1951971,19.0820156 L48.4440179,20.308813 C48.3194341,20.5122787 48.3366163,20.7721761 48.4869016,20.9574698 L49.0954227,21.7077431 C49.2457809,21.8931266 49.4966958,21.9635503 49.7215585,21.8834792 L51.0610055,21.4065171 C51.3300261,21.3107219 51.6281572,21.4315035 51.7546444,21.6875305 L52.0785531,22.3431651 C52.2053202,22.5997586 52.1194145,22.9106273 51.8788815,23.0657208 L50.697205,23.8276549 C50.4951238,23.957955 50.3980937,24.2022085 50.4556742,24.4356595 L50.7061996,25.4513764 C50.7624335,25.6793678 50.9542658,25.8485139 51.1875037,25.8757611 L52.6255852,26.0437601 C52.8996129,26.0757724 53.1100742,26.3016375 53.1226828,26.5772404 L53.1498847,27.1718264 L53.1502809,27.212261 L53.1426249,27.5053098 C53.1379281,27.6850875 53.0018014,27.8340781 52.8231771,27.8549453 L51.2619181,28.037334 C51.0192302,28.0656852 50.8225307,28.2473341 50.7749914,28.4870031 L50.5579908,29.5810115 C50.5130543,29.807559 50.6110357,30.0385723 50.8051443,30.1637318 L52.0363864,30.9576253 C52.2704033,31.1085173 52.35897,31.4078105 52.2447513,31.6617522 L51.9634812,32.287098 C51.8431408,32.5546501 51.53752,32.6849527 51.261149,32.5865401 L49.9707706,32.1270508 C49.7386603,32.0443989 49.4797708,32.1222719 49.3317746,32.3192584 L48.6360192,33.245326 C48.4973073,33.429955 48.4854053,33.6805675 48.6059957,33.8775112 L49.3807769,35.1428548 C49.5264058,35.3806903 49.4759774,35.6892972 49.2622171,35.8684062 L48.7644063,36.2855201 C48.5391589,36.474254 48.2066414,36.4580059 48.0008679,36.2482105 L47.0250156,35.2532856 C46.8531669,35.0780782 46.5876253,35.0343712 46.368687,35.1452569 L45.3178282,35.6774851 C45.1087935,35.7833549 44.9871824,36.0076228 45.0124922,36.2405678 L45.1719027,37.7077415 C45.202562,37.9899216 45.0183758,38.2507981 44.742208,38.3163496 L44.134779,38.4605297 C43.8530263,38.5274069 43.5664938,38.3696491 43.4723343,38.0958041 L43.0118439,36.7565538 C42.9299233,36.5183029 42.6996925,36.3634788 42.4481403,36.377478 L41.912093,36.4073097 L41.8495249,36.4073097 L41.3134777,36.377478 C41.0619254,36.3634788 40.8316947,36.5183029 40.7497741,36.7565538 L40.2892836,38.0958041 C40.1951242,38.3696491 39.9085916,38.5274069 39.626839,38.4605297 L39.01941,38.3163496 C38.7432422,38.2507981 38.559056,37.9899216 38.5897153,37.7077415 L38.7491257,36.2405678 C38.7744355,36.0076228 38.6528245,35.7833549 38.4437898,35.6774851 L37.392931,35.1452569 C37.1739926,35.0343712 36.908451,35.0780782 36.7366023,35.2532856 L35.7607501,36.2482105 C35.5549765,36.4580059 35.222459,36.474254 34.9972117,36.2855201 L34.4994009,35.8684062 C34.2856406,35.6892972 34.2352122,35.3806903 34.380841,35.1428548 L35.1556223,33.8775112 C35.2762127,33.6805675 35.2643107,33.429955 35.1255988,33.245326 L34.4298433,32.3192584 C34.2818472,32.1222719 34.0229577,32.0443989 33.7908474,32.1270508 L32.500469,32.5865401 C32.224098,32.6849527 31.9184772,32.5546501 31.7981368,32.287098 L31.5168667,31.6617522 C31.402648,31.4078105 31.4912147,31.1085173 31.7252316,30.9576253 L32.9564737,30.1637318 C33.1505823,30.0385723 33.2485637,29.807559 33.2036272,29.5810115 L32.9866266,28.4870031 C32.9390873,28.2473341 32.7423878,28.0656852 32.4996998,28.037334 L30.9384409,27.8549453 C30.7598165,27.8340781 30.6236899,27.6850875 30.6189931,27.5053098 L30.611337,27.212261 L30.6117333,27.1718264 L30.6389351,26.5772404 C30.6515438,26.3016375 30.8620051,26.0757724 31.1360328,26.0437601 L32.5741143,25.8757611 C32.8073522,25.8485139 32.9991845,25.6793678 33.0554183,25.4513764 L33.3059438,24.4356595 C33.3635242,24.2022085 33.2664942,23.957955 33.064413,23.8276549 L31.8827365,23.0657208 C31.6422035,22.9106273 31.5562978,22.5997586 31.6830648,22.3431651 L32.0069736,21.6875305 C32.1334607,21.4315035 32.4315919,21.3107219 32.7006125,21.4065171 L34.0400595,21.8834792 C34.2649222,21.9635503 34.5158371,21.8931266 34.6661953,21.7077431 L35.2747164,20.9574698 C35.4250017,20.7721761 35.4421839,20.5122787 35.3176,20.308813 L34.5664209,19.0820156 C34.4179637,18.839561 34.4735524,18.5244714 34.6960135,18.3474549 L35.2681228,17.8922166 C35.4937983,17.7126423 35.8186797,17.7326396 36.0206284,17.9385354 L37.0190668,18.9564878 C37.1878458,19.1285655 37.4474399,19.1741168 37.6647214,19.0697816 L38.4797127,18.6784353 C38.6948701,18.57512 38.8215036,18.3473682 38.7957227,18.1100876 L38.6387848,16.6656698 C38.6079107,16.3815128 38.7948568,16.119313 39.0735588,16.0558809 L39.7813873,15.8947803 C40.0618019,15.8309585 40.3452419,15.9887285 40.4387526,16.2606868 L40.8998058,17.6036874 C40.9815498,17.8393335 41.2085938,17.9931097 41.4577489,17.9815806 C41.6296995,17.9724732 41.770722,17.9679993 41.880809,17.9679993 C41.9542003,17.9679993 42.0413407,17.9699877 42.1422303,17.9739645 L42.3038691,17.9815806 C42.5530241,17.9931097 42.7800682,17.8393335 42.8618122,17.6036874 L43.3228654,16.2606868 C43.416376,15.9887285 43.6998161,15.8309585 43.9802306,15.8947803 Z M43.589163,28.4501502 C42.5061959,30.3306424 42.6242249,32.5758791 43.7053158,34.2935511 C46.8685099,33.4808056 49.2066475,30.6036812 49.2066475,27.1790775 C49.2066475,26.6565834 49.1522208,26.1468334 49.0477674,25.6539861 C46.9063886,25.4337 44.7351551,26.4602299 43.589163,28.4501502 Z M34.8145782,25.6446015 L34.7135536,25.6552148 C34.6100738,26.1468334 34.5556471,26.6565834 34.5556471,27.1790775 C34.5556471,30.6036812 36.8937848,33.4808056 40.0576335,34.293187 C41.1380697,32.5758791 41.2560987,30.3306424 40.1731316,28.4501502 C39.0449843,26.4912159 36.923276,25.4659027 34.8145782,25.6446015 Z M41.8811611,26.0484264 C41.2587361,26.0484264 40.754161,26.5542747 40.754161,27.1782703 C40.754161,27.8022659 41.2587361,28.3081143 41.8811611,28.3081143 C42.503586,28.3081143 43.0081611,27.8022659 43.0081611,27.1782703 C43.0081611,26.5542747 42.503586,26.0484264 41.8811611,26.0484264 Z M41.8811473,19.8350917 C39.8472095,19.8350917 38.006877,20.6661058 36.6785323,22.0091082 C37.528033,24.0499487 39.5375051,25.4843115 41.8811473,25.4843115 C44.2247895,25.4843115 46.2342616,24.0499487 47.0827503,22.0079331 C45.7554177,20.6661058 43.9150851,19.8350917 41.8811473,19.8350917 Z" id="path-29"></path>
        <filter x="-4.4%" y="-4.2%" width="108.8%" height="108.3%" filterUnits="objectBoundingBox" id="filter-30">
            <feOffset dx="0" dy="0" in="SourceAlpha" result="shadowOffsetOuter1"></feOffset>
            <feGaussianBlur stdDeviation="0.5" in="shadowOffsetOuter1" result="shadowBlurOuter1"></feGaussianBlur>
            <feColorMatrix values="0 0 0 0 0   0 0 0 0 0   0 0 0 0 0  0 0 0 0.103445627 0" type="matrix" in="shadowBlurOuter1"></feColorMatrix>
        </filter>
        <filter x="-4.4%" y="-4.2%" width="108.8%" height="108.3%" filterUnits="objectBoundingBox" id="filter-31">
            <feGaussianBlur stdDeviation="0.5" in="SourceAlpha" result="shadowBlurInner1"></feGaussianBlur>
            <feOffset dx="0" dy="0" in="shadowBlurInner1" result="shadowOffsetInner1"></feOffset>
            <feComposite in="shadowOffsetInner1" in2="SourceAlpha" operator="arithmetic" k2="-1" k3="1" result="shadowInnerInner1"></feComposite>
            <feColorMatrix values="0 0 0 0 1   0 0 0 0 1   0 0 0 0 1  0 0 0 0.3 0" type="matrix" in="shadowInnerInner1"></feColorMatrix>
        </filter>
        <linearGradient x1="50%" y1="0%" x2="50%" y2="100%" id="linearGradient-32">
            <stop stop-color="#FFCC73" offset="0%"></stop>
            <stop stop-color="#FE5F2D" offset="100%"></stop>
        </linearGradient>
        <circle id="path-33" cx="18" cy="18" r="18"></circle>
        <filter x="-18.1%" y="-15.3%" width="136.1%" height="136.1%" filterUnits="objectBoundingBox" id="filter-34">
            <feOffset dx="0" dy="1" in="SourceAlpha" result="shadowOffsetOuter1"></feOffset>
            <feGaussianBlur stdDeviation="2" in="shadowOffsetOuter1" result="shadowBlurOuter1"></feGaussianBlur>
            <feColorMatrix values="0 0 0 0 0   0 0 0 0 0   0 0 0 0 0  0 0 0 0.1 0" type="matrix" in="shadowBlurOuter1"></feColorMatrix>
        </filter>
        <filter x="-18.1%" y="-15.3%" width="136.1%" height="136.1%" filterUnits="objectBoundingBox" id="filter-35">
            <feGaussianBlur stdDeviation="2" in="SourceAlpha" result="shadowBlurInner1"></feGaussianBlur>
            <feOffset dx="0" dy="-1" in="shadowBlurInner1" result="shadowOffsetInner1"></feOffset>
            <feComposite in="shadowOffsetInner1" in2="SourceAlpha" operator="arithmetic" k2="-1" k3="1" result="shadowInnerInner1"></feComposite>
            <feColorMatrix values="0 0 0 0 0.781231866   0 0 0 0 0.23593971   0 0 0 0 0.0079157783  0 0 0 1 0" type="matrix" in="shadowInnerInner1"></feColorMatrix>
        </filter>
        <path d="M8.03910068,4.47458439 C3.67155425,4.47458439 0.129814259,7.95026854 0.129814259,12.2376921 C0.129814259,16.5243159 3.67233626,20 8.04066471,20 C12.4097752,20 15.9515152,16.5243159 15.9515152,12.2376921 C15.9515152,7.95026854 12.4089932,4.47458439 8.04066471,4.47458439 L8.03910068,4.47458439 Z M12.1071359,11.5451144 L10.5478006,13.0374353 L10.915347,15.143959 C11.0396872,15.850932 10.627566,16.1596329 9.96754643,15.8197421 L8.03988271,14.8248614 L6.11221896,15.8197421 C5.46471163,16.153235 5.03773215,15.8645277 5.16363636,15.143959 L5.53196481,13.0374353 L3.97262952,11.5451144 C3.44868035,11.0444751 3.59648093,10.5566318 4.33470186,10.4518654 L6.48993157,10.1439642 L7.45415445,8.22777944 C7.7771261,7.58398613 8.29560118,7.57198998 8.62561095,8.22777944 L9.58983382,10.1439642 L11.7450635,10.4518654 C12.4692082,10.5550323 12.6412512,11.0340785 12.1071359,11.5451144 L12.1071359,11.5451144 Z M15.4346041,1.0401782e-05 L10.5438905,1.0401782e-05 C10.2915048,-0.00154677182 10.0701183,0.171877423 10.0058651,0.421485627 L8.49814271,3.33894899 C8.49814271,3.33894899 11.7262952,3.52928788 13.6336266,5.33110941 L15.885826,0.871741075 C15.9569138,0.781584482 15.9970331,0.670019576 16,0.554243013 C16,0.247941349 15.7466276,1.0401782e-05 15.4346041,1.0401782e-05 L15.4346041,1.0401782e-05 Z M7.50185729,3.33894899 L5.99413489,0.421485627 C5.92988174,0.171877423 5.70849516,-0.00154677182 5.45610947,1.0401782e-05 L0.565395876,1.0401782e-05 C0.252590403,1.0401782e-05 0,0.247941349 0,0.554243013 C0,0.675004251 0.0469208209,0.781370085 0.114173986,0.871741075 L2.36637341,5.33110941 C4.27292277,3.52928788 7.50185729,3.33894899 7.50185729,3.33894899 Z" id="path-36"></path>
        <filter x="-43.8%" y="-25.0%" width="187.5%" height="170.0%" filterUnits="objectBoundingBox" id="filter-37">
            <feOffset dx="0" dy="2" in="SourceAlpha" result="shadowOffsetOuter1"></feOffset>
            <feGaussianBlur stdDeviation="2" in="shadowOffsetOuter1" result="shadowBlurOuter1"></feGaussianBlur>
            <feColorMatrix values="0 0 0 0 0.433285921   0 0 0 0 0.161567903   0 0 0 0 0  0 0 0 0.306611601 0" type="matrix" in="shadowBlurOuter1"></feColorMatrix>
        </filter>
        <filter x="-28.1%" y="-12.5%" width="156.2%" height="145.0%" filterUnits="objectBoundingBox" id="filter-38">
            <feGaussianBlur stdDeviation="0.5" in="SourceAlpha" result="shadowBlurInner1"></feGaussianBlur>
            <feOffset dx="0" dy="0" in="shadowBlurInner1" result="shadowOffsetInner1"></feOffset>
            <feComposite in="shadowOffsetInner1" in2="SourceAlpha" operator="arithmetic" k2="-1" k3="1" result="shadowInnerInner1"></feComposite>
            <feColorMatrix values="0 0 0 0 0.978475819   0 0 0 0 0.563682713   0 0 0 0 0.313662748  0 0 0 1 0" type="matrix" in="shadowInnerInner1"></feColorMatrix>
        </filter>
    </defs>
    <g id="picture/nice_service-light" stroke="none" stroke-width="1" fill="none" fill-rule="evenodd">
        <path d="M123.070959,95 C180.308714,95 228.415034,118.362433 242.141919,150.00008 L4,150.00008 C17.7268846,118.362433 65.8332049,95 123.070959,95 Z" id="形状结合" fill="url(#linearGradient-1)"></path>
        <g id="小元素" transform="translate(52, 1)">
            <g id="矩形" opacity="0.8" transform="translate(21, 23) rotate(-315) translate(-21, -23)">
                <use fill="url(#linearGradient-2)" fill-rule="evenodd" xlink:href="#path-3"></use>
                <use fill="black" fill-opacity="1" filter="url(#filter-4)" xlink:href="#path-3"></use>
            </g>
            <g id="矩形" opacity="0.701519775" transform="translate(130, 47.1213) rotate(-315) translate(-130, -47.1213)">
                <use fill="url(#linearGradient-2)" fill-rule="evenodd" xlink:href="#path-5"></use>
                <use fill="black" fill-opacity="1" filter="url(#filter-6)" xlink:href="#path-5"></use>
            </g>
            <g id="矩形">
                <use fill="url(#linearGradient-2)" fill-rule="evenodd" xlink:href="#path-7"></use>
                <use fill="black" fill-opacity="1" filter="url(#filter-8)" xlink:href="#path-7"></use>
            </g>
            <g id="矩形">
                <use fill="url(#linearGradient-2)" fill-rule="evenodd" xlink:href="#path-9"></use>
                <use fill="black" fill-opacity="1" filter="url(#filter-10)" xlink:href="#path-9"></use>
            </g>
            <g id="矩形">
                <use fill="url(#linearGradient-11)" fill-rule="evenodd" xlink:href="#path-12"></use>
                <use fill="black" fill-opacity="1" filter="url(#filter-13)" xlink:href="#path-12"></use>
            </g>
        </g>
        <g id="电脑" transform="translate(83, 27)">
            <ellipse id="椭圆形" fill-opacity="0.12" fill="#000000" filter="url(#filter-14)" cx="42.0149068" cy="70.1893876" rx="25.7701987" ry="3.81061244"></ellipse>
            <g id="矩形" fill-rule="nonzero">
                <use fill="url(#linearGradient-15)" xlink:href="#path-16"></use>
                <use fill="black" fill-opacity="1" filter="url(#filter-17)" xlink:href="#path-16"></use>
            </g>
            <g id="矩形" fill-rule="nonzero">
                <use fill="#F0F0F0" xlink:href="#path-18"></use>
                <use fill="black" fill-opacity="1" filter="url(#filter-19)" xlink:href="#path-18"></use>
            </g>
            <g id="矩形">
                <use fill="black" fill-opacity="1" filter="url(#filter-22)" xlink:href="#path-21"></use>
                <use fill="url(#linearGradient-20)" fill-rule="evenodd" xlink:href="#path-21"></use>
                <use fill="black" fill-opacity="1" filter="url(#filter-23)" xlink:href="#path-21"></use>
            </g>
            <mask id="mask-26" fill="white">
                <use xlink:href="#path-25"></use>
            </mask>
            <g id="矩形" fill-rule="nonzero">
                <use fill="url(#linearGradient-24)" xlink:href="#path-25"></use>
                <use fill="black" fill-opacity="1" filter="url(#filter-27)" xlink:href="#path-25"></use>
            </g>
            <g id="形状结合" fill-rule="nonzero" mask="url(#mask-26)">
                <use fill="black" fill-opacity="1" filter="url(#filter-30)" xlink:href="#path-29"></use>
                <use fill="url(#linearGradient-28)" xlink:href="#path-29"></use>
                <use fill="black" fill-opacity="1" filter="url(#filter-31)" xlink:href="#path-29"></use>
            </g>
        </g>
        <g id="叹号" transform="translate(146, 65)" fill-rule="nonzero">
            <g id="椭圆形" transform="translate(18, 18) rotate(-360) translate(-18, -18)">
                <use fill="black" fill-opacity="1" filter="url(#filter-34)" xlink:href="#path-33"></use>
                <use fill="url(#linearGradient-32)" xlink:href="#path-33"></use>
                <use fill="black" fill-opacity="1" filter="url(#filter-35)" xlink:href="#path-33"></use>
            </g>
            <g id="形状" transform="translate(10, 8)">
                <use fill="black" fill-opacity="1" filter="url(#filter-37)" xlink:href="#path-36"></use>
                <use fill="#FFFFFF" xlink:href="#path-36"></use>
                <use fill="black" fill-opacity="1" filter="url(#filter-38)" xlink:href="#path-36"></use>
            </g>
        </g>
    </g>
</svg>