<?xml version="1.0" encoding="UTF-8"?>
<svg width="120px" height="120px" viewBox="0 0 120 120" version="1.1" xmlns="http://www.w3.org/2000/svg" xmlns:xlink="http://www.w3.org/1999/xlink">
    <title>picture/nice service/light</title>
    <g id="picture/nice-service/light" stroke="none" stroke-width="1" fill="none" fill-rule="evenodd">
        <path d="M67.362,22.9997989 L75.3333333,23 C81.2243707,23 86,27.7756293 86,33.6666667 L86.0003141,44.3052752 C82.0282962,49.5893678 78.9552091,55.5496087 77.2431044,61.9392703 L76.9302983,63.1313532 C76.2183916,65.903372 75.6327124,68.6072928 75.1818566,71.2107123 L75.0917076,71.7484747 L74.3931788,72.181816 C73.8477235,71.4637004 72.9846799,71 72.0133333,71 L28.9866667,71 C27.3371762,71 26,72.3371762 26,73.9866667 L26,74.0133333 C26,75.6628238 27.3371762,77 28.9866667,77 L67.484,77 L67.2918885,77.5885927 L64.537,86 L28.9866667,86 C27.3371762,86 26,87.3371762 26,88.9866667 L26,89.0133333 C26,90.6628238 27.3371762,92 28.9866667,92 L62.573,92 L62.3676733,92.6280886 L62.0455975,93.61177 C61.8770119,94.1266627 61.8510092,94.6775992 61.9703505,95.2060812 C62.33531,96.8222404 63.941324,97.8365382 65.5574832,97.4715788 L66.5519591,97.2470072 L79.2770547,94.37328 L80.1420562,94.6038169 L79.9308835,95.9326876 L79.8951197,96.1961511 C79.8260379,96.8098641 79.856968,97.4154689 79.9761847,97.9948423 L79.9923964,98.063107 L79.8941196,98.1109097 C77.9503957,99.0777111 76.3875207,100.793707 75.662707,102.993965 C75.5546441,102.998309 75.4441862,103 75.3333333,103 L24.6666667,103 C18.7756293,103 14,98.2243707 14,92.3333333 L14,33.6666667 C14,27.7756293 18.7756293,23 24.6666667,23 L32.637,22.9997989 L32.0405068,26.9339158 C32.0135416,27.1115012 32,27.2909136 32,27.4705882 C32,29.4198285 33.5596016,31 35.4834677,31 L64.5160419,31 C64.6933777,31 64.8704546,30.9862798 65.0457282,30.9589589 C66.947223,30.6625629 68.2515405,28.8604898 67.9590028,26.9339158 L67.362,22.9997989 Z M72.0133333,56 L28.9866667,56 C27.3371762,56 26,57.3371762 26,58.9866667 L26,59.0133333 C26,60.6628238 27.3371762,62 28.9866667,62 L72.0133333,62 C73.6628238,62 75,60.6628238 75,59.0133333 L75,58.9866667 C75,57.3371762 73.6628238,56 72.0133333,56 Z M31,39 C28.2385763,39 26,41.2385763 26,44 C26,46.7614237 28.2385763,49 31,49 C33.7614237,49 36,46.7614237 36,44 C36,41.2385763 33.7614237,39 31,39 Z M71.0133333,41 L44.9866667,41 C43.3371762,41 42,42.3371762 42,43.9866667 L42,44.0133333 C42,45.6628238 43.3371762,47 44.9866667,47 L71.0133333,47 C72.6628238,47 74,45.6628238 74,44.0133333 L74,43.9866667 C74,42.3371762 72.6628238,41 71.0133333,41 Z M50,12 C53.1710037,12 55.8495435,14.1084885 56.7101075,16.9999537 L61.2244107,17 C62.9971527,17 64.499065,18.3058381 64.745456,20.0613738 L65.7158079,26.9751313 C65.8522724,27.9474411 65.174686,28.8462803 64.2023762,28.9827448 C64.1205139,28.9942343 64.0379499,29 63.9552853,29 L36.0447147,29 C35.0628752,29 34.2669369,28.2040618 34.2669369,27.2222222 C34.2669369,27.1395576 34.2727027,27.0569936 34.2841921,26.9751313 L35.254544,20.0613738 C35.500935,18.3058381 37.0028473,17 38.7755893,17 L43.2898925,16.9999537 C44.1504565,14.1084885 46.8289963,12 50,12 Z M50,15 C48.3431458,15 47,16.3431458 47,18 C47,19.6568542 48.3431458,21 50,21 C51.6568542,21 53,19.6568542 53,18 C53,16.3431458 51.6568542,15 50,15 Z" id="形状结合" fill="#E5E5E5" fill-rule="nonzero"></path>
        <path d="M78.5665901,105.249825 C79.3968365,102.151304 82.4484127,100.27678 85.3824763,101.06296 C88.3165398,101.84914 90.0220206,104.998313 89.1917742,108.096835 C88.41516,110.954883 83.226769,117.711207 81.1470721,117.173526 C79.0673927,116.635779 77.7853058,108.165618 78.5665901,105.249825 Z M103.499809,33.4481524 C104.939627,33.8339502 113.200648,51.6981973 108.374115,69.7110645 C107.341618,73.5643976 106.141547,77.2055493 104.804371,80.5252556 L104.83432,80.4507935 L108.410295,87.183174 C108.849797,88.0107743 108.984793,88.9664087 108.791733,89.8833666 L106.550863,100.52661 C106.323292,101.607482 105.262589,102.299219 104.181716,102.071648 C103.826824,101.996928 103.498929,101.827113 103.233122,101.580378 L95.64466,94.5355769 L96.3856085,94.7348122 L92.0788639,93.5791068 L96.8883034,81.0062785 C96.9439981,80.8606492 96.9946473,80.7131507 97.0401629,80.5640547 L97.1045751,80.3392468 C98.06077,76.7706789 95.981853,73.1130382 92.4611841,72.1696778 C92.2382788,72.1099505 92.0123516,72.0621149 91.7843334,72.026368 C88.18291,71.4617658 84.7912666,73.9611231 84.208886,77.6088389 L82.0863613,90.9016237 L79.759907,90.2782522 L69.6646545,92.5857347 C69.3700186,92.6530475 69.0647509,92.6525413 68.7716969,92.5852618 L68.5975129,92.5368898 C67.5476644,92.1935359 66.9749373,91.0641223 67.3182911,90.0142737 L70.699262,79.6765198 C70.9905462,78.785881 71.5852733,78.0257752 72.379693,77.5288031 L78.8083164,73.5077827 C79.3278346,69.9836035 80.1194335,66.2508348 81.1470808,62.4156026 C85.9736141,44.4027355 101.777415,32.9866383 103.499809,33.4481524 Z M91.3161869,74.5816715 L91.3748943,74.5908725 L91.4430668,74.6029536 L91.5855819,74.6296499 C91.6537658,74.6441871 91.7215737,74.6604879 91.7889371,74.6785379 C93.9456276,75.2564214 95.2255036,77.4732317 94.6476202,79.6299222 C94.6115202,79.764649 94.5684722,79.8974173 94.5186488,80.0276945 L87.9454912,97.2150488 C87.5553806,98.2351019 86.4574833,98.7953665 85.4025903,98.5127088 C84.3476973,98.2300511 83.6770226,97.195899 83.8492034,96.1174518 L84.8491964,89.8498601 L86.740845,78.0057791 L86.7417477,77.9957701 L86.7503591,77.9461876 C87.0989801,75.7626153 89.1352857,74.2683773 91.3161869,74.5816715 Z M101,41 C99.8954305,41 99,41.8954305 99,43 C99,44.1045695 99.8954305,45 101,45 C102.104569,45 103,44.1045695 103,43 C103,41.8954305 102.104569,41 101,41 Z" id="形状结合" fill="#E5E5E5"></path>
    </g>
</svg>