<?xml version="1.0" encoding="UTF-8"?>
<svg width="120px" height="120px" viewBox="0 0 120 120" version="1.1" xmlns="http://www.w3.org/2000/svg" xmlns:xlink="http://www.w3.org/1999/xlink">
    <title>picture/update failure/light</title>
    <g id="picture/update-failure/light" stroke="none" stroke-width="1" fill="none" fill-rule="evenodd">
        <g id="编组" transform="translate(10.312000, 12.423446)">
            <path d="M81.688,56.5765544 C91.6291255,56.5765544 99.688,64.6354289 99.688,74.5765544 C99.688,84.5176799 91.6291255,92.5765544 81.688,92.5765544 C71.7468745,92.5765544 63.688,84.5176799 63.688,74.5765544 C63.688,64.6354289 71.7468745,56.5765544 81.688,56.5765544 Z M76.0311458,66.091273 C75.2500972,65.3102244 73.9837672,65.3102244 73.2027186,66.091273 C72.42167,66.8723216 72.42167,68.1386516 73.2027186,68.9197001 L78.8595729,74.5751402 L73.2027186,80.2334086 C72.42167,81.0144572 72.42167,82.2807872 73.2027186,83.0618358 C73.9837672,83.8428844 75.2500972,83.8428844 76.0311458,83.0618358 L81.688,77.4035673 L87.3448542,83.0618358 C88.1259028,83.8428844 89.3922328,83.8428844 90.1732814,83.0618358 C90.95433,82.2807872 90.95433,81.0144572 90.1732814,80.2334086 L84.5164271,74.5751402 L90.1732814,68.9197001 C90.95433,68.1386516 90.95433,66.8723216 90.1732814,66.091273 C89.3922328,65.3102244 88.1259028,65.3102244 87.3448542,66.091273 L81.688,71.7467131 Z" id="形状结合" fill="#FEC2C2" fill-rule="nonzero"></path>
            <path d="M2.83530862,46.6646914 C4.40120633,46.6646914 5.67061724,47.9341023 5.67061724,49.5 C5.67061724,70.9448759 23.0551241,88.3293828 44.5,88.3293828 C50.8579864,88.3293828 56.8590637,86.8012732 62.1559939,84.0922922 C62.7898573,85.8974104 63.6411718,87.6007839 64.6781672,89.1707273 C58.6220657,92.2593804 51.7643046,94 44.5,94 C19.9233286,94 0,74.0766714 0,49.5 C0,47.9341023 1.26941091,46.6646914 2.83530862,46.6646914 Z M49.6753666,20.612292 L51.5417872,21.0360254 C52.2681044,21.2009212 52.7553903,21.8841639 52.6747412,22.6245848 L52.2635123,26.3999814 C52.1961361,27.0185469 52.5265299,27.6122704 53.0877011,27.8810634 L55.2309084,28.907629 C55.7959287,29.1782656 56.4704804,29.0599968 56.909728,28.6132825 L59.5337928,25.9446114 C60.0594006,25.4100688 60.9035793,25.3581208 61.4907612,25.8241861 L62.9971399,27.0198475 C63.5780473,27.4809325 63.7231568,28.3031973 63.3351647,28.9352692 L61.3676926,32.1404475 C61.0420073,32.6710162 61.0868943,33.3494102 61.4796459,33.8324425 L63.0771053,35.7971052 C63.4685702,36.278555 64.1207223,36.4614403 64.7054462,36.2537466 L68.2267339,35.0029862 C68.9265653,34.7544063 69.7017358,35.0683583 70.0313491,35.7338739 L70.8826825,37.4527842 C71.2139985,38.1217376 70.9897983,38.9328268 70.3619473,39.3366486 L67.2639064,41.3292491 C66.736488,41.6684745 66.4831963,42.3055683 66.6337217,42.9143262 L67.2905206,45.5705672 C67.4372704,46.1640561 67.9368771,46.6041931 68.544131,46.6749563 L72.320179,47.1149788 C73.0339123,47.1981501 73.5821942,47.7863237 73.6151155,48.5041321 L73.6864633,50.0597778 C73.688076,50.0949411 73.6884219,50.1301512 73.6875003,50.1653394 L73.6674592,50.9305311 C73.6551653,51.399925 73.2996623,51.788885 72.8332633,51.8432344 L68.738768,52.3203656 C68.1068489,52.394003 67.5945253,52.8667627 67.4704471,53.4907409 L66.9016006,56.3514191 C66.7917121,56.9040387 67.0084363,57.4669349 67.4515482,57.8040211 C63.0123205,61.5744523 60.0891053,67.0777661 59.7262129,73.2690195 L57.6490037,71.156563 C57.2017669,70.7017237 56.5117688,70.5882392 55.9424159,70.8758792 L53.1819158,72.2704983 C52.6366663,72.5459611 52.3193471,73.1306275 52.3854952,73.7379175 L52.8031822,77.5726051 C52.8832718,78.3078887 52.4031614,78.9876933 51.6834277,79.1581036 L50.0798487,79.5377808 C49.3467472,79.7113562 48.6014123,79.3010944 48.3559003,78.5888514 L47.1472495,75.0824935 C46.933598,74.4626794 46.3344374,74.0600342 45.6798414,74.0963723 L44.2692661,74.1746767 C44.2151304,74.1776819 44.1608696,74.1776819 44.1067339,74.1746767 L42.6961586,74.0963723 C42.0415626,74.0600342 41.442402,74.4626794 41.2287505,75.0824935 L40.0200997,78.5888514 C39.7745877,79.3010944 39.0292528,79.7113562 38.2961513,79.5377808 L36.6925723,79.1581036 C35.9728386,78.9876933 35.4927282,78.3078887 35.5728178,77.5726051 L35.9905048,73.7379175 C36.0566529,73.1306275 35.7393337,72.5459611 35.1940842,72.2704983 L32.4335841,70.8758792 C31.8642312,70.5882392 31.1742331,70.7017237 30.7269963,71.156563 L28.1617789,73.7653865 C27.6262077,74.3100618 26.7621786,74.3522734 26.1760651,73.8623972 L24.8643632,72.7660711 C24.3061215,72.2994903 24.1744699,71.4941161 24.5550837,70.8740641 L26.5842831,67.5683269 C26.8995397,67.0547472 26.8684433,66.4005717 26.5058919,65.9192117 L24.6803312,63.4954125 C24.2949569,62.9837506 23.6220364,62.7814897 23.018428,62.9958912 L19.6251381,64.2011868 C18.9061358,64.4565762 18.111441,64.1178239 17.7978019,63.4222532 L17.0583437,61.7823259 C16.7598062,61.1202467 16.9909641,60.3393853 17.6018,59.9465074 L20.8295041,57.8705099 C21.3360931,57.5446817 21.591872,56.9421784 21.4743994,56.3514191 L20.9055529,53.4907409 C20.7814747,52.8667627 20.2691511,52.394003 19.637232,52.3203656 L15.5427367,51.8432344 C15.0763377,51.788885 14.7208347,51.399925 14.7085408,50.9305311 L14.6884997,50.1653394 C14.6875781,50.1301512 14.687924,50.0949411 14.6895367,50.0597778 L14.7608845,48.5041321 C14.7938058,47.7863237 15.3420877,47.1981501 16.055821,47.1149788 L19.831869,46.6749563 C20.4391229,46.6041931 20.9387296,46.1640561 21.0854794,45.5705672 L21.7422783,42.9143262 C21.8928037,42.3055683 21.639512,41.6684745 21.1120936,41.3292491 L18.0140527,39.3366486 C17.3862017,38.9328268 17.1620015,38.1217376 17.4933175,37.4527842 L18.3446509,35.7338739 C18.6742642,35.0683583 19.4494347,34.7544063 20.1492661,35.0029862 L23.6705538,36.2537466 C24.2552777,36.4614403 24.9074298,36.278555 25.2988947,35.7971052 L26.8963541,33.8324425 C27.2891057,33.3494102 27.3339927,32.6710162 27.0083074,32.1404475 L25.0408353,28.9352692 C24.6528432,28.3031973 24.7979527,27.4809325 25.3788601,27.0198475 L26.8852388,25.8241861 C27.4724207,25.3581208 28.3165994,25.4100688 28.8422072,25.9446114 L31.466272,28.6132825 C31.9055196,29.0599968 32.5800713,29.1782656 33.1450916,28.907629 L35.2882989,27.8810634 C35.8494701,27.6122704 36.1798639,27.0185469 36.1124877,26.3999814 L35.7012588,22.6245848 C35.6206097,21.8841639 36.1078956,21.2009212 36.8342128,21.0360254 L38.7006334,20.612292 C39.4302535,20.4466463 40.1675592,20.856939 40.4113822,21.5642822 L41.6227573,25.0785436 C41.8373287,25.6950841 42.4331572,26.0962688 43.0850873,26.0623647 C43.5331606,26.0391573 43.9007982,26.0275537 44.188,26.0275537 C44.4752018,26.0275537 44.8428394,26.0391573 45.2909127,26.0623647 C45.9428428,26.0962688 46.5386713,25.6950841 46.7532427,25.0785436 L47.9646178,21.5642822 C48.2084408,20.856939 48.9457465,20.4466463 49.6753666,20.612292 Z M25.4373575,46.095721 L25.4273581,46.0963965 C25.1560281,47.3810957 25.0133115,48.713232 25.0133115,50.0787023 C25.0133115,59.0209558 31.1340491,66.5336054 39.4151419,68.6551707 C42.2437805,64.1709938 42.5529215,58.3080279 39.7178956,53.397619 C36.7195061,48.2042559 31.0400783,45.5239731 25.4373575,46.095721 Z M48.6598756,53.397619 C45.8248497,58.3080279 46.1339908,64.1709938 48.963269,68.6555491 C57.2437222,66.5336054 63.3644597,59.0209558 63.3644597,50.0787023 C63.3644597,48.713232 63.2217431,47.3810957 62.9504179,46.0967453 C57.3444547,45.5207833 51.6600498,48.2011648 48.6598756,53.397619 Z M45.4447602,1.27412458 C45.6047217,1.5940475 45.688,1.94682001 45.688,2.30450471 L45.6892383,5.0155828 C69.7161777,5.6459404 89,25.3209812 89,49.5 C89,50.9094943 88.9344697,52.3036831 88.8062894,53.679686 C87.27235,53.3594974 85.6833014,53.1918081 84.0550868,53.1918081 C83.7530164,53.1918081 83.452294,53.1975797 83.1530239,53.2090187 C83.2702003,51.9886476 83.3293828,50.7512352 83.3293828,49.5 C83.3293828,28.4528107 66.5836749,11.3167911 45.6887859,10.688468 L45.688,12.8486041 C45.688,14.1210681 44.6564641,15.1526041 43.384,15.1526041 C43.0263153,15.1526041 42.6735428,15.0693258 42.3536199,14.9093643 L31.8095205,9.63731464 C30.671394,9.06825142 30.2100771,7.68430073 30.7791404,6.54617427 C31.0020839,6.10028714 31.3636334,5.73873772 31.8095205,5.51579415 L42.3536199,0.243744458 C43.4917463,-0.325318771 44.875697,0.135998124 45.4447602,1.27412458 Z M44.1889216,47.1264466 C42.5596328,47.1264466 41.2388333,48.4472729 41.2388333,50.0765948 C41.2388333,51.7059166 42.5596328,53.0267429 44.1889216,53.0267429 C45.8182104,53.0267429 47.1390099,51.7059166 47.1390099,50.0765948 C47.1390099,48.4472729 45.8182104,47.1264466 44.1889216,47.1264466 Z M44.1888856,30.9027396 C38.8637032,30.9027396 34.0455109,33.0734665 30.5703677,36.5795586 C32.7941138,41.9083027 38.054142,45.6534801 44.1888856,45.6534801 C50.3236292,45.6534801 55.5836574,41.9083027 57.8069041,36.5783451 C54.3322603,33.0734665 49.514068,30.9027396 44.1888856,30.9027396 Z" id="形状结合" fill="#E5E5E5"></path>
        </g>
    </g>
</svg>