<?xml version="1.0" encoding="UTF-8"?>
<svg width="276px" height="57px" viewBox="0 0 276 57" version="1.1" xmlns="http://www.w3.org/2000/svg" xmlns:xlink="http://www.w3.org/1999/xlink">
    <title>画板</title>
    <g id="画板" stroke="none" stroke-width="1" fill="none" fill-rule="evenodd">
        <g id="编组" transform="translate(28, 0)" fill="#FFFFFF">
            <path d="M75.4974608,12.2183585 C84.2554881,12.2183585 84.9050459,19.3429181 84.9193421,21.2859798 L84.9188235,21.4708435 C84.9162344,21.6629502 84.9080192,21.7703997 84.9080192,21.7703997 L84.9087161,27.157228 C84.9118422,27.1819034 84.9245846,27.2913433 84.9283925,27.4631572 L84.9290357,27.6251792 C84.910959,28.9470752 84.3046086,32.5822893 78.1815719,32.5822893 L51.2218853,32.5822893 C51.2232327,32.5822893 51.1868517,35.1712237 51.2218853,35.3436384 C51.2218853,35.3436384 51.1801145,37.9909494 53.8952169,37.9909494 C53.9171733,37.9909494 53.9432213,37.9909529 53.9732522,37.99096 L55.9605563,37.9921235 C56.059395,37.992191 56.1611314,37.992261 56.2656572,37.9923335 L58.0291741,37.993595 C58.1588796,37.99369 58.2908318,37.9937869 58.4249221,37.9938858 L59.6865354,37.994825 C59.832478,37.9949346 59.9802332,37.9950458 60.1296925,37.9951586 L61.5179062,37.9962132 C61.6766133,37.9963345 61.8366989,37.9964571 61.9980546,37.9965809 L63.4816152,37.9977245 C63.6496142,37.9978545 63.8185576,37.9979855 63.9883369,37.9981174 L65.016176,37.9989175 C65.1888649,37.9990522 65.3621728,37.9991876 65.535991,37.9993236 L66.5841567,38.0001451 C66.7595823,38.0002829 66.9353012,38.000421 67.111205,38.0005594 L68.6963988,38.0018101 C68.8724348,38.0019494 69.04833,38.0020886 69.2239759,38.0022278 L70.2739923,38.0030608 C70.4482071,38.0031992 70.6219556,38.0033374 70.7951293,38.0034752 L71.8264053,38.0042967 C71.9968456,38.0044326 72.1664941,38.004568 72.3352422,38.0047028 L73.3360579,38.0055029 C73.5007703,38.0056347 73.6643654,38.0057657 73.8267345,38.0058958 L75.2520261,38.0070394 C75.4060629,38.0071632 75.5585482,38.0072857 75.7093735,38.007407 L77.0190507,38.0084616 C77.1589392,38.0085744 77.2968422,38.0086856 77.4326511,38.0087952 L78.5954603,38.0097345 C78.7177279,38.0098333 78.8375759,38.0099303 78.9548957,38.0100252 L80.5115153,38.0112867 C80.6008405,38.0113592 80.6870948,38.0114293 80.7701699,38.0114967 L82.2131284,38.0126709 C82.2131284,38.0126709 83.5807855,38.0343924 83.5807855,39.3919878 L83.5817465,40.0919875 C83.5818935,40.1751125 83.5820539,40.2630177 83.5822253,40.3546398 L83.5833657,40.9404683 C83.5848037,41.6561228 83.5865373,42.4497002 83.5877199,42.9564862 L83.5885789,43.3121331 L83.5888701,43.4213309 C83.5902176,43.5475873 83.5821329,44.8006478 82.1915693,44.8006478 L52.6111014,44.7572048 L52.5488856,44.7564636 C51.7329398,44.7396699 43.1655095,44.3475989 43.1655095,35.2866193 C43.1655095,35.0627971 43.1655065,34.8444083 43.1655007,34.6311503 L43.1641621,27.8610817 C43.1641171,27.7321893 43.1640722,27.6041922 43.1640275,27.4767878 L43.1628146,21.6441433 C43.1628146,21.6441433 42.4634905,12.2183585 52.7849219,12.2183585 L75.4974608,12.2183585 Z M67.8365496,19.0266464 L54.9055937,19.0266464 C54.8242543,19.0266464 54.7471245,19.0267677 54.6743997,19.026833 L53.9383351,19.028057 C52.5275598,19.0321298 51.2272751,20.3856524 51.2272751,21.7636117 C51.2272751,21.7869269 51.2272649,21.8158753 51.2272454,21.8499228 L51.2260812,22.898169 C51.225982,22.9741863 51.2258788,23.0520994 51.2257725,23.1313743 L51.2247558,23.8672022 C51.2246389,23.9498429 51.2245215,24.0322437 51.2244045,24.1138707 L51.2233879,24.8132053 C51.2232816,24.8853843 51.2231783,24.9551877 51.2230791,25.0220816 L51.2218853,25.8160339 L62.5118668,25.8147362 C62.6868757,25.8147162 62.8621239,25.8146963 63.0374652,25.8146763 L75.446335,25.8133205 L75.4988082,25.8133187 C76.8017879,25.8133187 76.8017879,24.4584385 76.8017879,24.4584385 C76.8017879,23.4483876 76.8179572,22.8008146 76.8233709,21.7432477 C76.8300842,20.4060163 75.4125717,19.028057 74.1917862,19.028057 L68.3153927,19.0267844 C68.1573666,19.0267516 67.9976871,19.0267188 67.8365496,19.0266464 L67.8365496,19.0266464 Z M39.0814026,0 C39.0814026,0 40.4423224,0 40.4423224,1.35759539 L40.4423224,38.0343924 L40.441041,38.0967994 C40.4200428,38.7766138 40.0550717,44.7816415 33.7131803,44.7816415 L31.799311,44.7803266 C31.7271714,44.7802235 31.6557765,44.7801153 31.5850488,44.7800021 L31.1680733,44.7792663 C31.099706,44.7791346 31.0318516,44.7789987 30.9644328,44.7788587 L30.5645287,44.7779734 C30.4985432,44.7778186 30.4328388,44.7776605 30.3673381,44.7774993 L29.976162,44.7764974 C29.9111676,44.776325 29.8462225,44.7761502 29.7812494,44.7759732 L29.3904575,44.7748876 C29.063488,44.7739654 28.7319568,44.773004 28.386207,44.7720418 L27.9638642,44.7708892 C27.7486622,44.7703151 27.526951,44.7697462 27.2966444,44.7691906 L26.823953,44.7680999 C26.5812591,44.7675659 26.3285794,44.7670508 26.0638278,44.7665629 L25.5176111,44.7656255 C25.4236863,44.7654762 25.3282657,44.7653304 25.2312721,44.7651886 L24.3137702,44.7640265 C24.2066428,44.763911 24.0977105,44.7638003 23.9868962,44.7636948 L22.5618388,44.7626955 C22.4347315,44.762636 22.3054332,44.762583 22.1738664,44.7625366 L19.5439926,44.7624885 C19.3824241,44.7625332 19.2181236,44.7625864 19.051014,44.7626484 L16.9059141,44.7638349 C16.715095,44.7639723 16.5211577,44.7641197 16.324025,44.7642775 L15.1022651,44.7653504 C2.27997509,44.7789263 0.0135720076,33.7783309 4.8580504e-05,28.5285095 C-0.0120294541,23.2786881 2.2206875,12.2142857 14.9014957,12.2183585 C15.88558,12.218811 16.8688408,12.219075 17.8504797,12.219207 L23.7144621,12.2188676 C24.6864193,12.2186979 25.6551577,12.2185093 26.6198786,12.2183585 L32.353608,12.2183585 L32.3548374,9.77263351 C32.3548923,9.6634099 32.3549483,9.5518544 32.3550053,9.43825455 L32.3561105,7.23477696 C32.3561745,7.10699647 32.3562387,6.97889688 32.3563029,6.85076573 L32.3576004,4.25400001 C32.3576574,4.13951665 32.3577135,4.02701453 32.3577683,3.91678118 L32.3589887,1.4253654 L32.3589978,1.39968085 C32.3589978,0 33.709138,0 33.709138,0 C33.7366002,0 33.7723182,0 33.8155059,0 L38.9748514,0 L39.0814026,0 Z M17.8780025,19.0375601 C14.1280621,19.0375601 8.12115071,20.202377 8.12519101,28.6153956 C8.12788794,37.0270566 13.5324913,38.0031677 17.9413325,38.0153861 C18.5707819,38.0173255 19.2566866,38.0186554 19.9743525,38.0196893 L24.9091785,38.0196893 C25.0567578,38.0196893 25.2034344,38.0194488 25.3490109,38.0193188 L26.2076871,38.0184748 C26.3480726,38.0183248 26.4869629,38.0181709 26.6241603,38.0180142 L27.4254506,38.0170482 C27.5550865,38.0168844 27.6826344,38.0167198 27.8078969,38.0165557 L28.5304655,38.015584 C28.6457958,38.0154257 28.7584456,38.0152699 28.8682172,38.0151177 L29.4907286,38.0142566 C29.5881974,38.0141231 29.6823929,38.0139955 29.7731177,38.0138746 L30.8489852,38.0127097 L30.9886458,38.0126709 C32.3576503,38.0126709 32.3361113,36.6890154 32.3361113,36.6890154 C32.3361113,36.6678655 32.3361113,36.6420294 32.3361113,36.611678 L32.3348182,31.9888503 C32.3347773,31.8543813 32.3347359,31.7183029 32.3346938,31.5807862 L32.3334672,27.6429213 C32.3334199,27.4933597 32.3333726,27.3438981 32.3333254,27.1947075 L32.3320988,23.3570264 C32.3320567,23.2265596 32.3320153,23.0979023 32.3319744,22.9712253 L32.3307014,19.0524937 L31.4276108,19.0512627 C31.3643105,19.0511775 31.2980927,19.0510887 31.2290906,19.0509964 L30.5364907,19.0500774 C30.4519812,19.0499662 30.3650868,19.0498522 30.2759408,19.0497355 L29.4164266,19.048622 C29.314969,19.0484919 29.2116591,19.0483598 29.1066303,19.0482261 L28.4568938,19.0474052 C28.3455214,19.0472656 28.2326963,19.0471247 28.1185516,19.0469829 L27.418914,19.0461215 C27.3000237,19.0459765 27.1800801,19.0458309 27.0592165,19.045685 L25.9501969,19.0443688 C25.8250112,19.0442229 25.6993048,19.0440774 25.5732111,19.0439324 L24.8130643,19.0430709 C24.6859534,19.0429291 24.5587213,19.0427882 24.4315013,19.0426487 L23.6693907,19.0418277 C23.5427514,19.041694 23.4163904,19.0415619 23.290441,19.0414318 L22.1716019,19.0403183 C22.0493199,19.0402017 21.9278489,19.0400876 21.807322,19.0399764 L20.7516672,19.0390574 C20.6380035,19.0389651 20.5256836,19.0388763 20.4148403,19.0387912 L18.1063212,19.0375601 L17.8780025,19.0375601 Z M181.924085,0 C182.667875,0 183.27153,0.608202734 183.27153,1.35759539 L183.27153,6.78797694 C183.27153,7.5373696 182.667875,8.14557233 181.924085,8.14557233 L176.534303,8.14557233 C175.790513,8.14557233 175.186858,7.5373696 175.186858,6.78797694 L175.186858,1.35759539 C175.186858,0.608202734 175.790513,0 176.534303,0 L181.924085,0 Z M181.924085,12.2183585 C182.667875,12.2183585 183.27153,12.8265612 183.27153,13.5759539 L183.27153,43.4430524 C183.27153,44.1924451 182.667875,44.8006478 181.924085,44.8006478 L176.534303,44.8006478 C175.790513,44.8006478 175.186858,44.1924451 175.186858,43.4430524 L175.186858,13.5759539 C175.186858,12.8265612 175.790513,12.2183585 176.534303,12.2183585 L181.924085,12.2183585 Z M198.595061,12.2210203 C198.747588,12.2210203 198.900658,12.2210203 199.054219,12.2210203 L201.388092,12.2221725 C201.545288,12.2222591 201.702718,12.2223498 201.860333,12.2224445 L203.282456,12.2234129 C203.440715,12.2235337 203.599004,12.223659 203.757273,12.2237889 L205.179754,12.2250869 C205.968175,12.2258813 206.752239,12.226801 207.525546,12.2278617 C217.42388,12.2414376 221,17.6514552 221,25.1766065 L221,43.44441 C221,44.1938027 220.397692,44.8006478 219.653902,44.8020054 L214.266816,44.8047206 C213.520331,44.8060782 212.916675,44.1965179 212.918023,43.44441 L212.957099,25.7943124 C212.957099,19.1190159 207.73979,19.0171962 207.514767,19.0171962 C207.441152,19.0171962 207.364934,19.0172007 207.28625,19.0172096 L204.662229,19.0183686 C204.550238,19.0184406 204.437013,19.0185153 204.322691,19.0185925 L202.90692,19.0196264 C202.78601,19.0197206 202.664551,19.0198165 202.542679,19.019914 L201.069172,19.0211473 C200.94619,19.0212544 200.823343,19.0213623 200.700767,19.0214709 L199.608628,19.0224604 C199.488916,19.0225712 199.369887,19.022682 199.251678,19.0227928 L198.213623,19.0237823 C198.101564,19.0238909 197.990735,19.0239988 197.881274,19.0241059 L196.642131,19.0253392 C196.545799,19.0254367 196.451382,19.0255326 196.359017,19.0256268 L195.357891,19.0266607 C195.284131,19.0267379 195.212972,19.0268126 195.144549,19.0268846 L194.049745,19.028057 L194.088821,43.400967 C194.088821,43.400967 194.142719,45.038227 192.285939,44.7721383 C190.968138,44.7762111 188.897114,44.7829991 187.579313,44.7884295 C186.35718,44.9459105 185.966421,44.0376792 185.966421,43.4213309 L185.966421,12.2237889 L187.943081,12.2225161 C188.021072,12.2224737 188.101091,12.222431 188.183086,12.222388 L191.184652,12.2210203 C191.301054,12.2210203 191.41892,12.2210203 191.5382,12.2210203 L198.595061,12.2210203 Z M138.789664,12.2183585 C138.87864,12.2183585 138.96625,12.2183585 139.052574,12.2183585 L140.702626,12.2196734 C140.774713,12.2197765 140.846055,12.2198847 140.916727,12.2199979 L141.333356,12.2207337 C141.401663,12.2208654 141.469455,12.2210013 141.536811,12.2211413 L141.936322,12.2220266 C142.00224,12.2221814 142.067875,12.2223395 142.133306,12.2225007 L142.524051,12.2235026 C142.588972,12.223675 142.653843,12.2238498 142.71874,12.2240268 L143.109072,12.2251124 C143.43565,12.2260346 143.766775,12.226996 144.112113,12.2279582 L144.533958,12.2291108 C144.748911,12.2296849 144.970372,12.2302538 145.200429,12.2308094 L145.672625,12.2319001 C145.915073,12.2324341 146.167509,12.2329492 146.432021,12.2334371 L146.977767,12.2343745 C147.071615,12.2345238 147.166959,12.2346696 147.263877,12.2348114 L148.180719,12.2359735 C148.287776,12.236089 148.396639,12.2361997 148.507384,12.2363052 L149.931677,12.2373045 C150.058725,12.237364 150.187966,12.237417 150.319477,12.2374634 L152.948519,12.2375115 C153.110052,12.2374668 153.274319,12.2374136 153.441397,12.2373516 L155.586217,12.2361651 C156.158631,12.2357529 156.759129,12.2352505 157.3898,12.2346496 C170.21209,12.2210737 172.478493,23.2216691 172.492016,28.4714905 C172.504094,33.7226695 170.271377,44.7870719 157.590569,44.7816415 L151.703281,44.7813398 C150.725784,44.7814152 149.750683,44.7815284 148.778782,44.7816415 L142.992215,44.7820186 L140.139804,44.7816415 C140.139804,44.7816415 140.139801,44.7877114 140.139795,44.7995637 L140.138575,47.2273665 C140.13852,47.3365901 140.138464,47.4481456 140.138407,47.5617454 L140.137109,50.1492343 C140.137045,50.2773654 140.136981,50.4055281 140.136917,50.5334348 L140.135812,52.746 C140.135755,52.8604834 140.135699,52.9729855 140.135644,53.0832188 L140.134414,55.6003192 C140.134414,57 138.788317,57 138.788317,57 L133.408044,57 C133.2741,56.9958099 132.068607,56.924578 132.068607,55.6424046 L132.069801,18.9045457 C132.089853,18.2245944 132.446501,12.2183585 138.789664,12.2183585 Z M152.517213,18.9803107 L147.581754,18.9803107 C147.434164,18.9803107 147.287476,18.9805512 147.14189,18.9806812 L146.283159,18.9815252 C146.142765,18.9816752 146.003868,18.9818291 145.866663,18.9819858 L145.065336,18.9829518 C144.935695,18.9831156 144.808142,18.9832802 144.682875,18.9834443 L143.960283,18.984416 C143.84495,18.9845743 143.732297,18.9847301 143.622523,18.9848823 L143,18.9857434 C142.902529,18.9858769 142.808332,18.9860045 142.717606,18.9861254 L141.502072,18.9873291 C140.286376,18.9873291 140.167269,20.034253 140.155809,20.2669028 L140.155809,24.2257808 C140.155809,24.3531261 140.155809,24.4824231 140.156067,24.6135008 L140.157204,27.569259 C140.157261,27.7168897 140.157319,27.8651045 140.157377,28.0137322 L140.158612,31.1369934 C140.15867,31.2830268 140.158728,31.4282764 140.158786,31.5725715 L140.159923,34.4037969 C140.159972,34.52635 140.160021,34.6467518 140.160069,34.7648313 L140.161357,37.9338619 L140.161363,37.9488639 L141.064454,37.949983 C141.127754,37.9500604 141.193972,37.9501412 141.262974,37.9502251 L142.216124,37.9513713 C142.30527,37.9514773 142.396668,37.9515857 142.490184,37.9516963 L143.385435,37.9527435 C143.490463,37.9528651 143.597211,37.9529882 143.705545,37.9531127 L144.719773,37.9542631 C144.836423,37.9543937 144.95426,37.954525 145.073151,37.9546569 L145.798066,37.9554523 C145.920637,37.9555853 146.043994,37.9557185 146.168006,37.9558515 L146.918854,37.9566469 C147.044947,37.9567787 147.171429,37.95691 147.298164,37.9570406 L148.442054,37.9581911 C148.569117,37.9583155 148.696035,37.9584386 148.822674,37.9585602 L149.951317,37.9596075 C150.075088,37.959718 150.198181,37.9598264 150.320463,37.9599324 L151.740398,37.9610787 C151.854061,37.9611626 151.966381,37.9613699 152.077224,37.9613699 L154.809995,37.9613699 C158.569351,37.9201191 164.370844,36.652571 164.366874,28.3846044 C164.364177,19.9729434 158.959574,18.9981899 154.550732,18.9846139 C153.92109,18.9826745 153.235021,18.9813446 152.517213,18.9803107 Z M119.963158,12.2183585 C128.721185,12.2183585 129.370743,19.3429181 129.385039,21.2859798 L129.38452,21.4708435 C129.381931,21.6629502 129.373716,21.7703997 129.373716,21.7703997 L129.374413,27.157228 C129.377539,27.1819034 129.390281,27.2913433 129.394089,27.4631572 L129.394732,27.6251792 C129.376656,28.9470752 128.770305,32.5822893 122.647269,32.5822893 L95.687582,32.5822893 C95.6889294,32.5822893 95.6525484,35.1712237 95.687582,35.3436384 C95.687582,35.3436384 95.6458112,37.9909494 98.3609136,37.9909494 C98.38287,37.9909494 98.408918,37.9909529 98.4389489,37.99096 L100.426253,37.9921235 C100.525092,37.992191 100.626828,37.992261 100.731354,37.9923335 L102.494871,37.993595 C102.624576,37.99369 102.756529,37.9937869 102.890619,37.9938858 L104.152232,37.994825 C104.298175,37.9949346 104.44593,37.9950458 104.595389,37.9951586 L105.983603,37.9962132 C106.14231,37.9963345 106.302396,37.9964571 106.463751,37.9965809 L107.947312,37.9977245 C108.115311,37.9978545 108.284254,37.9979855 108.454034,37.9981174 L109.481873,37.9989175 C109.654562,37.9990522 109.827869,37.9991876 110.001688,37.9993236 L111.049853,38.0001451 C111.225279,38.0002829 111.400998,38.000421 111.576902,38.0005594 L113.162096,38.0018101 C113.338131,38.0019494 113.514027,38.0020886 113.689673,38.0022278 L114.739689,38.0030608 C114.913904,38.0031992 115.087652,38.0033374 115.260826,38.0034752 L116.292102,38.0042967 C116.462542,38.0044326 116.632191,38.004568 116.800939,38.0047028 L117.801755,38.0055029 C117.966467,38.0056347 118.130062,38.0057657 118.292431,38.0058958 L119.717723,38.0070394 C119.87176,38.0071632 120.024245,38.0072857 120.17507,38.007407 L121.484747,38.0084616 C121.624636,38.0085744 121.762539,38.0086856 121.898348,38.0087952 L123.061157,38.0097345 C123.183425,38.0098333 123.303273,38.0099303 123.420592,38.0100252 L124.977212,38.0112867 C125.066537,38.0113592 125.152792,38.0114293 125.235867,38.0114967 L126.678825,38.0126709 C126.678825,38.0126709 128.046482,38.0343924 128.046482,39.3919878 L128.047443,40.0919875 C128.04759,40.1751125 128.047751,40.2630177 128.047922,40.3546398 L128.049062,40.9404683 C128.0505,41.6561228 128.052234,42.4497002 128.053417,42.9564862 L128.054276,43.3121331 L128.054567,43.4213309 C128.055914,43.5475873 128.04783,44.8006478 126.657266,44.8006478 L97.0767982,44.7572048 L97.0145823,44.7564636 C96.1986365,44.7396699 87.6312062,44.3475989 87.6312062,35.2866193 C87.6312062,35.0627971 87.6312032,34.8444083 87.6311974,34.6311503 L87.6298588,27.8610817 C87.6298139,27.7321893 87.6297689,27.6041922 87.6297242,27.4767878 L87.6285113,21.6441433 C87.6285113,21.6441433 86.9291872,12.2183585 97.2506186,12.2183585 L119.963158,12.2183585 Z M112.302246,19.0266464 L99.3712905,19.0266464 C99.289951,19.0266464 99.2128212,19.0267677 99.1400964,19.026833 L98.4040318,19.028057 C96.9932565,19.0321298 95.6929718,20.3856524 95.6929718,21.7636117 C95.6929718,21.7869269 95.6929616,21.8158753 95.6929421,21.8499228 L95.6917779,22.898169 C95.6916787,22.9741863 95.6915755,23.0520994 95.6914692,23.1313743 L95.6904525,23.8672022 C95.6903356,23.9498429 95.6902182,24.0322437 95.6901012,24.1138707 L95.6890846,24.8132053 C95.6889783,24.8853843 95.6888751,24.9551877 95.6887758,25.0220816 L95.687582,25.8160339 L106.977564,25.8147362 C107.152572,25.8147162 107.327821,25.8146963 107.503162,25.8146763 L119.912032,25.8133205 L119.964505,25.8133187 C121.267485,25.8133187 121.267485,24.4584385 121.267485,24.4584385 C121.267485,23.4483876 121.283654,22.8008146 121.289068,21.7432477 C121.295781,20.4060163 119.878268,19.028057 118.657483,19.028057 L112.781089,19.0267844 C112.623063,19.0267516 112.463384,19.0267188 112.302246,19.0266464 L112.302246,19.0266464 Z" id="形状结合"></path>
            <path d="M17.8780025,19.0375601 C14.1280621,19.0375601 8.12519304,19.8887724 8.12519304,28.6153956 C8.12519304,37.0270566 13.5324913,38.0031677 17.9413325,38.0153861 C18.5707819,38.0173255 19.2566866,38.0186554 19.9743525,38.0195103 L24.9091785,38.0196893 C25.0567578,38.0195726 25.2034344,38.0194488 25.3490109,38.0193188 L26.2076871,38.0184748 C26.3480726,38.0183248 26.4869629,38.0181709 26.6241603,38.0180142 L27.4254506,38.0170482 C27.5550865,38.0168844 27.6826344,38.0167198 27.8078969,38.0165557 L28.5304655,38.015584 C28.6457958,38.0154257 28.7584456,38.0152699 28.8682172,38.0151177 L29.4907286,38.0142566 C29.5881974,38.0141231 29.6823929,38.0139955 29.7731177,38.0138746 L30.8489852,38.0127097 L30.9886458,38.0126709 C32.1703554,38.0126709 32.3158795,37.0284142 32.3333963,36.7596103 C32.3333963,41.1378555 28.9418763,44.7734959 24.5788483,44.7734959 L24.2914654,44.7725258 C24.2460178,44.7723654 24.2017307,44.7722058 24.1585076,44.772047 L23.9111662,44.7711052 C23.8718135,44.7709502 23.833332,44.7707962 23.7956252,44.7706433 L23.5779091,44.7697404 C23.5429153,44.7695924 23.5085034,44.7694458 23.4745768,44.7693005 L23.2760701,44.7684471 C23.2436992,44.7683079 23.2116208,44.7681704 23.1797385,44.7680346 L22.8954861,44.7668614 C22.863912,44.7667367 22.8322445,44.7666141 22.8003874,44.7664936 L22.5059456,44.7654685 C22.472082,44.7653615 22.4377393,44.765257 22.402821,44.7651549 L21.9500047,44.7640559 C21.9089392,44.7639754 21.8669124,44.7638977 21.8238278,44.7638231 L20.5373316,44.7626545 C20.4711506,44.7626339 20.4031404,44.762617 20.3332044,44.7626041 L19.6491813,44.7625942 C19.5668228,44.7626053 19.4822492,44.7626205 19.3953641,44.76264 L16.8169293,44.7639756 C16.6868873,44.7640695 16.5537622,44.7641684 16.4174577,44.7642725 L15.1022651,44.7653504 C8.7328909,44.7721383 3.91442631,41.9374792 2.146578,37.0012623 C-3.38596525,19.8455466 14.978131,19.0626561 17.576214,19.0371144 L17.8780025,19.0375601 Z M51.2218853,35.3436384 L51.2225573,35.3796939 C51.2327546,35.6963742 51.3957987,37.992307 53.9801059,37.992307 C54.0227059,37.992307 54.0688542,37.9923103 54.1184526,37.9923169 L56.8772275,37.9936046 C56.9908756,37.9936726 57.1068961,37.9937429 57.225191,37.9938154 L58.7476337,37.9947873 C58.8825566,37.9948763 59.019362,37.9949672 59.157952,37.9950598 L60.9004195,37.9962531 C61.0517182,37.9963589 61.2044095,37.9964661 61.3583954,37.9965746 L62.7765785,37.9975865 C62.9374505,37.9977025 63.0993231,37.9978197 63.2620984,37.9979379 L64.7488039,37.999027 C64.9161137,37.9991506 65.0840322,37.9992749 65.2524615,37.9994 L66.2683827,38.0001578 C66.4384632,38.0002852 66.6088585,38.0004132 66.7794706,38.0005416 L68.3181887,38.0017064 C68.48922,38.0018366 68.6601742,38.0019669 68.8309533,38.0020974 L69.8527428,38.0028805 C70.0224296,38.0030109 70.1917453,38.0031413 70.360592,38.0032715 L71.8649024,38.0044363 C72.030053,38.0045647 72.1944406,38.0046926 72.3579672,38.0048201 L73.3280115,38.0055779 C73.4877023,38.0057029 73.6463362,38.0058273 73.8038152,38.0059509 L75.1872977,38.00704 C75.3369653,38.0071582 75.4851841,38.0072753 75.631856,38.0073914 L76.9074929,38.0084032 C77.044002,38.0085118 77.1786702,38.008619 77.3113996,38.0087247 L78.8048209,38.009918 C78.9204725,38.0100107 79.0337933,38.0101016 79.1446854,38.0101906 L80.3525435,38.0111625 C80.4424384,38.011235 80.5295127,38.0113053 80.6136685,38.0113732 L82.2131284,38.0126709 C82.2131284,38.0126709 83.5605738,38.0764779 83.5605738,39.3919878 L83.5615018,43.4850134 C83.5615018,43.7138194 83.4924214,44.8006478 82.1915693,44.8006478 L58.7875068,44.7992911 L58.772969,44.7992902 C51.8276967,44.7992902 51.2337293,37.9675818 51.2115194,35.9180692 L51.2115194,35.6997137 C51.2134488,35.4723403 51.2218853,35.3436384 51.2218853,35.3436384 Z M95.687582,35.3436384 L95.688254,35.3796939 C95.6984513,35.6963742 95.8614954,37.992307 98.4458026,37.992307 C98.4884026,37.992307 98.5345509,37.9923103 98.5841493,37.9923169 L101.342924,37.9936046 C101.456572,37.9936726 101.572593,37.9937429 101.690888,37.9938154 L103.21333,37.9947873 C103.348253,37.9948763 103.485059,37.9949672 103.623649,37.9950598 L105.366116,37.9962531 C105.517415,37.9963589 105.670106,37.9964661 105.824092,37.9965746 L107.242275,37.9975865 C107.403147,37.9977025 107.56502,37.9978197 107.727795,37.9979379 L109.214501,37.999027 C109.38181,37.9991506 109.549729,37.9992749 109.718158,37.9994 L110.734079,38.0001578 C110.90416,38.0002852 111.074555,38.0004132 111.245167,38.0005416 L112.783885,38.0017064 C112.954917,38.0018366 113.125871,38.0019669 113.29665,38.0020974 L114.31844,38.0028805 C114.488126,38.0030109 114.657442,38.0031413 114.826289,38.0032715 L116.330599,38.0044363 C116.49575,38.0045647 116.660137,38.0046926 116.823664,38.0048201 L117.793708,38.0055779 C117.953399,38.0057029 118.112033,38.0058273 118.269512,38.0059509 L119.652994,38.00704 C119.802662,38.0071582 119.950881,38.0072753 120.097553,38.0073914 L121.37319,38.0084032 C121.509699,38.0085118 121.644367,38.008619 121.777096,38.0087247 L123.270518,38.009918 C123.386169,38.0100107 123.49949,38.0101016 123.610382,38.0101906 L124.81824,38.0111625 C124.908135,38.011235 124.995209,38.0113053 125.079365,38.0113732 L126.678825,38.0126709 C126.678825,38.0126709 128.026271,38.0764779 128.026271,39.3919878 L128.027158,43.4850134 C128.027158,43.7138194 127.956913,44.8006478 126.657266,44.8006478 L103.253204,44.7992911 L103.238666,44.7992902 C96.2933934,44.7992902 95.699426,37.9675818 95.6772161,35.9180692 L95.6772161,35.6997137 C95.6791455,35.4723403 95.687582,35.3436384 95.687582,35.3436384 Z M161.296044,20.5811461 C161.296044,20.5811461 168.091211,23.8000048 169.4683,31.3237984 C170.036922,34.4326918 169.782255,39.8046968 163.706624,43.7159291 C163.706624,43.7159291 161.186901,44.7626352 158.42868,44.75992 C158.25389,44.7578717 152.993393,44.7695443 147.773526,44.7762794 L146.928226,44.777327 C146.787671,44.777494 146.647349,44.7776571 146.507359,44.7778161 L145.672226,44.7787201 C145.533973,44.7788622 145.396255,44.7789999 145.259173,44.7791331 L144.045346,44.7802055 C143.912992,44.7803101 143.781577,44.7804098 143.651203,44.7805043 L141.438699,44.781693 C141.324452,44.781693 141.211853,44.781693 141.101002,44.781693 L140.457685,44.781693 L140.153279,44.781693 L140.16136,37.9388571 C140.161363,37.9488639 140.165479,37.9488691 140.173578,37.9488794 L141.064454,37.949983 C141.127754,37.9500604 141.193972,37.9501412 141.262974,37.9502251 L142.216124,37.9513713 C142.30527,37.9514773 142.396668,37.9515857 142.490184,37.9516963 L143.385435,37.9527435 C143.490463,37.9528651 143.597211,37.9529882 143.705545,37.9531127 L144.719773,37.9542631 C144.836423,37.9543937 144.95426,37.954525 145.073151,37.9546569 L145.798066,37.9554523 C145.920637,37.9555853 146.043994,37.9557185 146.168006,37.9558515 L146.918854,37.9566469 C147.044947,37.9567787 147.171429,37.95691 147.298164,37.9570406 L148.442054,37.9581911 C148.569117,37.9583155 148.696035,37.9584386 148.822674,37.9585602 L149.951317,37.9596075 C150.075088,37.959718 150.198181,37.9598264 150.320463,37.9599324 L151.740398,37.9610787 C151.854061,37.9611626 151.966381,37.9612434 152.077224,37.9613207 L154.809995,37.9613699 C158.569351,37.9201191 164.370844,36.652571 164.366872,28.3846044 C164.365524,24.2425809 163.050418,21.9088744 161.193638,20.6001524 L161.296044,20.5811461 Z M181.924085,12.2183585 C182.667875,12.2183585 183.27153,12.8265612 183.27153,13.5759539 L183.27153,29.9716334 C183.27153,18.0329396 176.534303,12.2183585 176.534303,12.2183585 L181.924085,12.2183585 Z M175.188072,1.53466848 C175.190542,1.54931916 175.196898,1.58551095 175.20824,1.64063439 L175.237895,1.77535029 C175.49656,2.88423262 176.875712,7.36274889 182.387606,8.05054066 C182.242082,8.10484447 182.088473,8.14557233 181.924085,8.14557233 L176.534303,8.14557233 C175.790513,8.14557233 175.186858,7.5373696 175.186858,6.78797694 L175.188072,1.53466848 Z M208.067219,19.0660696 C208.474525,19.1045037 221,20.3557853 221,29.0253894 L221,43.44441 C221,44.1938027 220.397692,44.8006478 219.653902,44.8020054 L214.266816,44.8047229 C213.520331,44.8060782 212.916675,44.1965179 212.918023,43.44441 L212.957099,25.7943124 C212.957099,20.3218454 209.455088,19.269709 208.067219,19.0660696 Z" id="形状结合"></path>
        </g>
    </g>
</svg>