<?xml version="1.0" encoding="UTF-8"?>
<svg width="248px" height="64px" viewBox="0 0 248 64" version="1.1" xmlns="http://www.w3.org/2000/svg" xmlns:xlink="http://www.w3.org/1999/xlink">
    <title>编组</title>
    <g id="更新" stroke="none" stroke-width="1" fill="none" fill-rule="evenodd">
        <g id="控制中心-deepin更新-安装更新（模态）" transform="translate(-836, -411)" fill="#FFFFFF">
            <g id="编组" transform="translate(836, 411)">
                <path d="M84.7211325,13.7188587 C94.549145,13.7188587 95.2780605,21.7183642 95.2941033,23.9000475 L95.2935214,24.1076137 C95.2906159,24.3233125 95.2813971,24.4439575 95.2813971,24.4439575 L95.2821791,30.4923262 C95.2856871,30.5200319 95.2999863,30.6429118 95.3042594,30.8358256 L95.3049812,31.0177451 C95.2846961,32.5019792 94.6042667,36.5836231 87.7331667,36.5836231 L57.4797627,36.5836231 C57.4812747,36.5836231 57.440449,39.4904968 57.4797627,39.6840852 C57.4797627,39.6840852 57.4328886,42.6565045 60.4797004,42.6565045 C60.5043393,42.6565045 60.5335696,42.6565086 60.5672694,42.6565165 L62.7973663,42.6578229 C62.9082803,42.6578987 63.0224461,42.6579773 63.139742,42.6580587 L65.1187112,42.6594751 C65.2642631,42.6595817 65.4123361,42.6596906 65.5628085,42.6598016 L66.9785555,42.6608562 C67.1423282,42.6609792 67.308135,42.6611041 67.475854,42.6612307 L69.0336685,42.6624148 C69.2117652,42.662551 69.3914088,42.6626887 69.5724775,42.6628276 L71.2372877,42.6641117 C71.4258114,42.6642577 71.615395,42.6644048 71.8059166,42.6645528 L72.9593287,42.6654512 C73.1531154,42.6656025 73.3475966,42.6657545 73.5426505,42.6659072 L74.7188726,42.6668296 C74.9157303,42.6669843 75.1129172,42.6671394 75.3103115,42.6672948 L77.0891715,42.6686991 C77.2867141,42.6688554 77.4840988,42.6690118 77.6812037,42.669168 L78.8595026,42.6701034 C79.0550016,42.6702588 79.2499773,42.6704139 79.444308,42.6705686 L80.601577,42.671491 C80.7928404,42.6716437 80.9832151,42.6717957 81.1725794,42.671947 L82.2956667,42.6728453 C82.4805024,42.6729934 82.6640842,42.6731404 82.8462903,42.6732865 L84.4457126,42.6745705 C84.6185683,42.6747095 84.7896831,42.6748471 84.958935,42.6749833 L86.428618,42.6761674 C86.585597,42.6762941 86.7403478,42.676419 86.8927487,42.676542 L88.1976206,42.6775966 C88.3348259,42.6777076 88.469316,42.6778165 88.600969,42.6779231 L90.3477638,42.6793395 C90.448002,42.6794209 90.5447942,42.6794995 90.6380187,42.6795753 L92.2572663,42.6808936 C92.2572663,42.6808936 93.7920127,42.7052827 93.7920127,44.2296003 L93.7930911,45.0155649 C93.793256,45.1088983 93.7934361,45.2075989 93.7936284,45.3104728 L93.7949081,45.9682452 C93.7965218,46.771787 93.7984672,47.6628213 93.7997943,48.2318441 L93.8007582,48.6311669 L93.8010851,48.7537751 C93.8025971,48.8955366 93.7935247,50.3024818 92.2330733,50.3024818 L59.0387021,50.2537036 L58.9688852,50.2528714 C58.0532537,50.2340154 48.4391238,49.7937952 48.4391238,39.6200638 C48.4391238,39.3687547 48.4391204,39.1235462 48.4391139,38.8840986 L48.4376117,31.282618 C48.4375613,31.1378968 48.4375109,30.9941807 48.4374607,30.8511302 L48.4360997,24.302196 C48.4360997,24.302196 47.6513377,13.7188587 59.2337585,13.7188587 L84.7211325,13.7188587 Z M76.1242729,21.3632521 L61.613517,21.3632521 C61.5222401,21.3632521 61.4356872,21.3633883 61.3540774,21.3634616 L60.5280865,21.3648359 C58.944954,21.3694089 57.4858109,22.8891535 57.4858109,24.4363359 C57.4858109,24.4625144 57.4857995,24.4950178 57.4857776,24.5332467 L57.4844712,25.7102248 C57.4843599,25.7955776 57.4842441,25.8830589 57.4841247,25.9720693 L57.4829839,26.7982621 C57.4828527,26.8910517 57.4827209,26.9835719 57.4825897,27.0752233 L57.4814488,27.860441 C57.4813295,27.9414841 57.4812137,28.0198598 57.4811024,28.0949688 L57.4797627,28.986424 L70.1490632,28.984967 C70.3454533,28.9849446 70.5421119,28.9849221 70.7388749,28.9848997 L84.6637606,28.9833774 L84.7226445,28.9833754 C86.1848118,28.9833754 86.1848118,27.4621064 86.1848118,27.4621064 C86.1848118,26.3280141 86.2029565,25.6009146 86.2090316,24.4134712 C86.2165651,22.9120183 84.6258724,21.3648359 83.2559411,21.3648359 L76.6616171,21.3634071 C76.4842846,21.3633702 76.3050968,21.3633333 76.1242729,21.3632521 L76.1242729,21.3632521 Z M43.8560536,0 C43.8560536,0 45.3832397,0 45.3832397,1.52431763 L45.3832397,42.7052827 L45.3818016,42.7753537 C45.3582381,43.5386541 44.9486778,50.2811413 37.8319852,50.2811413 L35.6842947,50.279665 C35.6033417,50.2795492 35.5232243,50.2794277 35.4438557,50.2793006 L34.9759374,50.2784744 C34.8992176,50.2783266 34.8230733,50.2781739 34.7474178,50.2780168 L34.2986567,50.2770228 C34.2246096,50.276849 34.1508779,50.2766715 34.0773749,50.2764904 L33.638408,50.2753655 C33.5654731,50.275172 33.4925936,50.2749757 33.4196826,50.2747769 L32.9811469,50.2735581 C32.6142309,50.2725225 32.2421959,50.2714431 31.8542051,50.2703628 L31.3802639,50.2690686 C31.1387703,50.268424 30.8899721,50.2677852 30.6315286,50.2671614 L30.1010876,50.2659367 C29.8287433,50.2653372 29.5451931,50.2647588 29.2480964,50.2642109 L28.6351472,50.2631585 C28.5297475,50.2629908 28.4226692,50.2628271 28.3138257,50.2626679 L27.2842308,50.2613631 C27.1640154,50.2612334 27.0417747,50.2611092 26.917422,50.2609907 L25.3182625,50.2598686 C25.1756263,50.2598019 25.0305313,50.2597423 24.8828908,50.2596902 L21.9317202,50.2596362 C21.7504125,50.2596864 21.5660392,50.2597461 21.3785135,50.2598157 L18.9713425,50.261148 C18.7572106,50.2613022 18.5395797,50.2614677 18.3183628,50.2616449 L16.9473382,50.2628495 C2.55852409,50.2780927 0.0152301262,37.9265469 5.4515679e-05,32.0320107 C-0.0134991159,26.1374744 2.49199321,13.7142857 16.7220405,13.7188587 C17.8263522,13.7193668 18.9297399,13.7196632 20.0313075,13.7198114 L26.6117041,13.7194303 C27.7024072,13.7192397 28.7894982,13.719028 29.872081,13.7188587 L36.3063112,13.7188587 L36.3076909,10.9727815 C36.3077524,10.8501444 36.3078153,10.7248891 36.3078793,10.5973384 L36.3091195,8.12325835 C36.3091913,7.97978551 36.3092633,7.83595439 36.3093353,7.69208784 L36.3107914,4.77642106 C36.3108554,4.64787834 36.3109183,4.52156017 36.3109798,4.3977894 L36.3123493,1.60041027 L36.3123595,1.57157148 C36.3123595,0 37.827449,0 37.827449,0 C37.8582663,0 37.898348,0 37.946812,0 L43.7364849,0 L43.8560536,0 Z M20.0621929,21.3755061 C15.8541149,21.3755061 9.11332749,22.6833706 9.1178614,32.129567 C9.12088782,41.574239 15.185782,42.6702234 20.1332599,42.6839423 C20.8396105,42.6861199 21.6093135,42.6876131 22.414658,42.688774 L27.9523813,42.688774 C28.1179906,42.688774 28.282587,42.6885039 28.4459488,42.688358 L29.4095312,42.6874103 C29.5670679,42.6872419 29.7229267,42.6870691 29.8768858,42.6868931 L30.7760712,42.6858085 C30.921545,42.6856245 31.0646757,42.6854398 31.2052418,42.6852555 L32.016088,42.6841645 C32.1455085,42.6839867 32.2719208,42.6838118 32.3951034,42.6836409 L33.0936682,42.682674 C33.203045,42.6825242 33.3087486,42.6823809 33.4105574,42.6822452 L34.6178614,42.6809372 L34.774589,42.6808936 C36.3108474,42.6808936 36.2866769,41.1946839 36.2866769,41.1946839 C36.2866769,41.1709367 36.2866769,41.1419277 36.2866769,41.107849 L36.2852258,35.9173056 C36.28518,35.7663228 36.2851335,35.6135331 36.2850863,35.4591284 L36.2837098,31.0376661 C36.2836568,30.8697372 36.2836037,30.7019207 36.2835507,30.5344084 L36.2821742,26.2254332 C36.282127,26.0789442 36.2820805,25.9344868 36.2820346,25.792253 L36.2806061,21.3922736 L35.2671831,21.3908914 C35.1961493,21.3907958 35.1218416,21.3906961 35.0444094,21.3905925 L34.2671932,21.3895606 C34.172359,21.3894357 34.0748486,21.3893077 33.9748114,21.3891767 L33.0102887,21.3879265 C32.8964358,21.3877804 32.7805044,21.3876321 32.6626439,21.3874819 L31.9335279,21.3865602 C31.8085489,21.3864035 31.6819397,21.3862453 31.5538497,21.3860861 L30.7687361,21.3851188 C30.6353207,21.384956 30.5007234,21.3847926 30.3650937,21.3846288 L29.1205829,21.383151 C28.980103,21.3829872 28.8390389,21.3828237 28.69754,21.3826609 L27.8445247,21.3816937 C27.7018844,21.3815344 27.5591081,21.3813763 27.4163454,21.3812195 L26.5611262,21.3802978 C26.4190151,21.3801476 26.2772164,21.3799994 26.1358795,21.3798532 L24.8803496,21.378603 C24.7431282,21.378472 24.6068168,21.378344 24.4715649,21.3782191 L23.2869387,21.3771873 C23.1593886,21.3770836 23.0333462,21.3769839 22.9089611,21.3768883 L20.3184057,21.3755061 L20.0621929,21.3755061 Z M204.150104,0 C204.984764,0 205.662169,0.682894298 205.662169,1.52431763 L205.662169,7.62158815 C205.662169,8.46301148 204.984764,9.14590578 204.150104,9.14590578 L198.101843,9.14590578 C197.267183,9.14590578 196.589777,8.46301148 196.589777,7.62158815 L196.589777,1.52431763 C196.589777,0.682894298 197.267183,0 198.101843,0 L204.150104,0 Z M204.150104,13.7188587 C204.984764,13.7188587 205.662169,14.401753 205.662169,15.2431763 L205.662169,48.7781641 C205.662169,49.6195875 204.984764,50.3024818 204.150104,50.3024818 L198.101843,50.3024818 C197.267183,50.3024818 196.589777,49.6195875 196.589777,48.7781641 L196.589777,15.2431763 C196.589777,14.401753 197.267183,13.7188587 198.101843,13.7188587 L204.150104,13.7188587 Z M222.857806,13.7218473 C223.028968,13.7218473 223.200738,13.7218473 223.37306,13.7218473 L225.992067,13.723141 C226.168467,13.7232383 226.345132,13.7233401 226.522002,13.7234465 L228.117869,13.7245338 C228.295463,13.7246694 228.473091,13.7248101 228.650696,13.7249559 L230.246963,13.7264133 C231.131707,13.7273053 232.011562,13.728338 232.879346,13.7295289 C243.986978,13.7447721 248,19.8191778 248,28.2684704 L248,48.7796885 C248,49.6211118 247.324107,50.3024818 246.489447,50.3040061 L240.444209,50.3070547 C239.606525,50.3085791 238.92912,49.6241604 238.930632,48.7796885 L238.974482,28.962035 C238.974482,21.4669652 233.119765,21.3526414 232.86725,21.3526414 C232.784642,21.3526414 232.699112,21.3526464 232.610815,21.3526564 L229.666211,21.3539577 C229.540539,21.3540386 229.413481,21.3541224 229.285192,21.3542091 L227.696453,21.35537 C227.560772,21.3554757 227.424474,21.3555834 227.287712,21.3556929 L225.634184,21.3570777 C225.496177,21.3571979 225.358321,21.3573191 225.22077,21.357441 L223.995202,21.358552 C223.860865,21.3586764 223.727294,21.3588009 223.594643,21.3589253 L222.429767,21.3600363 C222.304017,21.3601582 222.179648,21.3602794 222.056814,21.3603996 L220.666283,21.3617844 C220.558182,21.3618938 220.45223,21.3620015 220.34858,21.3621073 L219.225144,21.3632682 C219.142374,21.3633548 219.062521,21.3634387 218.985739,21.3635195 L217.75718,21.3648359 L217.80103,48.7309103 C217.80103,48.7309103 217.861513,50.5692374 215.777887,50.2704711 C214.299087,50.2750441 211.975042,50.2826657 210.496242,50.2887629 C209.124799,50.4655838 208.6863,49.4458153 208.6863,48.7537751 L208.6863,13.7249559 L210.904453,13.7235269 C210.991973,13.7234793 211.081767,13.7234312 211.17378,13.723383 L214.542052,13.7218473 C214.672676,13.7218473 214.804942,13.7218473 214.938795,13.7218473 L222.857806,13.7218473 Z M155.745867,13.7188587 C155.845713,13.7188587 155.944028,13.7188587 156.040897,13.7188587 L157.892539,13.720335 C157.973434,13.7204508 158.053491,13.7205723 158.132798,13.7206994 L158.600327,13.7215256 C158.676979,13.7216734 158.753054,13.7218261 158.828639,13.7219832 L159.276959,13.7229772 C159.35093,13.723151 159.424584,13.7233285 159.498009,13.7235096 L159.936492,13.7246345 C160.009344,13.724828 160.08214,13.7250243 160.154966,13.7252231 L160.592985,13.7264419 C160.959463,13.7274775 161.331042,13.7285569 161.71857,13.7296372 L162.191953,13.7309314 C162.433167,13.731576 162.681684,13.7322148 162.939848,13.7328386 L163.469733,13.7340633 C163.741801,13.7346628 164.025078,13.7352412 164.321906,13.7357891 L164.934327,13.7368415 C165.03964,13.7370092 165.146632,13.7371729 165.255391,13.7373321 L166.284246,13.7386369 C166.404382,13.7387666 166.526545,13.7388908 166.650821,13.7390093 L168.249121,13.7401314 C168.391692,13.7401981 168.536722,13.7402577 168.6843,13.7403098 L171.634538,13.7403638 C171.815805,13.7403136 172.000141,13.7402539 172.187631,13.7401843 L174.594488,13.738852 C175.236835,13.7383893 175.910697,13.7378252 176.618418,13.7371505 C191.007232,13.7219073 193.550526,26.0734531 193.565701,31.9679893 C193.579255,37.8640499 191.073763,50.2872386 176.843715,50.2811413 L170.237166,50.2808026 C169.140246,50.2808873 168.046015,50.2810143 166.955375,50.2811413 L160.461852,50.2815648 L157.260957,50.2811413 C157.260957,50.2811413 157.260953,50.2879567 157.260947,50.3012646 L157.259577,53.0272185 C157.259516,53.1498556 157.259453,53.2751109 157.259389,53.4026616 L157.257933,56.3079122 C157.257861,56.4517787 157.257789,56.5956807 157.257717,56.7392952 L157.256477,59.2235789 C157.256413,59.3521217 157.25635,59.4784398 157.256288,59.6022106 L157.254909,62.4284285 C157.254909,64 155.744355,64 155.744355,64 L149.706764,64 C149.556456,63.9952953 148.203685,63.9153157 148.203685,62.4756824 L148.205026,21.2261565 C148.227527,20.4627025 148.627748,13.7188587 155.745867,13.7188587 Z M171.150538,21.311226 L165.612104,21.311226 C165.446482,21.311226 165.281874,21.3114961 165.118501,21.311642 L164.154857,21.3125897 C163.997311,21.3127581 163.841444,21.3129309 163.687477,21.3131069 L162.78825,21.3141915 C162.64277,21.3143755 162.499634,21.3145602 162.359063,21.3147445 L161.548191,21.3158355 C161.418767,21.3160133 161.292352,21.3161882 161.169166,21.3163591 L160.470588,21.317326 C160.361209,21.3174758 160.255504,21.3176191 160.153694,21.3177548 L158.789655,21.3191064 C157.425436,21.3191064 157.291777,22.4945999 157.278917,22.7558207 L157.278917,27.2008767 C157.278917,27.3438609 157.278917,27.4890365 157.279206,27.6362115 L157.280482,30.9549575 C157.280546,31.1207183 157.280612,31.2871348 157.280677,31.4540151 L157.282063,34.9608347 C157.282128,35.124802 157.282193,35.2878893 157.282258,35.4499048 L157.283534,38.6288246 C157.283589,38.7664281 157.283644,38.9016161 157.283697,39.0341966 L157.285143,42.5924063 L157.28515,42.6092507 L158.298573,42.6105073 C158.369607,42.6105941 158.443914,42.6106848 158.521347,42.610779 L159.590945,42.612066 C159.690982,42.6121851 159.793546,42.6123068 159.898487,42.6124309 L160.903112,42.6136068 C161.020973,42.6137433 161.140762,42.6138815 161.262331,42.6140213 L162.400469,42.615313 C162.531371,42.6154596 162.663605,42.6156071 162.79702,42.6157551 L163.6105,42.6166482 C163.748045,42.6167975 163.886473,42.616947 164.025635,42.6170964 L164.868216,42.6179895 C165.009715,42.6181375 165.151648,42.618285 165.293868,42.6184316 L166.577509,42.6197233 C166.720095,42.619863 166.862519,42.6200013 167.00463,42.6201378 L168.271161,42.6213137 C168.410053,42.6214378 168.548185,42.6215595 168.685406,42.6216785 L170.278817,42.6229656 C170.406367,42.6230598 170.53241,42.6232925 170.656795,42.6232925 L173.723433,42.6232925 C177.942077,42.5769759 184.45235,41.1537639 184.447895,31.870433 C184.444868,22.425761 178.379974,21.3313009 173.432496,21.3160577 C172.725929,21.3138801 171.956041,21.3123869 171.150538,21.311226 Z M134.61929,13.7188587 C144.447302,13.7188587 145.176218,21.7183642 145.192261,23.9000475 L145.191679,24.1076137 C145.188773,24.3233125 145.179554,24.4439575 145.179554,24.4439575 L145.180337,30.4923262 C145.183845,30.5200319 145.198144,30.6429118 145.202417,30.8358256 L145.203139,31.0177451 C145.182854,32.5019792 144.502424,36.5836231 137.631324,36.5836231 L107.37792,36.5836231 C107.379432,36.5836231 107.338606,39.4904968 107.37792,39.6840852 C107.37792,39.6840852 107.331046,42.6565045 110.377858,42.6565045 C110.402497,42.6565045 110.431727,42.6565086 110.465427,42.6565165 L112.695524,42.6578229 C112.806438,42.6578987 112.920604,42.6579773 113.037899,42.6580587 L115.016869,42.6594751 C115.16242,42.6595817 115.310494,42.6596906 115.460966,42.6598016 L116.876713,42.6608562 C117.040486,42.6609792 117.206292,42.6611041 117.374011,42.6612307 L118.931826,42.6624148 C119.109923,42.662551 119.289566,42.6626887 119.470635,42.6628276 L121.135445,42.6641117 C121.323969,42.6642577 121.513552,42.6644048 121.704074,42.6645528 L122.857486,42.6654512 C123.051273,42.6656025 123.245754,42.6657545 123.440808,42.6659072 L124.61703,42.6668296 C124.813888,42.6669843 125.011075,42.6671394 125.208469,42.6672948 L126.987329,42.6686991 C127.184872,42.6688554 127.382256,42.6690118 127.579361,42.669168 L128.75766,42.6701034 C128.953159,42.6702588 129.148135,42.6704139 129.342465,42.6705686 L130.499734,42.671491 C130.690998,42.6716437 130.881372,42.6717957 131.070737,42.671947 L132.193824,42.6728453 C132.37866,42.6729934 132.562242,42.6731404 132.744448,42.6732865 L134.34387,42.6745705 C134.516726,42.6747095 134.68784,42.6748471 134.857092,42.6749833 L136.326775,42.6761674 C136.483754,42.6762941 136.638505,42.676419 136.790906,42.676542 L138.095778,42.6775966 C138.232983,42.6777076 138.367473,42.6778165 138.499126,42.6779231 L140.245921,42.6793395 C140.346159,42.6794209 140.442952,42.6794995 140.536176,42.6795753 L142.155424,42.6808936 C142.155424,42.6808936 143.69017,42.7052827 143.69017,44.2296003 L143.691248,45.0155649 C143.691413,45.1088983 143.691593,45.2075989 143.691786,45.3104728 L143.693066,45.9682452 C143.694679,46.771787 143.696625,47.6628213 143.697952,48.2318441 L143.698916,48.6311669 L143.699242,48.7537751 C143.700755,48.8955366 143.691682,50.3024818 142.131231,50.3024818 L108.936859,50.2537036 L108.867043,50.2528714 C107.951411,50.2340154 98.3372812,49.7937952 98.3372812,39.6200638 C98.3372812,39.3687547 98.3372778,39.1235462 98.3372713,38.8840986 L98.3357691,31.282618 C98.3357187,31.1378968 98.3356683,30.9941807 98.3356181,30.8511302 L98.334257,24.302196 C98.334257,24.302196 97.5494951,13.7188587 109.131916,13.7188587 L134.61929,13.7188587 Z M126.02243,21.3632521 L111.511674,21.3632521 C111.420398,21.3632521 111.333845,21.3633883 111.252235,21.3634616 L110.426244,21.3648359 C108.843111,21.3694089 107.383968,22.8891535 107.383968,24.4363359 C107.383968,24.4625144 107.383957,24.4950178 107.383935,24.5332467 L107.382629,25.7102248 C107.382517,25.7955776 107.382401,25.8830589 107.382282,25.9720693 L107.381141,26.7982621 C107.38101,26.8910517 107.380878,26.9835719 107.380747,27.0752233 L107.379606,27.860441 C107.379487,27.9414841 107.379371,28.0198598 107.37926,28.0949688 L107.37792,28.986424 L120.047221,28.984967 C120.243611,28.9849446 120.440269,28.9849221 120.637032,28.9848997 L134.561918,28.9833774 L134.620802,28.9833754 C136.082969,28.9833754 136.082969,27.4621064 136.082969,27.4621064 C136.082969,26.3280141 136.101114,25.6009146 136.107189,24.4134712 C136.114723,22.9120183 134.52403,21.3648359 133.154099,21.3648359 L126.559775,21.3634071 C126.382442,21.3633702 126.203254,21.3633333 126.02243,21.3632521 L126.02243,21.3632521 Z" id="形状结合"></path>
                <path d="M20.0621929,21.3755061 C15.8541149,21.3755061 9.11786369,22.3312533 9.11786369,32.129567 C9.11786369,41.574239 15.185782,42.6702234 20.1332599,42.6839423 C20.8396105,42.6861199 21.6093135,42.6876131 22.414658,42.688573 L27.9523813,42.688774 C28.1179906,42.688643 28.282587,42.6885039 28.4459488,42.688358 L29.4095312,42.6874103 C29.5670679,42.6872419 29.7229267,42.6870691 29.8768858,42.6868931 L30.7760712,42.6858085 C30.921545,42.6856245 31.0646757,42.6854398 31.2052418,42.6852555 L32.016088,42.6841645 C32.1455085,42.6839867 32.2719208,42.6838118 32.3951034,42.6836409 L33.0936682,42.682674 C33.203045,42.6825242 33.3087486,42.6823809 33.4105574,42.6822452 L34.6178657,42.6809372 L34.774589,42.6808936 C36.1006703,42.6808936 36.2639734,41.5757633 36.2836302,41.2739485 C36.2836302,46.1898728 32.4777617,50.2719954 27.581694,50.2719954 L27.259201,50.2709061 C27.208201,50.2707261 27.1585032,50.2705469 27.1099995,50.2703686 L26.8324399,50.2693111 C26.7882794,50.269137 26.7450965,50.2689641 26.702783,50.2687925 L26.4584682,50.2677787 C26.4191991,50.2676125 26.380583,50.2674479 26.3425115,50.2672848 L26.1197529,50.2663265 C26.0834272,50.2661703 26.0474297,50.2660159 26.0116522,50.2658634 L25.6926722,50.2645461 C25.6572406,50.2644062 25.6217043,50.2642685 25.585955,50.2641332 L25.2555408,50.2629822 C25.21754,50.2628621 25.1790015,50.2627446 25.1398173,50.26263 L24.6316795,50.2613961 C24.5855969,50.2613057 24.5384356,50.2612185 24.4900873,50.2611347 L23.0464173,50.2598226 C22.9721509,50.2597995 22.8958317,50.2597805 22.8173515,50.259766 L22.04976,50.2597549 C21.9573396,50.2597673 21.8624335,50.2597844 21.7649335,50.2598063 L18.8714862,50.261306 C18.7255568,50.2614114 18.5761676,50.2615225 18.4232104,50.2616393 L16.9473382,50.2628495 C9.79980517,50.2704711 4.39265939,47.0876959 2.40882962,41.545277 C-3.79963521,22.282719 16.8080384,21.403684 19.7235342,21.3750057 L20.0621929,21.3755061 Z M57.4797627,39.6840852 L57.4805168,39.7245686 C57.4919599,40.0801395 57.6749234,42.6580289 60.5749605,42.6580289 C60.622765,42.6580289 60.6745513,42.6580326 60.7302093,42.65804 L63.8260291,42.6594859 C63.9535617,42.6595622 64.0837567,42.6596411 64.2165039,42.6597226 L65.9249464,42.6608138 C66.0763531,42.6609137 66.2298723,42.6610158 66.3853941,42.6611198 L68.3407423,42.6624597 C68.5105254,42.6625784 68.6818713,42.6626987 68.85467,42.6628206 L70.4461153,42.6639568 C70.6266412,42.6640871 70.8082901,42.6642186 70.990952,42.6643513 L72.6592913,42.6655741 C72.8470416,42.6657129 73.035475,42.6658525 73.2244817,42.6659929 L74.3645199,42.6668438 C74.5553795,42.6669869 74.7465923,42.6671306 74.9380484,42.6672748 L76.6647548,42.6685826 C76.8566813,42.6687288 77.0485213,42.6688752 77.2401648,42.6690216 L78.3867883,42.6699009 C78.577206,42.6700473 78.7672074,42.6701937 78.9566824,42.6703399 L80.6447774,42.6716477 C80.8301047,42.6717919 81.0145759,42.6719356 81.1980809,42.6720787 L82.2866374,42.6729296 C82.4658379,42.67307 82.6438524,42.6732096 82.8205709,42.6733484 L84.3730761,42.6745712 C84.5410289,42.6747039 84.7073559,42.6748354 84.871947,42.6749657 L86.303431,42.6761019 C86.4566176,42.6762238 86.6077385,42.6763441 86.7566837,42.6764628 L88.4325592,42.6778027 C88.5623401,42.6779067 88.6895056,42.6780088 88.8139456,42.6781087 L90.16937,42.6791999 C90.2702476,42.6792814 90.36796,42.6793603 90.4623972,42.6794366 L92.2572663,42.6808936 C92.2572663,42.6808936 93.7693317,42.7525366 93.7693317,44.2296003 L93.7703731,48.8252782 C93.7703731,49.0821832 93.692853,50.3024818 92.2330733,50.3024818 L65.9696909,50.3009585 L65.953377,50.3009575 C58.1595873,50.3009575 57.4930537,42.6302672 57.4681303,40.3290602 L57.4681303,40.0838891 C57.4702955,39.8285926 57.4797627,39.6840852 57.4797627,39.6840852 Z M107.37792,39.6840852 L107.378674,39.7245686 C107.390117,40.0801395 107.573081,42.6580289 110.473118,42.6580289 C110.520922,42.6580289 110.572709,42.6580326 110.628367,42.65804 L113.724186,42.6594859 C113.851719,42.6595622 113.981914,42.6596411 114.114661,42.6597226 L115.823104,42.6608138 C115.97451,42.6609137 116.12803,42.6610158 116.283552,42.6611198 L118.2389,42.6624597 C118.408683,42.6625784 118.580029,42.6626987 118.752827,42.6628206 L120.344273,42.6639568 C120.524799,42.6640871 120.706448,42.6642186 120.889109,42.6643513 L122.557449,42.6655741 C122.745199,42.6657129 122.933632,42.6658525 123.122639,42.6659929 L124.262677,42.6668438 C124.453537,42.6669869 124.64475,42.6671306 124.836206,42.6672748 L126.562912,42.6685826 C126.754839,42.6687288 126.946679,42.6688752 127.138322,42.6690216 L128.284946,42.6699009 C128.475363,42.6700473 128.665365,42.6701937 128.85484,42.6703399 L130.542935,42.6716477 C130.728262,42.6717919 130.912733,42.6719356 131.096238,42.6720787 L132.184795,42.6729296 C132.363995,42.67307 132.54201,42.6732096 132.718728,42.6733484 L134.271234,42.6745712 C134.439186,42.6747039 134.605513,42.6748354 134.770104,42.6749657 L136.201588,42.6761019 C136.354775,42.6762238 136.505896,42.6763441 136.654841,42.6764628 L138.330717,42.6778027 C138.460498,42.6779067 138.587663,42.6780088 138.712103,42.6781087 L140.067527,42.6791999 C140.168405,42.6792814 140.266117,42.6793603 140.360555,42.6794366 L142.155424,42.6808936 C142.155424,42.6808936 143.667489,42.7525366 143.667489,44.2296003 L143.668486,48.8252782 C143.668486,49.0821832 143.589658,50.3024818 142.131231,50.3024818 L115.867848,50.3009585 L115.851534,50.3009575 C108.057745,50.3009575 107.391211,42.6302672 107.366288,40.3290602 L107.366288,40.0838891 C107.368453,39.8285926 107.37792,39.6840852 107.37792,39.6840852 Z M181.001895,23.1086553 C181.001895,23.1086553 188.627241,26.7228124 190.172572,35.1705807 C190.810663,38.661268 190.524883,44.6929929 183.70698,49.084552 C183.70698,49.084552 180.879418,50.2598009 177.78422,50.2567523 C177.588076,50.2544524 171.684894,50.2675585 165.827305,50.2751207 L164.878733,50.276297 C164.721007,50.2764845 164.563541,50.2766676 164.406448,50.2768462 L163.469286,50.2778611 C163.314142,50.2780207 163.159599,50.2781753 163.005769,50.2783249 L161.643646,50.279529 C161.495122,50.2796465 161.347652,50.2797584 161.20135,50.2798645 L158.71854,50.2811992 C158.590335,50.2811992 158.46398,50.2811992 158.339586,50.2811992 L157.617674,50.2811992 L157.276077,50.2811992 L157.285146,42.598015 C157.28515,42.6092507 157.289769,42.6092566 157.298857,42.6092681 L158.298573,42.6105073 C158.369607,42.6105941 158.443914,42.6106848 158.521347,42.610779 L159.590945,42.612066 C159.690982,42.6121851 159.793546,42.6123068 159.898487,42.6124309 L160.903112,42.6136068 C161.020973,42.6137433 161.140762,42.6138815 161.262331,42.6140213 L162.400469,42.615313 C162.531371,42.6154596 162.663605,42.6156071 162.79702,42.6157551 L163.6105,42.6166482 C163.748045,42.6167975 163.886473,42.616947 164.025635,42.6170964 L164.868216,42.6179895 C165.009715,42.6181375 165.151648,42.618285 165.293868,42.6184316 L166.577509,42.6197233 C166.720095,42.619863 166.862519,42.6200013 167.00463,42.6201378 L168.271161,42.6213137 C168.410053,42.6214378 168.548185,42.6215595 168.685406,42.6216785 L170.278817,42.6229656 C170.406367,42.6230598 170.53241,42.6231504 170.656795,42.6232373 L173.723433,42.6232925 C177.942077,42.5769759 184.45235,41.1537639 184.447892,31.870433 C184.44638,27.2197399 182.970604,24.5994379 180.886978,23.1299957 L181.001895,23.1086553 Z M204.150104,13.7188587 C204.984764,13.7188587 205.662169,14.401753 205.662169,15.2431763 L205.662169,33.6523603 C205.662169,20.2475111 198.101843,13.7188587 198.101843,13.7188587 L204.150104,13.7188587 Z M196.59114,1.72313653 C196.593911,1.73958642 196.601044,1.78022282 196.613772,1.8421158 L196.64705,1.99337577 C196.937316,3.23843662 198.484962,8.26694612 204.670255,9.03920354 C204.506952,9.10017625 204.334576,9.14590578 204.150104,9.14590578 L198.101843,9.14590578 C197.267183,9.14590578 196.589777,8.46301148 196.589777,7.62158815 L196.59114,1.72313653 Z M233.487197,21.4075168 C233.944264,21.4506708 248,22.8556185 248,32.5899109 L248,48.7796885 C248,49.6211118 247.324107,50.3024818 246.489447,50.3040061 L240.444209,50.3070573 C239.606525,50.3085791 238.92912,49.6241604 238.930632,48.7796885 L238.974482,28.962035 C238.974482,22.8175106 235.044624,21.6361644 233.487197,21.4075168 Z" id="形状结合"></path>
            </g>
        </g>
    </g>
</svg>